{
.appVersion = "1264";
DisplayStrings = (
"OS/plus.01 CHAVE",
"fì Fì Pï P/imacron  Tä T/imacron  V/imacron  T/acircumflexgrave T/adblgrave T/ecircumflexgrave T/edblgrave T/idblgrave T/ocircumflexgrave T/odblgrave T/udblgrave  F/acircumflexgrave F/adblgrave F/ecircumflexgrave F/edblgrave F/idblgrave F/ocircumflexgrave F/odblgrave F/udblgrave  V/acircumflexgrave V/adblgrave V/ecircumflexgrave V/edblgrave V/idblgrave V/ocircumflexgrave V/odblgrave V/udblgrave  W/acircumflexgrave W/adblgrave W/ecircumflexgrave W/edblgrave W/idblgrave W/ocircumflexgrave W/odblgrave W/udblgrave  P/acircumflexgrave P/adblgrave P/ecircumflexgrave P/edblgrave P/idblgrave P/ocircumflexgrave P/odblgrave P/udblgrave VïWïFïTï"
);
copyright = "Copyright 2019 The Tomorrow Project Authors (https://github.com/MonicaRizzolli/Tomorrow)";
customParameters = (
{
name = vendorID;
value = JUST;
},
{
name = license;
value = "This Font Software is licensed under the SIL Open Font License, Version 1.1. This license is available with a FAQ at: http://scripts.sil.org/OFL";
},
{
name = licenseURL;
value = "http://scripts.sil.org/OFL";
},
{
name = fsType;
value = (
);
},
{
name = "Use Typo Metrics";
value = 1;
}
);
date = "2019-10-08 22:37:01 +0000";
designer = "Tony de Marco, Monica Rizzolli";
designerURL = "http://contrast.parts";
familyName = Tomorrow;
featurePrefixes = (
{
automatic = 1;
code = "languagesystem DFLT dflt;\012languagesystem latn dflt;\012languagesystem cyrl dflt;\012languagesystem latn CAT;\012languagesystem latn ROM;\012languagesystem latn MOL;\012languagesystem latn KAZ;\012languagesystem latn TRK;\012languagesystem latn CRT;\012languagesystem latn AZE;\012languagesystem cyrl TAT;\012";
name = Languagesystems;
}
);
features = (
{
automatic = 1;
code = "feature locl;\012feature ordn;\012feature sups;\012feature frac;\012";
name = aalt;
},
{
automatic = 1;

glyphs = (
{
glyphname = A;
lastChange = "2019-10-06 18:21:13 +0000";
layers = (
{
layerId = "2BED5241-FEE2-452B-8B42-4A46EDD0955E";
paths = (
{
closed = 1;
nodes = (
"315 0 LINE",
"351.491 109 LINE",
"538.949 109 LINE",
"537 0 LINE",
"828.998 0 LINE",
"798.39 737 LINE",
"308.154 737 LINE",
"10.435 0 LINE"
);
},
{
closed = 1;
nodes = (
"505.154 568 LINE",
"547.154 568 LINE",
"542.184 290 LINE",
"412.086 290 LINE"
);
}
);
width = 840;
}
);
leftKerningGroup = A;
rightKerningGroup = A;
unicode = 0041;
},
{
glyphname = Aacute;
lastChange = "2019-10-06 18:21:19 +0000";
layers = (
{
layerId = "2BED5241-FEE2-452B-8B42-4A46EDD0955E";
paths = (
{
closed = 1;
nodes = (
"315 0 LINE",
"351.491 109 LINE",
"538.949 109 LINE",
"537 0 LINE",
"828.998 0 LINE",
"798.39 737 LINE",
"308.154 737 LINE",
"10.435 0 LINE"
);
},
{
closed = 1;
nodes = (
"505.154 568 LINE",
"547.154 568 LINE",
"542.184 290 LINE",
"412.086 290 LINE"
);
},
{
closed = 1;
nodes = (
"636.503 789 LINE",
"827.244 952 LINE",
"586.244 952 LINE",
"478.503 789 LINE"
);
}
);
width = 840;
}
);
leftKerningGroup = A;
rightKerningGroup = A;
unicode = 00C1;
},
{
glyphname = Abreve;
lastChange = "2019-10-06 19:24:56 +0000";
layers = (
{
layerId = "2BED5241-FEE2-452B-8B42-4A46EDD0955E";
paths = (
{
closed = 1;
nodes = (
"315 0 LINE",
"351.491 109 LINE",
"538.949 109 LINE",
"537 0 LINE",
"828.998 0 LINE",
"798.39 737 LINE",
"308.154 737 LINE",
"10.435 0 LINE"
);
},
{
closed = 1;
nodes = (
"505.154 568 LINE",
"547.154 568 LINE",
"542.184 290 LINE",
"412.086 290 LINE"
);
},
{
closed = 1;
nodes = (
"697.503 789 LINE",
"816.02 877 LINE",
"829.244 952 LINE",
"633.244 952 LINE",
"624.075 900 LINE",
"522.075 900 LINE",
"531.244 952 LINE",
"345.244 952 LINE",
"332.02 877 LINE",
"419.503 789 LINE"
);
}
);
width = 840;
}
);
leftKerningGroup = A;
rightKerningGroup = A;
unicode = 0102;
},
{
glyphname = Abreveacute;
lastChange = "2019-10-06 19:24:56 +0000";
layers = (
{
layerId = "2BED5241-FEE2-452B-8B42-4A46EDD0955E";
paths = (
{
closed = 1;
nodes = (
"315 0 LINE",
"351.491 109 LINE",
"538.949 109 LINE",
"537 0 LINE",
"828.998 0 LINE",
"798.39 737 LINE",
"308.154 737 LINE",
"10.435 0 LINE"
);
},
{
closed = 1;
nodes = (
"505.154 568 LINE",
"547.154 568 LINE",
"542.184 290 LINE",
"412.086 290 LINE"
);
},
{
closed = 1;
nodes = (
"697.503 789 LINE",
"816.02 877 LINE",
"829.244 952 LINE",
"633.244 952 LINE",
"624.075 900 LINE",
"522.075 900 LINE",
"531.244 952 LINE",
"345.244 952 LINE",
"332.02 877 LINE",
"419.503 789 LINE"
);
},
{
closed = 1;
nodes = (
"659.486 984.796 LINE",
"850.227 1147.796 LINE",
"609.227 1147.796 LINE",
"501.486 984.796 LINE"
);
}
);
width = 840;
}
);
leftKerningGroup = A;
rightKerningGroup = A;
unicode = 1EAE;
},
{
glyphname = Abrevedotbelow;
lastChange = "2019-10-06 19:24:56 +0000";
layers = (
{
layerId = "2BED5241-FEE2-452B-8B42-4A46EDD0955E";
paths = (
{
closed = 1;
nodes = (
"315 0 LINE",
"351.491 109 LINE",
"538.949 109 LINE",
"537 0 LINE",
"828.998 0 LINE",
"798.39 737 LINE",
"308.154 737 LINE",
"10.435 0 LINE"
);
},
{
closed = 1;
nodes = (
"526.645 -209.013 LINE",
"554.505 -51.013 LINE",
"281.505 -51.013 LINE",
"253.645 -209.013 LINE"
);
},
{
closed = 1;
nodes = (
"505.154 568 LINE",
"547.154 568 LINE",
"542.184 290 LINE",
"412.086 290 LINE"
);
},
{
closed = 1;
nodes = (
"697.503 789 LINE",
"816.02 877 LINE",
"829.244 952 LINE",
"633.244 952 LINE",
"624.075 900 LINE",
"522.075 900 LINE",
"531.244 952 LINE",
"345.244 952 LINE",
"332.02 877 LINE",
"419.503 789 LINE"
);
}
);
width = 840;
}
);
leftKerningGroup = A;
rightKerningGroup = A;
unicode = 1EB6;
},
{
glyphname = Abrevegrave;
lastChange = "2019-10-06 19:24:56 +0000";
layers = (
{
layerId = "2BED5241-FEE2-452B-8B42-4A46EDD0955E";
paths = (
{
closed = 1;
nodes = (
"315 0 LINE",
"351.491 109 LINE",
"538.949 109 LINE",
"537 0 LINE",
"828.998 0 LINE",
"798.39 737 LINE",
"308.154 737 LINE",
"10.435 0 LINE"
);
},
{
closed = 1;
nodes = (
"505.154 568 LINE",
"547.154 568 LINE",
"542.184 290 LINE",
"412.086 290 LINE"
);
},
{
closed = 1;
nodes = (
"697.503 789 LINE",
"816.02 877 LINE",
"829.244 952 LINE",
"633.244 952 LINE",
"624.075 900 LINE",
"522.075 900 LINE",
"531.244 952 LINE",
"345.244 952 LINE",
"332.02 877 LINE",
"419.503 789 LINE"
);
},
{
closed = 1;
nodes = (
"666.321 985 LINE",
"586.062 1148 LINE",
"371.062 1148 LINE",
"504.321 985 LINE"
);
}
);
width = 840;
}
);
leftKerningGroup = A;
rightKerningGroup = A;
unicode = 1EB0;
},
{
glyphname = Abrevehookabove;
lastChange = "2019-10-06 19:24:56 +0000";
layers = (
{
layerId = "2BED5241-FEE2-452B-8B42-4A46EDD0955E";
paths = (
{
closed = 1;
nodes = (
"315 0 LINE",
"351.491 109 LINE",
"538.949 109 LINE",
"537 0 LINE",
"828.998 0 LINE",
"798.39 737 LINE",
"308.154 737 LINE",
"10.435 0 LINE"
);
},
{
closed = 1;
nodes = (
"505.154 568 LINE",
"547.154 568 LINE",
"542.184 290 LINE",
"412.086 290 LINE"
);
},
{
closed = 1;
nodes = (
"697.503 789 LINE",
"816.02 877 LINE",
"829.244 952 LINE",
"633.244 952 LINE",
"624.075 900 LINE",
"522.075 900 LINE",
"531.244 952 LINE",
"345.244 952 LINE",
"332.02 877 LINE",
"419.503 789 LINE"
);
},
{
closed = 1;
nodes = (
"669.727 984.987 LINE",
"676.604 1023.987 LINE",
"718.604 1023.987 LINE",
"773.304 1061.987 LINE",
"794.287 1180.987 LINE",
"752.693 1222.987 LINE",
"519.693 1222.987 LINE",
"457.287 1180.987 LINE",
"445.826 1115.987 LINE",
"595.826 1115.987 LINE",
"603.055 1156.987 LINE",
"635.055 1156.987 LINE",
"623.418 1090.987 LINE",
"559.418 1090.987 LINE",
"515.304 1061.987 LINE",
"501.727 984.987 LINE"
);
}
);
width = 840;
}
);
leftKerningGroup = A;
rightKerningGroup = A;
unicode = 1EB2;
},
{
glyphname = Abrevetilde;
lastChange = "2019-10-06 19:24:56 +0000";
layers = (
{
layerId = "2BED5241-FEE2-452B-8B42-4A46EDD0955E";
paths = (
{
closed = 1;
nodes = (
"315 0 LINE",
"351.491 109 LINE",
"538.949 109 LINE",
"537 0 LINE",
"828.998 0 LINE",
"798.39 737 LINE",
"308.154 737 LINE",
"10.435 0 LINE"
);
},
{
closed = 1;
nodes = (
"505.154 568 LINE",
"547.154 568 LINE",
"542.184 290 LINE",
"412.086 290 LINE"
);
},
{
closed = 1;
nodes = (
"697.503 789 LINE",
"816.02 877 LINE",
"829.244 952 LINE",
"633.244 952 LINE",
"624.075 900 LINE",
"522.075 900 LINE",
"531.244 952 LINE",
"345.244 952 LINE",
"332.02 877 LINE",
"419.503 789 LINE"
);
},
{
closed = 1;
nodes = (
"763.857 983 LINE",
"860.553 1055 LINE",
"876.246 1144 LINE",
"724.246 1144 LINE",
"718.427 1111 LINE",
"699.782 1096 LINE",
"681.782 1096 LINE",
"642.48 1151 LINE",
"444.48 1151 LINE",
"348.432 1077 LINE",
"332.915 989 LINE",
"484.915 989 LINE",
"490.557 1021 LINE",
"509.379 1037 LINE",
"526.379 1037 LINE",
"566.857 983 LINE"
);
}
);
width = 840;
}
);
leftKerningGroup = A;
rightKerningGroup = A;
unicode = 1EB4;
},
{
glyphname = Acircumflex;
lastChange = "2019-10-06 19:24:56 +0000";
layers = (
{
layerId = "2BED5241-FEE2-452B-8B42-4A46EDD0955E";
paths = (
{
closed = 1;
nodes = (
"315 0 LINE",
"351.491 109 LINE",
"538.949 109 LINE",
"537 0 LINE",
"828.998 0 LINE",
"798.39 737 LINE",
"308.154 737 LINE",
"10.435 0 LINE"
);
},
{
closed = 1;
nodes = (
"505.154 568 LINE",
"547.154 568 LINE",
"542.184 290 LINE",
"412.086 290 LINE"
);
},
{
closed = 1;
nodes = (
"480.503 789 LINE",
"569.904 865 LINE",
"632.503 789 LINE",
"819.503 789 LINE",
"725.244 952 LINE",
"440.244 952 LINE",
"288.503 789 LINE"
);
}
);
width = 840;
}
);
leftKerningGroup = A;
rightKerningGroup = A;
unicode = 00C2;
},
{
glyphname = Acircumflexacute;
lastChange = "2019-10-06 19:24:56 +0000";
layers = (
{
layerId = "2BED5241-FEE2-452B-8B42-4A46EDD0955E";
paths = (
{
closed = 1;
nodes = (
"315 0 LINE",
"351.491 109 LINE",
"538.949 109 LINE",
"537 0 LINE",
"828.998 0 LINE",
"798.39 737 LINE",
"308.154 737 LINE",
"10.435 0 LINE"
);
},
{
closed = 1;
nodes = (
"505.154 568 LINE",
"547.154 568 LINE",
"542.184 290 LINE",
"412.086 290 LINE"
);
},
{
closed = 1;
nodes = (
"480.503 789 LINE",
"569.904 865 LINE",
"632.503 789 LINE",
"819.503 789 LINE",
"725.244 952 LINE",
"440.244 952 LINE",
"288.503 789 LINE"
);
},
{
closed = 1;
nodes = (
"1012.093 876.724 LINE",
"1202.834 1039.724 LINE",
"961.834 1039.724 LINE",
"854.093 876.724 LINE"
);
}
);
width = 840;
}
);
leftKerningGroup = A;
rightKerningGroup = A;
unicode = 1EA4;
},
{
glyphname = Acircumflexdotbelow;
lastChange = "2019-10-06 19:24:56 +0000";
layers = (
{
layerId = "2BED5241-FEE2-452B-8B42-4A46EDD0955E";
paths = (
{
closed = 1;
nodes = (
"315 0 LINE",
"351.491 109 LINE",
"538.949 109 LINE",
"537 0 LINE",
"828.998 0 LINE",
"798.39 737 LINE",
"308.154 737 LINE",
"10.435 0 LINE"
);
},
{
closed = 1;
nodes = (
"526.645 -209.013 LINE",
"554.505 -51.013 LINE",
"281.505 -51.013 LINE",
"253.645 -209.013 LINE"
);
},
{
closed = 1;
nodes = (
"505.154 568 LINE",
"547.154 568 LINE",
"542.184 290 LINE",
"412.086 290 LINE"
);
},
{
closed = 1;
nodes = (
"480.503 789 LINE",
"569.904 865 LINE",
"632.503 789 LINE",
"819.503 789 LINE",
"725.244 952 LINE",
"440.244 952 LINE",
"288.503 789 LINE"
);
}
);
width = 840;
}
);
leftKerningGroup = A;
rightKerningGroup = A;
unicode = 1EAC;
},
{
glyphname = Acircumflexgrave;
lastChange = "2019-10-06 19:24:56 +0000";
layers = (
{
layerId = "2BED5241-FEE2-452B-8B42-4A46EDD0955E";
paths = (
{
closed = 1;
nodes = (
"315 0 LINE",
"351.491 109 LINE",
"538.949 109 LINE",
"537 0 LINE",
"828.998 0 LINE",
"798.39 737 LINE",
"308.154 737 LINE",
"10.435 0 LINE"
);
},
{
closed = 1;
nodes = (
"505.154 568 LINE",
"547.154 568 LINE",
"542.184 290 LINE",
"412.086 290 LINE"
);
},
{
closed = 1;
nodes = (
"322.506 876.53 LINE",
"242.247 1039.53 LINE",
"27.247 1039.53 LINE",
"160.506 876.53 LINE"
);
},
{
closed = 1;
nodes = (
"480.503 789 LINE",
"569.904 865 LINE",
"632.503 789 LINE",
"819.503 789 LINE",
"725.244 952 LINE",
"440.244 952 LINE",
"288.503 789 LINE"
);
}
);
width = 840;
}
);
leftKerningGroup = A;
rightKerningGroup = A;
unicode = 1EA6;
},
{
glyphname = Acircumflexhookabove;
lastChange = "2019-10-06 19:24:56 +0000";
layers = (
{
layerId = "2BED5241-FEE2-452B-8B42-4A46EDD0955E";
paths = (
{
closed = 1;
nodes = (
"315 0 LINE",
"351.491 109 LINE",
"538.949 109 LINE",
"537 0 LINE",
"828.998 0 LINE",
"798.39 737 LINE",
"308.154 737 LINE",
"10.435 0 LINE"
);
},
{
closed = 1;
nodes = (
"505.154 568 LINE",
"547.154 568 LINE",
"542.184 290 LINE",
"412.086 290 LINE"
);
},
{
closed = 1;
nodes = (
"480.503 789 LINE",
"569.904 865 LINE",
"632.503 789 LINE",
"819.503 789 LINE",
"725.244 952 LINE",
"440.244 952 LINE",
"288.503 789 LINE"
);
},
{
closed = 1;
nodes = (
"984.958 876.653 LINE",
"991.835 915.653 LINE",
"1033.835 915.653 LINE",
"1088.535 953.653 LINE",
"1109.518 1072.653 LINE",
"1067.924 1114.653 LINE",
"834.924 1114.653 LINE",
"772.518 1072.653 LINE",
"761.057 1007.653 LINE",
"911.057 1007.653 LINE",
"918.286 1048.653 LINE",
"950.286 1048.653 LINE",
"938.649 982.653 LINE",
"874.649 982.653 LINE",
"830.535 953.653 LINE",
"816.958 876.653 LINE"
);
}
);
width = 840;
}
);
leftKerningGroup = A;
rightKerningGroup = A;
unicode = 1EA8;
},
{
glyphname = Acircumflextilde;
lastChange = "2019-10-06 19:24:56 +0000";
layers = (
{
layerId = "2BED5241-FEE2-452B-8B42-4A46EDD0955E";
paths = (
{
closed = 1;
nodes = (
"315 0 LINE",
"351.491 109 LINE",
"538.949 109 LINE",
"537 0 LINE",
"828.998 0 LINE",
"798.39 737 LINE",
"308.154 737 LINE",
"10.435 0 LINE"
);
},
{
closed = 1;
nodes = (
"505.154 568 LINE",
"547.154 568 LINE",
"542.184 290 LINE",
"412.086 290 LINE"
);
},
{
closed = 1;
nodes = (
"480.503 789 LINE",
"569.904 865 LINE",
"632.503 789 LINE",
"819.503 789 LINE",
"725.244 952 LINE",
"440.244 952 LINE",
"288.503 789 LINE"
);
},
{
closed = 1;
nodes = (
"764.71 983 LINE",
"861.406 1055 LINE",
"877.099 1144 LINE",
"725.099 1144 LINE",
"719.28 1111 LINE",
"700.635 1096 LINE",
"682.635 1096 LINE",
"643.333 1151 LINE",
"445.333 1151 LINE",
"349.285 1077 LINE",
"333.768 989 LINE",
"485.768 989 LINE",
"491.41 1021 LINE",
"510.232 1037 LINE",
"527.232 1037 LINE",
"567.71 983 LINE"
);
}
);
width = 840;
}
);
leftKerningGroup = A;
rightKerningGroup = A;
unicode = 1EAA;
},
{
glyphname = Adblgrave;
lastChange = "2019-10-06 19:24:56 +0000";
layers = (
{
layerId = "2BED5241-FEE2-452B-8B42-4A46EDD0955E";
paths = (
{
closed = 1;
nodes = (
"315 0 LINE",
"351.491 109 LINE",
"538.949 109 LINE",
"537 0 LINE",
"828.998 0 LINE",
"798.39 737 LINE",
"308.154 737 LINE",
"10.435 0 LINE"
);
},
{
closed = 1;
nodes = (
"505.154 568 LINE",
"547.154 568 LINE",
"542.184 290 LINE",
"412.086 290 LINE"
);
},
{
closed = 1;
nodes = (
"485.503 789 LINE",
"405.244 952 LINE",
"190.244 952 LINE",
"323.503 789 LINE"
);
},
{
closed = 1;
nodes = (
"772.503 789 LINE",
"692.244 952 LINE",
"477.244 952 LINE",
"610.503 789 LINE"
);
}
);
width = 840;
}
);
leftKerningGroup = A;
rightKerningGroup = A;
unicode = 0200;
},
{
glyphname = Adieresis;
lastChange = "2019-10-06 19:24:56 +0000";
layers = (
{
layerId = "2BED5241-FEE2-452B-8B42-4A46EDD0955E";
paths = (
{
closed = 1;
nodes = (
"315 0 LINE",
"351.491 109 LINE",
"538.949 109 LINE",
"537 0 LINE",
"828.998 0 LINE",
"798.39 737 LINE",
"308.154 737 LINE",
"10.435 0 LINE"
);
},
{
closed = 1;
nodes = (
"505.154 568 LINE",
"547.154 568 LINE",
"542.184 290 LINE",
"412.086 290 LINE"
);
},
{
closed = 1;
nodes = (
"527.456 789 LINE",
"555.316 947 LINE",
"307.316 947 LINE",
"279.456 789 LINE"
);
},
{
closed = 1;
nodes = (
"833.869 789 LINE",
"861.729 947 LINE",
"613.729 947 LINE",
"585.869 789 LINE"
);
}
);
width = 840;
}
);
leftKerningGroup = A;
rightKerningGroup = A;
unicode = 00C4;
},
{
glyphname = Adotbelow;
lastChange = "2019-10-06 19:24:56 +0000";
layers = (
{
layerId = "2BED5241-FEE2-452B-8B42-4A46EDD0955E";
paths = (
{
closed = 1;
nodes = (
"315 0 LINE",
"351.491 109 LINE",
"538.949 109 LINE",
"537 0 LINE",
"828.998 0 LINE",
"798.39 737 LINE",
"308.154 737 LINE",
"10.435 0 LINE"
);
},
{
closed = 1;
nodes = (
"505.154 568 LINE",
"547.154 568 LINE",
"542.184 290 LINE",
"412.086 290 LINE"
);
},
{
closed = 1;
nodes = (
"526.645 -209.013 LINE",
"554.505 -51.013 LINE",
"281.505 -51.013 LINE",
"253.645 -209.013 LINE"
);
}
);
width = 840;
}
);
leftKerningGroup = A;
rightKerningGroup = A;
unicode = 1EA0;
},
{
glyphname = Agrave;
lastChange = "2019-10-06 19:24:56 +0000";
layers = (
{
layerId = "2BED5241-FEE2-452B-8B42-4A46EDD0955E";
paths = (
{
closed = 1;
nodes = (
"315 0 LINE",
"351.491 109 LINE",
"538.949 109 LINE",
"537 0 LINE",
"828.998 0 LINE",
"798.39 737 LINE",
"308.154 737 LINE",
"10.435 0 LINE"
);
},
{
closed = 1;
nodes = (
"505.154 568 LINE",
"547.154 568 LINE",
"542.184 290 LINE",
"412.086 290 LINE"
);
},
{
closed = 1;
nodes = (
"640.503 789 LINE",
"560.244 952 LINE",
"345.244 952 LINE",
"478.503 789 LINE"
);
}
);
width = 840;
}
);
leftKerningGroup = A;
rightKerningGroup = A;
unicode = 00C0;
},
{
glyphname = Ahookabove;
lastChange = "2019-10-06 19:24:56 +0000";
layers = (
{
layerId = "2BED5241-FEE2-452B-8B42-4A46EDD0955E";
paths = (
{
closed = 1;
nodes = (
"315 0 LINE",
"351.491 109 LINE",
"538.949 109 LINE",
"537 0 LINE",
"828.998 0 LINE",
"798.39 737 LINE",
"308.154 737 LINE",
"10.435 0 LINE"
);
},
{
closed = 1;
nodes = (
"505.154 568 LINE",
"547.154 568 LINE",
"542.184 290 LINE",
"412.086 290 LINE"
);
},
{
closed = 1;
nodes = (
"640.503 789 LINE",
"647.38 828 LINE",
"689.38 828 LINE",
"744.08 866 LINE",
"765.063 985 LINE",
"723.469 1027 LINE",
"490.469 1027 LINE",
"428.063 985 LINE",
"416.602 920 LINE",
"566.602 920 LINE",
"573.831 961 LINE",
"605.831 961 LINE",
"594.194 895 LINE",
"530.194 895 LINE",
"486.08 866 LINE",
"472.503 789 LINE"
);
}
);
width = 840;
}
);
leftKerningGroup = A;
rightKerningGroup = A;
unicode = 1EA2;
},
{
glyphname = Ainvertedbreve;
lastChange = "2019-10-06 19:24:56 +0000";
layers = (
{
layerId = "2BED5241-FEE2-452B-8B42-4A46EDD0955E";
paths = (
{
closed = 1;
nodes = (
"315 0 LINE",
"351.491 109 LINE",
"538.949 109 LINE",
"537 0 LINE",
"828.998 0 LINE",
"798.39 737 LINE",
"308.154 737 LINE",
"10.435 0 LINE"
);
},
{
closed = 1;
nodes = (
"505.154 568 LINE",
"547.154 568 LINE",
"542.184 290 LINE",
"412.086 290 LINE"
);
},
{
closed = 1;
nodes = (
"505.503 789 LINE",
"514.672 841 LINE",
"616.672 841 LINE",
"607.503 789 LINE",
"803.503 789 LINE",
"816.728 864 LINE",
"729.244 952 LINE",
"441.244 952 LINE",
"322.728 864 LINE",
"309.503 789 LINE"
);
}
);
width = 840;
}
);
leftKerningGroup = A;
rightKerningGroup = A;
unicode = 0202;
},
{
glyphname = Amacron;
lastChange = "2019-10-06 19:24:56 +0000";
layers = (
{
layerId = "2BED5241-FEE2-452B-8B42-4A46EDD0955E";
paths = (
{
closed = 1;
nodes = (
"315 0 LINE",
"351.491 109 LINE",
"538.949 109 LINE",
"537 0 LINE",
"828.998 0 LINE",
"798.39 737 LINE",
"308.154 737 LINE",
"10.435 0 LINE"
);
},
{
closed = 1;
nodes = (
"505.154 568 LINE",
"547.154 568 LINE",
"542.184 290 LINE",
"412.086 290 LINE"
);
},
{
closed = 1;
nodes = (
"834.503 789 LINE",
"860.776 938 LINE",
"304.776 938 LINE",
"278.503 789 LINE"
);
}
);
width = 840;
}
);
leftKerningGroup = A;
rightKerningGroup = A;
unicode = 0100;
},
{
glyphname = Aogonek;
lastChange = "2019-10-06 19:24:56 +0000";
layers = (
{
layerId = "2BED5241-FEE2-452B-8B42-4A46EDD0955E";
paths = (
{
closed = 1;
nodes = (
"315 0 LINE",
"351.491 109 LINE",
"538.949 109 LINE",
"537 0 LINE",
"486.107 -33 LINE",
"470.414 -122 LINE",
"541.248 -191 LINE",
"638.248 -191 LINE",
"660.641 -64 LINE",
"632.641 -64 LINE",
"619.11 -50 LINE",
"623.341 -26 LINE",
"657.926 0 LINE",
"828.998 0 LINE",
"798.39 737 LINE",
"308.154 737 LINE",
"10.435 0 LINE"
);
},
{
closed = 1;
nodes = (
"505.154 568 LINE",
"547.154 568 LINE",
"542.184 290 LINE",
"412.086 290 LINE"
);
}
);
width = 840;
}
);
leftKerningGroup = A;
leftMetricsKey = A;
rightKerningGroup = A;
rightMetricsKey = A;
unicode = 0104;
},
{
glyphname = Aring;
lastChange = "2019-10-06 19:24:56 +0000";
layers = (
{
layerId = "2BED5241-FEE2-452B-8B42-4A46EDD0955E";
paths = (
{
closed = 1;
nodes = (
"315 0 LINE",
"351.491 109 LINE",
"538.949 109 LINE",
"537 0 LINE",
"828.998 0 LINE",
"798.39 737 LINE",
"308.154 737 LINE",
"10.435 0 LINE"
);
},
{
closed = 1;
nodes = (
"505.154 568 LINE",
"547.154 568 LINE",
"542.184 290 LINE",
"412.086 290 LINE"
);
},
{
closed = 1;
nodes = (
"624.003 789 LINE",
"713.404 865 LINE",
"728.921 953 LINE",
"666.321 1029 LINE",
"531.321 1029 LINE",
"441.921 953 LINE",
"426.404 865 LINE",
"489.003 789 LINE"
);
},
{
closed = 1;
nodes = (
"553.075 900 LINE",
"556.073 917 LINE",
"572.718 932 LINE",
"589.718 932 LINE",
"602.073 917 LINE",
"599.075 900 LINE",
"581.607 886 LINE",
"564.607 886 LINE"
);
}
);
width = 840;
}
);
leftKerningGroup = A;
rightKerningGroup = A;
unicode = 00C5;
},
{
glyphname = Aringacute;
lastChange = "2019-10-06 19:24:56 +0000";
layers = (
{
layerId = "2BED5241-FEE2-452B-8B42-4A46EDD0955E";
paths = (
{
closed = 1;
nodes = (
"315 0 LINE",
"351.491 109 LINE",
"538.949 109 LINE",
"537 0 LINE",
"828.998 0 LINE",
"798.39 737 LINE",
"308.154 737 LINE",
"10.435 0 LINE"
);
},
{
closed = 1;
nodes = (
"505.154 568 LINE",
"547.154 568 LINE",
"542.184 290 LINE",
"412.086 290 LINE"
);
},
{
closed = 1;
nodes = (
"624.003 789 LINE",
"713.404 865 LINE",
"728.921 953 LINE",
"666.321 1029 LINE",
"531.321 1029 LINE",
"441.921 953 LINE",
"426.404 865 LINE",
"489.003 789 LINE"
);
},
{
closed = 1;
nodes = (
"553.075 900 LINE",
"556.073 917 LINE",
"572.718 932 LINE",
"589.718 932 LINE",
"602.073 917 LINE",
"599.075 900 LINE",
"581.607 886 LINE",
"564.607 886 LINE"
);
},
{
closed = 1;
nodes = (
"683.032 1061.101 LINE",
"873.773 1224.101 LINE",
"632.773 1224.101 LINE",
"525.032 1061.101 LINE"
);
}
);
width = 840;
}
);
leftKerningGroup = A;
rightKerningGroup = A;
unicode = 01FA;
},
{
glyphname = Atilde;
lastChange = "2019-10-06 19:24:56 +0000";
layers = (
{
layerId = "2BED5241-FEE2-452B-8B42-4A46EDD0955E";
paths = (
{
closed = 1;
nodes = (
"315 0 LINE",
"351.491 109 LINE",
"538.949 109 LINE",
"537 0 LINE",
"828.998 0 LINE",
"798.39 737 LINE",
"308.154 737 LINE",
"10.435 0 LINE"
);
},
{
closed = 1;
nodes = (
"505.154 568 LINE",
"547.154 568 LINE",
"542.184 290 LINE",
"412.086 290 LINE"
);
},
{
closed = 1;
nodes = (
"731.503 789 LINE",
"828.199 861 LINE",
"843.892 950 LINE",
"691.892 950 LINE",
"686.073 917 LINE",
"667.428 902 LINE",
"649.428 902 LINE",
"610.126 957 LINE",
"412.126 957 LINE",
"316.078 883 LINE",
"300.561 795 LINE",
"452.561 795 LINE",
"458.203 827 LINE",
"477.025 843 LINE",
"494.025 843 LINE",
"534.503 789 LINE"
);
}
);
width = 840;
}
);
leftKerningGroup = A;
rightKerningGroup = A;
unicode = 00C3;
},
{
glyphname = AE;
lastChange = "2019-10-06 19:24:56 +0000";
layers = (
{
layerId = "2BED5241-FEE2-452B-8B42-4A46EDD0955E";
paths = (
{
closed = 1;
nodes = (
"314 0 LINE",
"350.491 109 LINE",
"537.949 109 LINE",
"536 0 LINE",
"1128.593 0 LINE",
"1163.329 197 LINE",
"821.026 197 LINE",
"817.026 289 LINE",
"1136.551 289 LINE",
"1164.587 448 LINE",
"810.112 448 LINE",
"806.113 540 LINE",
"1223.81 540 LINE",
"1258.546 737 LINE",
"308.154 737 LINE",
"10.435 0 LINE"
);
},
{
closed = 1;
nodes = (
"504.154 568 LINE",
"546.154 568 LINE",
"541.184 290 LINE",
"411.086 290 LINE"
);
}
);
width = 1167.6;
}
);
leftKerningGroup = A;
leftMetricsKey = A;
rightKerningGroup = E;
rightMetricsKey = E;
unicode = 00C6;
},
{
glyphname = AEacute;
lastChange = "2019-10-06 19:24:56 +0000";
layers = (
{
guideLines = (
{
angle = 90;
position = "{513, 309}";
}
);
layerId = "2BED5241-FEE2-452B-8B42-4A46EDD0955E";
paths = (
{
closed = 1;
nodes = (
"314 0 LINE",
"350.491 109 LINE",
"537.949 109 LINE",
"536 0 LINE",
"1128.593 0 LINE",
"1163.329 197 LINE",
"821.026 197 LINE",
"817.026 289 LINE",
"1136.551 289 LINE",
"1164.587 448 LINE",
"810.112 448 LINE",
"806.113 540 LINE",
"1223.81 540 LINE",
"1258.546 737 LINE",
"308.154 737 LINE",
"10.435 0 LINE"
);
},
{
closed = 1;
nodes = (
"504.154 568 LINE",
"546.154 568 LINE",
"541.184 290 LINE",
"411.086 290 LINE"
);
},
{
closed = 1;
nodes = (
"645.122 789 LINE",
"835.863 952 LINE",
"594.863 952 LINE",
"487.122 789 LINE"
);
}
);
width = 1167.6;
}
);
leftKerningGroup = A;
rightKerningGroup = E;
unicode = 01FC;
},
{
glyphname = B;
lastChange = "2019-09-10 19:27:05 +0000";
layers = (
{
layerId = "2BED5241-FEE2-452B-8B42-4A46EDD0955E";
paths = (
{
closed = 1;
nodes = (
"664.5 0 LINE",
"792.251 95 LINE",
"833.864 331 LINE",
"766.502 397 LINE",
"830.789 444 LINE",
"865.702 642 LINE",
"771.453 737 LINE",
"174.953 737 LINE",
"45 0 LINE"
);
},
{
closed = 1;
nodes = (
"389.385 309 LINE",
"539.985 309 LINE",
"512.478 153 LINE",
"361.878 153 LINE"
);
},
{
closed = 1;
nodes = (
"437.875 584 LINE",
"581.475 584 LINE",
"559.963 462 LINE",
"416.363 462 LINE"
);
}
);
width = 809.7;
}
);
leftKerningGroup = H;
leftMetricsKey = H;
rightKerningGroup = B;
unicode = 0042;
},
{
glyphname = C;
lastChange = "2019-10-06 19:24:56 +0000";
layers = (
{
layerId = "2BED5241-FEE2-452B-8B42-4A46EDD0955E";
paths = (
{
closed = 1;
nodes = (
"644 0 LINE",
"771.751 95 LINE",
"810.014 312 LINE",
"512.014 312 LINE",
"483.978 153 LINE",
"350.978 153 LINE",
"426.975 584 LINE",
"557.975 584 LINE",
"530.468 428 LINE",
"827.468 428 LINE",
"865.202 642 LINE",
"770.953 737 LINE",
"274.953 737 LINE",
"147.202 642 LINE",
"50.751 95 LINE",
"145 0 LINE"
);
}
);
width = 789;
}
);
leftKerningGroup = O;
leftMetricsKey = O;
rightKerningGroup = C;
rightMetricsKey = O;
unicode = 0043;
},
{
glyphname = Cacute;
lastChange = "2019-10-06 19:24:56 +0000";
layers = (
{
layerId = "2BED5241-FEE2-452B-8B42-4A46EDD0955E";
paths = (
{
closed = 1;
nodes = (
"644 0 LINE",
"771.751 95 LINE",
"810.014 312 LINE",
"512.014 312 LINE",
"483.978 153 LINE",
"350.978 153 LINE",
"426.975 584 LINE",
"557.975 584 LINE",
"530.468 428 LINE",
"827.468 428 LINE",
"865.202 642 LINE",
"770.953 737 LINE",
"274.953 737 LINE",
"147.202 642 LINE",
"50.751 95 LINE",
"145 0 LINE"
);
},
{
closed = 1;
nodes = (
"613.122 789 LINE",
"803.863 952 LINE",
"562.863 952 LINE",
"455.122 789 LINE"
);
}
);
width = 789;
}
);
leftKerningGroup = O;
rightKerningGroup = C;
unicode = 0106;
},
{
glyphname = Ccaron;
lastChange = "2019-10-06 19:24:56 +0000";
layers = (
{
layerId = "2BED5241-FEE2-452B-8B42-4A46EDD0955E";
paths = (
{
closed = 1;
nodes = (
"644 0 LINE",
"771.751 95 LINE",
"810.014 312 LINE",
"512.014 312 LINE",
"483.978 153 LINE",
"350.978 153 LINE",
"426.975 584 LINE",
"557.975 584 LINE",
"530.468 428 LINE",
"827.468 428 LINE",
"865.202 642 LINE",
"770.953 737 LINE",
"274.953 737 LINE",
"147.202 642 LINE",
"50.751 95 LINE",
"145 0 LINE"
);
},
{
closed = 1;
nodes = (
"678.122 789 LINE",
"829.863 952 LINE",
"637.863 952 LINE",
"548.462 876 LINE",
"485.863 952 LINE",
"298.863 952 LINE",
"393.122 789 LINE"
);
}
);
width = 789;
}
);
leftKerningGroup = O;
rightKerningGroup = C;
unicode = 010C;
},
{
glyphname = Ccedilla;
lastChange = "2019-10-06 19:24:56 +0000";
layers = (
{
layerId = "2BED5241-FEE2-452B-8B42-4A46EDD0955E";
paths = (
{
closed = 1;
nodes = (
"145 0 LINE",
"283 0 LINE",
"240.959 -125 LINE",
"414.959 -125 LINE",
"500 0 LINE",
"644 0 LINE",
"771.751 95 LINE",
"810.014 312 LINE",
"512.014 312 LINE",
"483.978 153 LINE",
"350.978 153 LINE",
"426.975 584 LINE",
"557.975 584 LINE",
"530.468 428 LINE",
"827.468 428 LINE",
"865.202 642 LINE",
"770.953 737 LINE",
"274.953 737 LINE",
"147.202 642 LINE",
"50.751 95 LINE"
);
}
);
width = 789;
}
);
leftKerningGroup = O;
rightKerningGroup = C;
unicode = 00C7;
},
{
glyphname = Ccircumflex;
lastChange = "2019-10-06 19:24:56 +0000";
layers = (
{
layerId = "2BED5241-FEE2-452B-8B42-4A46EDD0955E";
paths = (
{
closed = 1;
nodes = (
"644 0 LINE",
"771.751 95 LINE",
"810.014 312 LINE",
"512.014 312 LINE",
"483.978 153 LINE",
"350.978 153 LINE",
"426.975 584 LINE",
"557.975 584 LINE",
"530.468 428 LINE",
"827.468 428 LINE",
"865.202 642 LINE",
"770.953 737 LINE",
"274.953 737 LINE",
"147.202 642 LINE",
"50.751 95 LINE",
"145 0 LINE"
);
},
{
closed = 1;
nodes = (
"457.122 789 LINE",
"546.523 865 LINE",
"609.122 789 LINE",
"796.122 789 LINE",
"701.863 952 LINE",
"416.863 952 LINE",
"265.122 789 LINE"
);
}
);
width = 789;
}
);
leftKerningGroup = O;
rightKerningGroup = C;
unicode = 0108;
},
{
glyphname = Cdotaccent;
lastChange = "2019-10-06 19:24:56 +0000";
layers = (
{
layerId = "2BED5241-FEE2-452B-8B42-4A46EDD0955E";
paths = (
{
closed = 1;
nodes = (
"644 0 LINE",
"771.751 95 LINE",
"810.014 312 LINE",
"512.014 312 LINE",
"483.978 153 LINE",
"350.978 153 LINE",
"426.975 584 LINE",
"557.975 584 LINE",
"530.468 428 LINE",
"827.468 428 LINE",
"865.202 642 LINE",
"770.953 737 LINE",
"274.953 737 LINE",
"147.202 642 LINE",
"50.751 95 LINE",
"145 0 LINE"
);
},
{
closed = 1;
nodes = (
"669.622 789 LINE",
"697.482 947 LINE",
"424.482 947 LINE",
"396.622 789 LINE"
);
}
);
width = 789;
}
);
leftKerningGroup = O;
rightKerningGroup = C;
unicode = 010A;
},
{
glyphname = D;
lastChange = "2019-10-06 19:24:56 +0000";
layers = (
{
layerId = "2BED5241-FEE2-452B-8B42-4A46EDD0955E";
paths = (
{
closed = 1;
nodes = (
"612.5 0 LINE",
"804.949 150 LINE",
"881.828 586 LINE",
"742.453 737 LINE",
"174.953 737 LINE",
"45 0 LINE"
);
},
{
closed = 1;
nodes = (
"437.875 584 LINE",
"591.475 584 LINE",
"515.478 153 LINE",
"361.878 153 LINE"
);
}
);
width = 812.83;
}
);
leftKerningGroup = H;
leftMetricsKey = H;
rightKerningGroup = D;
unicode = 0044;
},
{
glyphname = DZcaron;
lastChange = "2019-10-06 19:24:56 +0000";
layers = (
{
layerId = "2BED5241-FEE2-452B-8B42-4A46EDD0955E";
paths = (
{
closed = 1;
nodes = (
"612.5 0 LINE",
"804.949 150 LINE",
"881.828 586 LINE",
"742.453 737 LINE",
"174.953 737 LINE",
"45 0 LINE"
);
},
{
closed = 1;
nodes = (
"437.875 584 LINE",
"591.475 584 LINE",
"515.478 153 LINE",
"361.878 153 LINE"
);
},
{
closed = 1;
nodes = (
"1480.83 0 LINE",
"1515.566 197 LINE",
"1208.566 197 LINE",
"1574.107 529 LINE",
"1610.783 737 LINE",
"984.783 737 LINE",
"950.047 540 LINE",
"1245.047 540 LINE",
"876.506 208 LINE",
"839.83 0 LINE"
);
},
{
closed = 1;
nodes = (
"1455.952 789 LINE",
"1607.693 952 LINE",
"1415.693 952 LINE",
"1326.292 876 LINE",
"1263.693 952 LINE",
"1076.693 952 LINE",
"1170.952 789 LINE"
);
}
);
width = 1513.83;
}
);
unicode = 01C4;
},
{
glyphname = Eth;
lastChange = "2019-10-06 19:24:56 +0000";
layers = (
{
layerId = "2BED5241-FEE2-452B-8B42-4A46EDD0955E";
paths = (
{
closed = 1;
nodes = (
"98.78 305 LINE",
"45 0 LINE",
"612.5 0 LINE",
"804.949 150 LINE",
"881.828 586 LINE",
"742.453 737 LINE",
"174.953 737 LINE",
"123.113 443 LINE",
"68.613 443 LINE",
"44.28 305 LINE"
);
},
{
closed = 1;
nodes = (
"388.68 305 LINE",
"473.28 305 LINE",
"497.613 443 LINE",
"413.013 443 LINE",
"437.875 584 LINE",
"591.475 584 LINE",
"515.478 153 LINE",
"361.878 153 LINE"
);
}
);
width = 811;
}
);
rightKerningGroup = D;
unicode = 00D0;
},
{
glyphname = Dcaron;
lastChange = "2019-10-06 19:24:56 +0000";
layers = (
{
layerId = "2BED5241-FEE2-452B-8B42-4A46EDD0955E";
paths = (
{
closed = 1;
nodes = (
"612.5 0 LINE",
"804.949 150 LINE",
"881.828 586 LINE",
"742.453 737 LINE",
"174.953 737 LINE",
"45 0 LINE"
);
},
{
closed = 1;
nodes = (
"437.875 584 LINE",
"591.475 584 LINE",
"515.478 153 LINE",
"361.878 153 LINE"
);
},
{
closed = 1;
nodes = (
"667.622 789 LINE",
"819.363 952 LINE",
"627.363 952 LINE",
"537.962 876 LINE",
"475.363 952 LINE",
"288.363 952 LINE",
"382.622 789 LINE"
);
}
);
width = 812.83;
}
);
rightKerningGroup = D;
unicode = 010E;
},
{
glyphname = Dcroat;
lastChange = "2019-10-06 19:24:56 +0000";
layers = (
{
layerId = "2BED5241-FEE2-452B-8B42-4A46EDD0955E";
paths = (
{
closed = 1;
nodes = (
"98.78 305 LINE",
"45 0 LINE",
"612.5 0 LINE",
"804.949 150 LINE",
"881.828 586 LINE",
"742.453 737 LINE",
"174.953 737 LINE",
"123.113 443 LINE",
"68.613 443 LINE",
"44.28 305 LINE"
);
},
{
closed = 1;
nodes = (
"388.68 305 LINE",
"473.28 305 LINE",
"497.613 443 LINE",
"413.013 443 LINE",
"437.875 584 LINE",
"591.475 584 LINE",
"515.478 153 LINE",
"361.878 153 LINE"
);
}
);
width = 811;
}
);
rightKerningGroup = D;
unicode = 0110;
},
{
glyphname = Dzcaron;
lastChange = "2019-10-06 18:22:55 +0000";
layers = (
{
layerId = "2BED5241-FEE2-452B-8B42-4A46EDD0955E";
paths = (
{
closed = 1;
nodes = (
"612.5 0 LINE",
"804.949 150 LINE",
"881.828 586 LINE",
"742.453 737 LINE",
"174.953 737 LINE",
"45 0 LINE"
);
},
{
closed = 1;
nodes = (
"437.875 584 LINE",
"591.475 584 LINE",
"515.478 153 LINE",
"361.878 153 LINE"
);
},
{
closed = 1;
nodes = (
"1408.83 0 LINE",
"1432.81 136 LINE",
"1193.307 136 LINE",
"1465.129 376 LINE",
"1491.049 523 LINE",
"962.049 523 LINE",
"937.892 386 LINE",
"1145.457 386 LINE",
"870.692 141 LINE",
"845.83 0 LINE"
);
},
{
closed = 1;
nodes = (
"1375.218 575 LINE",
"1526.959 738 LINE",
"1334.959 738 LINE",
"1245.558 662 LINE",
"1182.959 738 LINE",
"995.959 738 LINE",
"1090.218 575 LINE"
);
}
);
width = 1441.83;
}
);
unicode = 01C5;
},
{
glyphname = E;
lastChange = "2019-10-06 19:24:56 +0000";
layers = (
{
layerId = "2BED5241-FEE2-452B-8B42-4A46EDD0955E";
paths = (
{
closed = 1;
nodes = (
"697.5 0 LINE",
"732.236 197 LINE",
"369.636 197 LINE",
"385.858 289 LINE",
"706.458 289 LINE",
"734.494 448 LINE",
"413.894 448 LINE",
"430.117 540 LINE",
"792.717 540 LINE",
"827.453 737 LINE",
"174.953 737 LINE",
"45 0 LINE"
);
}
);
width = 736.5;
}
);
leftKerningGroup = H;
leftMetricsKey = H;
rightKerningGroup = E;
unicode = 0045;
},
{
glyphname = Eacute;
lastChange = "2019-10-06 19:24:56 +0000";
layers = (
{
layerId = "2BED5241-FEE2-452B-8B42-4A46EDD0955E";
paths = (
{
closed = 1;
nodes = (
"697.5 0 LINE",
"732.236 197 LINE",
"369.636 197 LINE",
"385.858 289 LINE",
"706.458 289 LINE",
"734.494 448 LINE",
"413.894 448 LINE",
"430.117 540 LINE",
"792.717 540 LINE",
"827.453 737 LINE",
"174.953 737 LINE",
"45 0 LINE"
);
},
{
closed = 1;
nodes = (
"585.622 789 LINE",
"776.363 952 LINE",
"535.363 952 LINE",
"427.622 789 LINE"
);
}
);
width = 736.5;
}
);
leftKerningGroup = H;
rightKerningGroup = E;
unicode = 00C9;
},
{
glyphname = Ebreve;
lastChange = "2019-10-06 19:24:56 +0000";
layers = (
{
layerId = "2BED5241-FEE2-452B-8B42-4A46EDD0955E";
paths = (
{
closed = 1;
nodes = (
"697.5 0 LINE",
"732.236 197 LINE",
"369.636 197 LINE",
"385.858 289 LINE",
"706.458 289 LINE",
"734.494 448 LINE",
"413.894 448 LINE",
"430.117 540 LINE",
"792.717 540 LINE",
"827.453 737 LINE",
"174.953 737 LINE",
"45 0 LINE"
);
},
{
closed = 1;
nodes = (
"646.622 789 LINE",
"765.139 877 LINE",
"778.363 952 LINE",
"582.363 952 LINE",
"573.194 900 LINE",
"471.194 900 LINE",
"480.363 952 LINE",
"294.363 952 LINE",
"281.139 877 LINE",
"368.622 789 LINE"
);
}
);
width = 736.5;
}
);
leftKerningGroup = H;
rightKerningGroup = E;
unicode = 0114;
},
{
glyphname = Ecaron;
lastChange = "2019-10-06 19:24:56 +0000";
layers = (
{
layerId = "2BED5241-FEE2-452B-8B42-4A46EDD0955E";
paths = (
{
closed = 1;
nodes = (
"697.5 0 LINE",
"732.236 197 LINE",
"369.636 197 LINE",
"385.858 289 LINE",
"706.458 289 LINE",
"734.494 448 LINE",
"413.894 448 LINE",
"430.117 540 LINE",
"792.717 540 LINE",
"827.453 737 LINE",
"174.953 737 LINE",
"45 0 LINE"
);
},
{
closed = 1;
nodes = (
"650.622 789 LINE",
"802.363 952 LINE",
"610.363 952 LINE",
"520.962 876 LINE",
"458.363 952 LINE",
"271.363 952 LINE",
"365.622 789 LINE"
);
}
);
width = 736.5;
}
);
leftKerningGroup = H;
rightKerningGroup = E;
unicode = 011A;
},
{
glyphname = Ecircumflex;
lastChange = "2019-10-06 19:24:56 +0000";
layers = (
{
layerId = "2BED5241-FEE2-452B-8B42-4A46EDD0955E";
paths = (
{
closed = 1;
nodes = (
"697.5 0 LINE",
"732.236 197 LINE",
"369.636 197 LINE",
"385.858 289 LINE",
"706.458 289 LINE",
"734.494 448 LINE",
"413.894 448 LINE",
"430.117 540 LINE",
"792.717 540 LINE",
"827.453 737 LINE",
"174.953 737 LINE",
"45 0 LINE"
);
},
{
closed = 1;
nodes = (
"429.622 789 LINE",
"519.023 865 LINE",
"581.622 789 LINE",
"768.622 789 LINE",
"674.363 952 LINE",
"389.363 952 LINE",
"237.622 789 LINE"
);
}
);
width = 736.5;
}
);
leftKerningGroup = H;
rightKerningGroup = E;
unicode = 00CA;
},
{
glyphname = Ecircumflexacute;
lastChange = "2019-10-06 19:24:56 +0000";
layers = (
{
layerId = "2BED5241-FEE2-452B-8B42-4A46EDD0955E";
paths = (
{
closed = 1;
nodes = (
"697.5 0 LINE",
"732.236 197 LINE",
"369.636 197 LINE",
"385.858 289 LINE",
"706.458 289 LINE",
"734.494 448 LINE",
"413.894 448 LINE",
"430.117 540 LINE",
"792.717 540 LINE",
"827.453 737 LINE",
"174.953 737 LINE",
"45 0 LINE"
);
},
{
closed = 1;
nodes = (
"429.622 789 LINE",
"519.023 865 LINE",
"581.622 789 LINE",
"768.622 789 LINE",
"674.363 952 LINE",
"389.363 952 LINE",
"237.622 789 LINE"
);
},
{
closed = 1;
nodes = (
"961.212 876.724 LINE",
"1151.953 1039.724 LINE",
"910.953 1039.724 LINE",
"803.212 876.724 LINE"
);
}
);
width = 736.5;
}
);
leftKerningGroup = H;
rightKerningGroup = E;
unicode = 1EBE;
},
{
glyphname = Ecircumflexdotbelow;
lastChange = "2019-10-06 19:24:56 +0000";
layers = (
{
layerId = "2BED5241-FEE2-452B-8B42-4A46EDD0955E";
paths = (
{
closed = 1;
nodes = (
"697.5 0 LINE",
"732.236 197 LINE",
"369.636 197 LINE",
"385.858 289 LINE",
"706.458 289 LINE",
"734.494 448 LINE",
"413.894 448 LINE",
"430.117 540 LINE",
"792.717 540 LINE",
"827.453 737 LINE",
"174.953 737 LINE",
"45 0 LINE"
);
},
{
closed = 1;
nodes = (
"465.145 -209.013 LINE",
"493.005 -51.013 LINE",
"220.005 -51.013 LINE",
"192.145 -209.013 LINE"
);
},
{
closed = 1;
nodes = (
"429.622 789 LINE",
"519.023 865 LINE",
"581.622 789 LINE",
"768.622 789 LINE",
"674.363 952 LINE",
"389.363 952 LINE",
"237.622 789 LINE"
);
}
);
width = 736.5;
}
);
leftKerningGroup = H;
rightKerningGroup = E;
unicode = 1EC6;
},
{
glyphname = Ecircumflexgrave;
lastChange = "2019-10-06 19:24:56 +0000";
layers = (
{
layerId = "2BED5241-FEE2-452B-8B42-4A46EDD0955E";
paths = (
{
closed = 1;
nodes = (
"697.5 0 LINE",
"732.236 197 LINE",
"369.636 197 LINE",
"385.858 289 LINE",
"706.458 289 LINE",
"734.494 448 LINE",
"413.894 448 LINE",
"430.117 540 LINE",
"792.717 540 LINE",
"827.453 737 LINE",
"174.953 737 LINE",
"45 0 LINE"
);
},
{
closed = 1;
nodes = (
"271.625 876.53 LINE",
"191.366 1039.53 LINE",
"-23.634 1039.53 LINE",
"109.625 876.53 LINE"
);
},
{
closed = 1;
nodes = (
"429.622 789 LINE",
"519.023 865 LINE",
"581.622 789 LINE",
"768.622 789 LINE",
"674.363 952 LINE",
"389.363 952 LINE",
"237.622 789 LINE"
);
}
);
width = 736.5;
}
);
leftKerningGroup = H;
rightKerningGroup = E;
unicode = 1EC0;
},
{
glyphname = Ecircumflexhookabove;
lastChange = "2019-10-06 19:24:56 +0000";
layers = (
{
layerId = "2BED5241-FEE2-452B-8B42-4A46EDD0955E";
paths = (
{
closed = 1;
nodes = (
"697.5 0 LINE",
"732.236 197 LINE",
"369.636 197 LINE",
"385.858 289 LINE",
"706.458 289 LINE",
"734.494 448 LINE",
"413.894 448 LINE",
"430.117 540 LINE",
"792.717 540 LINE",
"827.453 737 LINE",
"174.953 737 LINE",
"45 0 LINE"
);
},
{
closed = 1;
nodes = (
"429.622 789 LINE",
"519.023 865 LINE",
"581.622 789 LINE",
"768.622 789 LINE",
"674.363 952 LINE",
"389.363 952 LINE",
"237.622 789 LINE"
);
},
{
closed = 1;
nodes = (
"934.077 876.653 LINE",
"940.954 915.653 LINE",
"982.954 915.653 LINE",
"1037.654 953.653 LINE",
"1058.637 1072.653 LINE",
"1017.043 1114.653 LINE",
"784.043 1114.653 LINE",
"721.637 1072.653 LINE",
"710.176 1007.653 LINE",
"860.176 1007.653 LINE",
"867.405 1048.653 LINE",
"899.405 1048.653 LINE",
"887.768 982.653 LINE",
"823.768 982.653 LINE",
"779.654 953.653 LINE",
"766.077 876.653 LINE"
);
}
);
width = 736.5;
}
);
leftKerningGroup = H;
rightKerningGroup = E;
unicode = 1EC2;
},
{
glyphname = Ecircumflextilde;
lastChange = "2019-10-06 19:24:56 +0000";
layers = (
{
layerId = "2BED5241-FEE2-452B-8B42-4A46EDD0955E";
paths = (
{
closed = 1;
nodes = (
"697.5 0 LINE",
"732.236 197 LINE",
"369.636 197 LINE",
"385.858 289 LINE",
"706.458 289 LINE",
"734.494 448 LINE",
"413.894 448 LINE",
"430.117 540 LINE",
"792.717 540 LINE",
"827.453 737 LINE",
"174.953 737 LINE",
"45 0 LINE"
);
},
{
closed = 1;
nodes = (
"429.622 789 LINE",
"519.023 865 LINE",
"581.622 789 LINE",
"768.622 789 LINE",
"674.363 952 LINE",
"389.363 952 LINE",
"237.622 789 LINE"
);
},
{
closed = 1;
nodes = (
"713.829 983 LINE",
"810.525 1055 LINE",
"826.218 1144 LINE",
"674.218 1144 LINE",
"668.399 1111 LINE",
"649.754 1096 LINE",
"631.754 1096 LINE",
"592.452 1151 LINE",
"394.452 1151 LINE",
"298.404 1077 LINE",
"282.887 989 LINE",
"434.887 989 LINE",
"440.529 1021 LINE",
"459.351 1037 LINE",
"476.351 1037 LINE",
"516.829 983 LINE"
);
}
);
width = 736.5;
}
);
leftKerningGroup = H;
rightKerningGroup = E;
unicode = 1EC4;
},
{
glyphname = Edblgrave;
lastChange = "2019-10-06 19:24:56 +0000";
layers = (
{
layerId = "2BED5241-FEE2-452B-8B42-4A46EDD0955E";
paths = (
{
closed = 1;
nodes = (
"697.5 0 LINE",
"732.236 197 LINE",
"369.636 197 LINE",
"385.858 289 LINE",
"706.458 289 LINE",
"734.494 448 LINE",
"413.894 448 LINE",
"430.117 540 LINE",
"792.717 540 LINE",
"827.453 737 LINE",
"174.953 737 LINE",
"45 0 LINE"
);
},
{
closed = 1;
nodes = (
"434.622 789 LINE",
"354.363 952 LINE",
"139.363 952 LINE",
"272.622 789 LINE"
);
},
{
closed = 1;
nodes = (
"721.622 789 LINE",
"641.363 952 LINE",
"426.363 952 LINE",
"559.622 789 LINE"
);
}
);
width = 736.5;
}
);
leftKerningGroup = H;
rightKerningGroup = E;
unicode = 0204;
},
{
glyphname = Edieresis;
lastChange = "2019-10-06 19:24:56 +0000";
layers = (
{
layerId = "2BED5241-FEE2-452B-8B42-4A46EDD0955E";
paths = (
{
closed = 1;
nodes = (
"697.5 0 LINE",
"732.236 197 LINE",
"369.636 197 LINE",
"385.858 289 LINE",
"706.458 289 LINE",
"734.494 448 LINE",
"413.894 448 LINE",
"430.117 540 LINE",
"792.717 540 LINE",
"827.453 737 LINE",
"174.953 737 LINE",
"45 0 LINE"
);
},
{
closed = 1;
nodes = (
"476.575 789 LINE",
"504.435 947 LINE",
"256.435 947 LINE",
"228.575 789 LINE"
);
},
{
closed = 1;
nodes = (
"782.988 789 LINE",
"810.848 947 LINE",
"562.848 947 LINE",
"534.988 789 LINE"
);
}
);
width = 736.5;
}
);
leftKerningGroup = H;
rightKerningGroup = E;
unicode = 00CB;
},
{
glyphname = Edotaccent;
lastChange = "2019-10-06 19:24:56 +0000";
layers = (
{
layerId = "2BED5241-FEE2-452B-8B42-4A46EDD0955E";
paths = (
{
closed = 1;
nodes = (
"697.5 0 LINE",
"732.236 197 LINE",
"369.636 197 LINE",
"385.858 289 LINE",
"706.458 289 LINE",
"734.494 448 LINE",
"413.894 448 LINE",
"430.117 540 LINE",
"792.717 540 LINE",
"827.453 737 LINE",
"174.953 737 LINE",
"45 0 LINE"
);
},
{
closed = 1;
nodes = (
"642.122 789 LINE",
"669.982 947 LINE",
"396.982 947 LINE",
"369.122 789 LINE"
);
}
);
width = 736.5;
}
);
leftKerningGroup = H;
rightKerningGroup = E;
unicode = 0116;
},
{
glyphname = Edotbelow;
lastChange = "2019-10-06 19:24:56 +0000";
layers = (
{
layerId = "2BED5241-FEE2-452B-8B42-4A46EDD0955E";
paths = (
{
closed = 1;
nodes = (
"697.5 0 LINE",
"732.236 197 LINE",
"369.636 197 LINE",
"385.858 289 LINE",
"706.458 289 LINE",
"734.494 448 LINE",
"413.894 448 LINE",
"430.117 540 LINE",
"792.717 540 LINE",
"827.453 737 LINE",
"174.953 737 LINE",
"45 0 LINE"
);
},
{
closed = 1;
nodes = (
"465.145 -209.013 LINE",
"493.005 -51.013 LINE",
"220.005 -51.013 LINE",
"192.145 -209.013 LINE"
);
}
);
width = 736.5;
}
);
leftKerningGroup = H;
rightKerningGroup = E;
unicode = 1EB8;
},
{
glyphname = Egrave;
lastChange = "2019-10-06 19:24:56 +0000";
layers = (
{
layerId = "2BED5241-FEE2-452B-8B42-4A46EDD0955E";
paths = (
{
closed = 1;
nodes = (
"697.5 0 LINE",
"732.236 197 LINE",
"369.636 197 LINE",
"385.858 289 LINE",
"706.458 289 LINE",
"734.494 448 LINE",
"413.894 448 LINE",
"430.117 540 LINE",
"792.717 540 LINE",
"827.453 737 LINE",
"174.953 737 LINE",
"45 0 LINE"
);
},
{
closed = 1;
nodes = (
"589.622 789 LINE",
"509.363 952 LINE",
"294.363 952 LINE",
"427.622 789 LINE"
);
}
);
width = 736.5;
}
);
leftKerningGroup = H;
rightKerningGroup = E;
unicode = 00C8;
},
{
glyphname = Ehookabove;
lastChange = "2019-10-06 19:24:56 +0000";
layers = (
{
layerId = "2BED5241-FEE2-452B-8B42-4A46EDD0955E";
paths = (
{
closed = 1;
nodes = (
"697.5 0 LINE",
"732.236 197 LINE",
"369.636 197 LINE",
"385.858 289 LINE",
"706.458 289 LINE",
"734.494 448 LINE",
"413.894 448 LINE",
"430.117 540 LINE",
"792.717 540 LINE",
"827.453 737 LINE",
"174.953 737 LINE",
"45 0 LINE"
);
},
{
closed = 1;
nodes = (
"589.622 789 LINE",
"596.499 828 LINE",
"638.499 828 LINE",
"693.199 866 LINE",
"714.182 985 LINE",
"672.588 1027 LINE",
"439.588 1027 LINE",
"377.182 985 LINE",
"365.721 920 LINE",
"515.721 920 LINE",
"522.95 961 LINE",
"554.95 961 LINE",
"543.313 895 LINE",
"479.313 895 LINE",
"435.199 866 LINE",
"421.622 789 LINE"
);
}
);
width = 736.5;
}
);
leftKerningGroup = H;
rightKerningGroup = E;
unicode = 1EBA;
},
{
glyphname = Einvertedbreve;
lastChange = "2019-10-06 19:24:56 +0000";
layers = (
{
layerId = "2BED5241-FEE2-452B-8B42-4A46EDD0955E";
paths = (
{
closed = 1;
nodes = (
"697.5 0 LINE",
"732.236 197 LINE",
"369.636 197 LINE",
"385.858 289 LINE",
"706.458 289 LINE",
"734.494 448 LINE",
"413.894 448 LINE",
"430.117 540 LINE",
"792.717 540 LINE",
"827.453 737 LINE",
"174.953 737 LINE",
"45 0 LINE"
);
},
{
closed = 1;
nodes = (
"454.622 789 LINE",
"463.791 841 LINE",
"565.791 841 LINE",
"556.622 789 LINE",
"752.622 789 LINE",
"765.847 864 LINE",
"678.363 952 LINE",
"390.363 952 LINE",
"271.847 864 LINE",
"258.622 789 LINE"
);
}
);
width = 736.5;
}
);
leftKerningGroup = H;
rightKerningGroup = E;
unicode = 0206;
},
{
glyphname = Emacron;
lastChange = "2019-10-06 19:24:56 +0000";
layers = (
{
layerId = "2BED5241-FEE2-452B-8B42-4A46EDD0955E";
paths = (
{
closed = 1;
nodes = (
"697.5 0 LINE",
"732.236 197 LINE",
"369.636 197 LINE",
"385.858 289 LINE",
"706.458 289 LINE",
"734.494 448 LINE",
"413.894 448 LINE",
"430.117 540 LINE",
"792.717 540 LINE",
"827.453 737 LINE",
"174.953 737 LINE",
"45 0 LINE"
);
},
{
closed = 1;
nodes = (
"783.622 789 LINE",
"809.895 938 LINE",
"253.895 938 LINE",
"227.622 789 LINE"
);
}
);
width = 736.5;
}
);
leftKerningGroup = H;
rightKerningGroup = E;
unicode = 0112;
},
{
glyphname = Eogonek;
lastChange = "2019-10-06 19:24:56 +0000";
layers = (
{
layerId = "2BED5241-FEE2-452B-8B42-4A46EDD0955E";
paths = (
{
closed = 1;
nodes = (
"576.5 0 LINE",
"525.681 -33 LINE",
"509.988 -122 LINE",
"580.822 -191 LINE",
"677.822 -191 LINE",
"700.215 -64 LINE",
"672.215 -64 LINE",
"658.684 -50 LINE",
"662.915 -26 LINE",
"697.5 0 LINE",
"732.236 197 LINE",
"369.636 197 LINE",
"385.858 289 LINE",
"706.458 289 LINE",
"734.494 448 LINE",
"413.894 448 LINE",
"430.117 540 LINE",
"792.717 540 LINE",
"827.453 737 LINE",
"174.953 737 LINE",
"45 0 LINE"
);
}
);
width = 736.5;
}
);
leftKerningGroup = H;
leftMetricsKey = E;
rightKerningGroup = E;
unicode = 0118;
},
{
glyphname = Etilde;
lastChange = "2019-10-06 19:24:56 +0000";
layers = (
{
layerId = "2BED5241-FEE2-452B-8B42-4A46EDD0955E";
paths = (
{
closed = 1;
nodes = (
"697.5 0 LINE",
"732.236 197 LINE",
"369.636 197 LINE",
"385.858 289 LINE",
"706.458 289 LINE",
"734.494 448 LINE",
"413.894 448 LINE",
"430.117 540 LINE",
"792.717 540 LINE",
"827.453 737 LINE",
"174.953 737 LINE",
"45 0 LINE"
);
},
{
closed = 1;
nodes = (
"680.622 789 LINE",
"777.318 861 LINE",
"793.011 950 LINE",
"641.011 950 LINE",
"635.192 917 LINE",
"616.547 902 LINE",
"598.547 902 LINE",
"559.245 957 LINE",
"361.245 957 LINE",
"265.197 883 LINE",
"249.68 795 LINE",
"401.68 795 LINE",
"407.322 827 LINE",
"426.144 843 LINE",
"443.144 843 LINE",
"483.622 789 LINE"
);
}
);
width = 736.5;
}
);
leftKerningGroup = H;
rightKerningGroup = E;
unicode = 1EBC;
},
{
glyphname = F;
lastChange = "2019-09-10 19:27:05 +0000";
layers = (
{
layerId = "2BED5241-FEE2-452B-8B42-4A46EDD0955E";
paths = (
{
closed = 1;
nodes = (
"340 0 LINE",
"385.669 259 LINE",
"682.669 259 LINE",
"713.702 435 LINE",
"416.702 435 LINE",
"435.217 540 LINE",
"780.217 540 LINE",
"814.953 737 LINE",
"174.953 737 LINE",
"45 0 LINE"
);
}
);
width = 713;
}
);
leftKerningGroup = H;
leftMetricsKey = H;
rightKerningGroup = F;
unicode = 0046;
},
{
glyphname = G;
lastChange = "2019-10-06 19:24:56 +0000";
layers = (
{
layerId = "2BED5241-FEE2-452B-8B42-4A46EDD0955E";
paths = (
{
closed = 1;
nodes = (
"468 0 LINE",
"551.808 61.298 LINE",
"541 0 LINE",
"767 0 LINE",
"838.236 404 LINE",
"514.236 404 LINE",
"487.258 251 LINE",
"584.162 251 LINE",
"450.978 153 LINE",
"350.978 153 LINE",
"426.975 584 LINE",
"571.975 584 LINE",
"552.932 476 LINE",
"850.755 475 LINE",
"880.202 642 LINE",
"785.953 737 LINE",
"274.953 737 LINE",
"147.202 642 LINE",
"50.751 95 LINE",
"145 0 LINE"
);
}
);
width = 812.2;
}
);
leftKerningGroup = O;
leftMetricsKey = O;
rightKerningGroup = G;
unicode = 0047;
},
{
glyphname = Gbreve;
lastChange = "2019-10-06 19:24:56 +0000";
layers = (
{
layerId = "2BED5241-FEE2-452B-8B42-4A46EDD0955E";
paths = (
{
closed = 1;
nodes = (
"468 0 LINE",
"551.808 61.298 LINE",
"541 0 LINE",
"767 0 LINE",
"838.236 404 LINE",
"514.236 404 LINE",
"487.258 251 LINE",
"584.162 251 LINE",
"450.978 153 LINE",
"350.978 153 LINE",
"426.975 584 LINE",
"571.975 584 LINE",
"552.932 476 LINE",
"850.755 475 LINE",
"880.202 642 LINE",
"785.953 737 LINE",
"274.953 737 LINE",
"147.202 642 LINE",
"50.751 95 LINE",
"145 0 LINE"
);
},
{
closed = 1;
nodes = (
"677.122 789 LINE",
"795.639 877 LINE",
"808.863 952 LINE",
"612.863 952 LINE",
"603.694 900 LINE",
"501.694 900 LINE",
"510.863 952 LINE",
"324.863 952 LINE",
"311.639 877 LINE",
"399.122 789 LINE"
);
}
);
width = 812.2;
}
);
leftKerningGroup = O;
rightKerningGroup = G;
unicode = 011E;
},
{
glyphname = Gcaron;
lastChange = "2019-10-06 19:24:56 +0000";
layers = (
{
layerId = "2BED5241-FEE2-452B-8B42-4A46EDD0955E";
paths = (
{
closed = 1;
nodes = (
"468 0 LINE",
"551.808 61.298 LINE",
"541 0 LINE",
"767 0 LINE",
"838.236 404 LINE",
"514.236 404 LINE",
"487.258 251 LINE",
"584.162 251 LINE",
"450.978 153 LINE",
"350.978 153 LINE",
"426.975 584 LINE",
"571.975 584 LINE",
"552.932 476 LINE",
"850.755 475 LINE",
"880.202 642 LINE",
"785.953 737 LINE",
"274.953 737 LINE",
"147.202 642 LINE",
"50.751 95 LINE",
"145 0 LINE"
);
},
{
closed = 1;
nodes = (
"681.122 789 LINE",
"832.863 952 LINE",
"640.863 952 LINE",
"551.462 876 LINE",
"488.863 952 LINE",
"301.863 952 LINE",
"396.122 789 LINE"
);
}
);
width = 812.2;
}
);
leftKerningGroup = O;
rightKerningGroup = G;
unicode = 01E6;
},
{
glyphname = Gcircumflex;
lastChange = "2019-10-06 19:24:56 +0000";
layers = (
{
layerId = "2BED5241-FEE2-452B-8B42-4A46EDD0955E";
paths = (
{
closed = 1;
nodes = (
"468 0 LINE",
"551.808 61.298 LINE",
"541 0 LINE",
"767 0 LINE",
"838.236 404 LINE",
"514.236 404 LINE",
"487.258 251 LINE",
"584.162 251 LINE",
"450.978 153 LINE",
"350.978 153 LINE",
"426.975 584 LINE",
"571.975 584 LINE",
"552.932 476 LINE",
"850.755 475 LINE",
"880.202 642 LINE",
"785.953 737 LINE",
"274.953 737 LINE",
"147.202 642 LINE",
"50.751 95 LINE",
"145 0 LINE"
);
},
{
closed = 1;
nodes = (
"460.122 789 LINE",
"549.523 865 LINE",
"612.122 789 LINE",
"799.122 789 LINE",
"704.863 952 LINE",
"419.863 952 LINE",
"268.122 789 LINE"
);
}
);
width = 812.2;
}
);
leftKerningGroup = O;
rightKerningGroup = G;
unicode = 011C;
},
{
glyphname = Gcommaaccent;
lastChange = "2019-10-06 19:24:56 +0000";
layers = (
{
layerId = "2BED5241-FEE2-452B-8B42-4A46EDD0955E";
paths = (
{
closed = 1;
nodes = (
"468 0 LINE",
"551.808 61.298 LINE",
"541 0 LINE",
"767 0 LINE",
"838.236 404 LINE",
"514.236 404 LINE",
"487.258 251 LINE",
"584.162 251 LINE",
"450.978 153 LINE",
"350.978 153 LINE",
"426.975 584 LINE",
"571.975 584 LINE",
"552.932 476 LINE",
"850.755 475 LINE",
"880.202 642 LINE",
"785.953 737 LINE",
"274.953 737 LINE",
"147.202 642 LINE",
"50.751 95 LINE",
"145 0 LINE"
);
},
{
closed = 1;
nodes = (
"332.739 -234 LINE",
"497.831 -52 LINE",
"265.831 -52 LINE",
"182.739 -234 LINE"
);
}
);
width = 812.2;
}
);
leftKerningGroup = O;
rightKerningGroup = G;
unicode = 0122;
},
{
glyphname = Gdotaccent;
lastChange = "2019-10-06 19:24:56 +0000";
layers = (
{
layerId = "2BED5241-FEE2-452B-8B42-4A46EDD0955E";
paths = (
{
closed = 1;
nodes = (
"468 0 LINE",
"551.808 61.298 LINE",
"541 0 LINE",
"767 0 LINE",
"838.236 404 LINE",
"514.236 404 LINE",
"487.258 251 LINE",
"584.162 251 LINE",
"450.978 153 LINE",
"350.978 153 LINE",
"426.975 584 LINE",
"571.975 584 LINE",
"552.932 476 LINE",
"850.755 475 LINE",
"880.202 642 LINE",
"785.953 737 LINE",
"274.953 737 LINE",
"147.202 642 LINE",
"50.751 95 LINE",
"145 0 LINE"
);
},
{
closed = 1;
nodes = (
"672.622 789 LINE",
"700.482 947 LINE",
"427.482 947 LINE",
"399.622 789 LINE"
);
}
);
width = 812.2;
}
);
leftKerningGroup = O;
rightKerningGroup = G;
unicode = 0120;
},
{
glyphname = H;
lastChange = "2019-10-06 19:24:56 +0000";
layers = (
{
layerId = "2BED5241-FEE2-452B-8B42-4A46EDD0955E";
paths = (
{
closed = 1;
nodes = (
"334.9 0 LINE",
"384.624 282 LINE",
"526.724 282 LINE",
"477 0 LINE",
"766.9 0 LINE",
"896.853 737 LINE",
"606.953 737 LINE",
"561.284 478 LINE",
"419.184 478 LINE",
"464.853 737 LINE",
"174.953 737 LINE",
"45 0 LINE"
);
}
);
width = 811.9;
}
);
leftKerningGroup = H;
rightKerningGroup = H;
unicode = 0048;
},
{
glyphname = Hbar;
lastChange = "2019-10-06 19:24:56 +0000";
layers = (
{
layerId = "2BED5241-FEE2-452B-8B42-4A46EDD0955E";
paths = (
{
closed = 1;
nodes = (
"334.9 0 LINE",
"384.624 282 LINE",
"526.724 282 LINE",
"477 0 LINE",
"766.9 0 LINE",
"863.351 547 LINE",
"913.451 547 LINE",
"934.257 665 LINE",
"884.157 665 LINE",
"896.853 737 LINE",
"606.953 737 LINE",
"594.257 665 LINE",
"452.157 665 LINE",
"464.853 737 LINE",
"174.953 737 LINE",
"162.257 665 LINE",
"113.257 665 LINE",
"92.451 547 LINE",
"141.451 547 LINE",
"45 0 LINE"
);
},
{
closed = 1;
nodes = (
"431.351 547 LINE",
"573.451 547 LINE",
"561.284 478 LINE",
"419.184 478 LINE"
);
}
);
width = 811.9;
}
);
unicode = 0126;
},
{
glyphname = Hcircumflex;
lastChange = "2019-10-06 19:24:56 +0000";
layers = (
{
layerId = "2BED5241-FEE2-452B-8B42-4A46EDD0955E";
paths = (
{
closed = 1;
nodes = (
"334.9 0 LINE",
"384.624 282 LINE",
"526.724 282 LINE",
"477 0 LINE",
"766.9 0 LINE",
"896.853 737 LINE",
"606.953 737 LINE",
"561.284 478 LINE",
"419.184 478 LINE",
"464.853 737 LINE",
"174.953 737 LINE",
"45 0 LINE"
);
},
{
closed = 1;
nodes = (
"469.122 789 LINE",
"558.523 865 LINE",
"621.122 789 LINE",
"808.122 789 LINE",
"713.863 952 LINE",
"428.863 952 LINE",
"277.122 789 LINE"
);
}
);
width = 811.9;
}
);
unicode = 0124;
},
{
glyphname = I;
lastChange = "2019-10-06 19:24:56 +0000";
layers = (
{
layerId = "2BED5241-FEE2-452B-8B42-4A46EDD0955E";
paths = (
{
closed = 1;
nodes = (
"507 0 LINE",
"541.736 197 LINE",
"442.563 197 LINE",
"503.044 540 LINE",
"602.217 540 LINE",
"636.953 737 LINE",
"157.953 737 LINE",
"123.217 540 LINE",
"222.389 540 LINE",
"161.908 197 LINE",
"62.736 197 LINE",
"28 0 LINE"
);
}
);
width = 535;
}
);
leftKerningGroup = H;
rightKerningGroup = H;
unicode = 0049;
},
{
glyphname = Iacute;
lastChange = "2019-10-06 19:24:56 +0000";
layers = (
{
layerId = "2BED5241-FEE2-452B-8B42-4A46EDD0955E";
paths = (
{
closed = 1;
nodes = (
"507 0 LINE",
"541.736 197 LINE",
"442.563 197 LINE",
"503.044 540 LINE",
"602.217 540 LINE",
"636.953 737 LINE",
"157.953 737 LINE",
"123.217 540 LINE",
"222.389 540 LINE",
"161.908 197 LINE",
"62.736 197 LINE",
"28 0 LINE"
);
},
{
closed = 1;
nodes = (
"484.622 789 LINE",
"675.363 952 LINE",
"434.363 952 LINE",
"326.622 789 LINE"
);
}
);
width = 535;
}
);
leftKerningGroup = H;
rightKerningGroup = H;
unicode = 00CD;
},
{
glyphname = Ibreve;
lastChange = "2019-10-06 19:24:56 +0000";
layers = (
{
layerId = "2BED5241-FEE2-452B-8B42-4A46EDD0955E";
paths = (
{
closed = 1;
nodes = (
"507 0 LINE",
"541.736 197 LINE",
"442.563 197 LINE",
"503.044 540 LINE",
"602.217 540 LINE",
"636.953 737 LINE",
"157.953 737 LINE",
"123.217 540 LINE",
"222.389 540 LINE",
"161.908 197 LINE",
"62.736 197 LINE",
"28 0 LINE"
);
},
{
closed = 1;
nodes = (
"545.622 789 LINE",
"664.139 877 LINE",
"677.363 952 LINE",
"481.363 952 LINE",
"472.194 900 LINE",
"370.194 900 LINE",
"379.363 952 LINE",
"193.363 952 LINE",
"180.139 877 LINE",
"267.622 789 LINE"
);
}
);
width = 535;
}
);
unicode = 012C;
},
{
glyphname = Icircumflex;
lastChange = "2019-10-06 19:24:56 +0000";
layers = (
{
layerId = "2BED5241-FEE2-452B-8B42-4A46EDD0955E";
paths = (
{
closed = 1;
nodes = (
"507 0 LINE",
"541.736 197 LINE",
"442.563 197 LINE",
"503.044 540 LINE",
"602.217 540 LINE",
"636.953 737 LINE",
"157.953 737 LINE",
"123.217 540 LINE",
"222.389 540 LINE",
"161.908 197 LINE",
"62.736 197 LINE",
"28 0 LINE"
);
},
{
closed = 1;
nodes = (
"328.622 789 LINE",
"418.023 865 LINE",
"480.622 789 LINE",
"667.622 789 LINE",
"573.363 952 LINE",
"288.363 952 LINE",
"136.622 789 LINE"
);
}
);
width = 535;
}
);
leftKerningGroup = H;
rightKerningGroup = H;
unicode = 00CE;
},
{
glyphname = Idblgrave;
lastChange = "2019-10-06 19:24:56 +0000";
layers = (
{
layerId = "2BED5241-FEE2-452B-8B42-4A46EDD0955E";
paths = (
{
closed = 1;
nodes = (
"507 0 LINE",
"541.736 197 LINE",
"442.563 197 LINE",
"503.044 540 LINE",
"602.217 540 LINE",
"636.953 737 LINE",
"157.953 737 LINE",
"123.217 540 LINE",
"222.389 540 LINE",
"161.908 197 LINE",
"62.736 197 LINE",
"28 0 LINE"
);
},
{
closed = 1;
nodes = (
"333.622 789 LINE",
"253.363 952 LINE",
"38.363 952 LINE",
"171.622 789 LINE"
);
},
{
closed = 1;
nodes = (
"620.622 789 LINE",
"540.363 952 LINE",
"325.363 952 LINE",
"458.622 789 LINE"
);
}
);
width = 535;
}
);
unicode = 0208;
},
{
glyphname = Idieresis;
lastChange = "2019-10-06 19:24:56 +0000";
layers = (
{
layerId = "2BED5241-FEE2-452B-8B42-4A46EDD0955E";
paths = (
{
closed = 1;
nodes = (
"507 0 LINE",
"541.736 197 LINE",
"442.563 197 LINE",
"503.044 540 LINE",
"602.217 540 LINE",
"636.953 737 LINE",
"157.953 737 LINE",
"123.217 540 LINE",
"222.389 540 LINE",
"161.908 197 LINE",
"62.736 197 LINE",
"28 0 LINE"
);
},
{
closed = 1;
nodes = (
"375.575 789 LINE",
"403.435 947 LINE",
"155.435 947 LINE",
"127.575 789 LINE"
);
},
{
closed = 1;
nodes = (
"681.988 789 LINE",
"709.848 947 LINE",
"461.848 947 LINE",
"433.988 789 LINE"
);
}
);
width = 535;
}
);
leftKerningGroup = H;
rightKerningGroup = H;
unicode = 00CF;
},
{
glyphname = Idotaccent;
lastChange = "2019-10-06 19:24:56 +0000";
layers = (
{
layerId = "2BED5241-FEE2-452B-8B42-4A46EDD0955E";
paths = (
{
closed = 1;
nodes = (
"507 0 LINE",
"541.736 197 LINE",
"442.563 197 LINE",
"503.044 540 LINE",
"602.217 540 LINE",
"636.953 737 LINE",
"157.953 737 LINE",
"123.217 540 LINE",
"222.389 540 LINE",
"161.908 197 LINE",
"62.736 197 LINE",
"28 0 LINE"
);
},
{
closed = 1;
nodes = (
"541.122 789 LINE",
"568.982 947 LINE",
"295.982 947 LINE",
"268.122 789 LINE"
);
}
);
width = 535;
}
);
unicode = 0130;
},
{
glyphname = Idotbelow;
lastChange = "2019-10-06 19:24:56 +0000";
layers = (
{
layerId = "2BED5241-FEE2-452B-8B42-4A46EDD0955E";
paths = (
{
closed = 1;
nodes = (
"507 0 LINE",
"541.736 197 LINE",
"442.563 197 LINE",
"503.044 540 LINE",
"602.217 540 LINE",
"636.953 737 LINE",
"157.953 737 LINE",
"123.217 540 LINE",
"222.389 540 LINE",
"161.908 197 LINE",
"62.736 197 LINE",
"28 0 LINE"
);
},
{
closed = 1;
nodes = (
"367.145 -209.013 LINE",
"395.005 -51.013 LINE",
"122.005 -51.013 LINE",
"94.145 -209.013 LINE"
);
}
);
width = 535;
}
);
unicode = 1ECA;
},
{
glyphname = Igrave;
lastChange = "2019-10-06 19:24:56 +0000";
layers = (
{
layerId = "2BED5241-FEE2-452B-8B42-4A46EDD0955E";
paths = (
{
closed = 1;
nodes = (
"507 0 LINE",
"541.736 197 LINE",
"442.563 197 LINE",
"503.044 540 LINE",
"602.217 540 LINE",
"636.953 737 LINE",
"157.953 737 LINE",
"123.217 540 LINE",
"222.389 540 LINE",
"161.908 197 LINE",
"62.736 197 LINE",
"28 0 LINE"
);
},
{
closed = 1;
nodes = (
"488.622 789 LINE",
"408.363 952 LINE",
"193.363 952 LINE",
"326.622 789 LINE"
);
}
);
width = 535;
}
);
leftKerningGroup = H;
rightKerningGroup = H;
unicode = 00CC;
},
{
glyphname = Ihookabove;
lastChange = "2019-10-06 19:24:56 +0000";
layers = (
{
layerId = "2BED5241-FEE2-452B-8B42-4A46EDD0955E";
paths = (
{
closed = 1;
nodes = (
"507 0 LINE",
"541.736 197 LINE",
"442.563 197 LINE",
"503.044 540 LINE",
"602.217 540 LINE",
"636.953 737 LINE",
"157.953 737 LINE",
"123.217 540 LINE",
"222.389 540 LINE",
"161.908 197 LINE",
"62.736 197 LINE",
"28 0 LINE"
);
},
{
closed = 1;
nodes = (
"488.622 789 LINE",
"495.499 828 LINE",
"537.499 828 LINE",
"592.199 866 LINE",
"613.182 985 LINE",
"571.588 1027 LINE",
"338.588 1027 LINE",
"276.182 985 LINE",
"264.721 920 LINE",
"414.721 920 LINE",
"421.95 961 LINE",
"453.95 961 LINE",
"442.313 895 LINE",
"378.313 895 LINE",
"334.199 866 LINE",
"320.622 789 LINE"
);
}
);
width = 535;
}
);
unicode = 1EC8;
},
{
glyphname = Iinvertedbreve;
lastChange = "2019-10-06 19:24:56 +0000";
layers = (
{
layerId = "2BED5241-FEE2-452B-8B42-4A46EDD0955E";
paths = (
{
closed = 1;
nodes = (
"507 0 LINE",
"541.736 197 LINE",
"442.563 197 LINE",
"503.044 540 LINE",
"602.217 540 LINE",
"636.953 737 LINE",
"157.953 737 LINE",
"123.217 540 LINE",
"222.389 540 LINE",
"161.908 197 LINE",
"62.736 197 LINE",
"28 0 LINE"
);
},
{
closed = 1;
nodes = (
"353.622 789 LINE",
"362.791 841 LINE",
"464.791 841 LINE",
"455.622 789 LINE",
"651.622 789 LINE",
"664.847 864 LINE",
"577.363 952 LINE",
"289.363 952 LINE",
"170.847 864 LINE",
"157.622 789 LINE"
);
}
);
width = 535;
}
);
unicode = 020A;
},
{
glyphname = Imacron;
lastChange = "2019-10-06 19:24:56 +0000";
layers = (
{
layerId = "2BED5241-FEE2-452B-8B42-4A46EDD0955E";
paths = (
{
closed = 1;
nodes = (
"507 0 LINE",
"541.736 197 LINE",
"442.563 197 LINE",
"503.044 540 LINE",
"602.217 540 LINE",
"636.953 737 LINE",
"157.953 737 LINE",
"123.217 540 LINE",
"222.389 540 LINE",
"161.908 197 LINE",
"62.736 197 LINE",
"28 0 LINE"
);
},
{
closed = 1;
nodes = (
"682.622 789 LINE",
"708.895 938 LINE",
"152.895 938 LINE",
"126.622 789 LINE"
);
}
);
width = 535;
}
);
unicode = 012A;
},
{
glyphname = Iogonek;
lastChange = "2019-10-06 19:24:56 +0000";
layers = (
{
layerId = "2BED5241-FEE2-452B-8B42-4A46EDD0955E";
paths = (
{
closed = 1;
nodes = (
"386.011 0 LINE",
"335.192 -33 LINE",
"319.499 -122 LINE",
"390.333 -191 LINE",
"487.333 -191 LINE",
"509.726 -64 LINE",
"481.726 -64 LINE",
"468.195 -50 LINE",
"472.426 -26 LINE",
"507.011 0 LINE",
"541.736 197 LINE",
"442.563 197 LINE",
"503.044 540 LINE",
"602.217 540 LINE",
"636.953 737 LINE",
"157.953 737 LINE",
"123.217 540 LINE",
"222.389 540 LINE",
"161.908 197 LINE",
"62.736 197 LINE",
"28 0 LINE"
);
}
);
width = 535;
}
);
leftMetricsKey = I;
unicode = 012E;
},
{
glyphname = Itilde;
lastChange = "2019-10-06 19:24:56 +0000";
layers = (
{
layerId = "2BED5241-FEE2-452B-8B42-4A46EDD0955E";
paths = (
{
closed = 1;
nodes = (
"507 0 LINE",
"541.736 197 LINE",
"442.563 197 LINE",
"503.044 540 LINE",
"602.217 540 LINE",
"636.953 737 LINE",
"157.953 737 LINE",
"123.217 540 LINE",
"222.389 540 LINE",
"161.908 197 LINE",
"62.736 197 LINE",
"28 0 LINE"
);
},
{
closed = 1;
nodes = (
"579.622 789 LINE",
"676.318 861 LINE",
"692.011 950 LINE",
"540.011 950 LINE",
"534.192 917 LINE",
"515.547 902 LINE",
"497.547 902 LINE",
"458.245 957 LINE",
"260.245 957 LINE",
"164.197 883 LINE",
"148.68 795 LINE",
"300.68 795 LINE",
"306.322 827 LINE",
"325.144 843 LINE",
"342.144 843 LINE",
"382.622 789 LINE"
);
}
);
width = 535;
}
);
unicode = 0128;
},
{
glyphname = J;
lastChange = "2019-10-06 19:24:56 +0000";
layers = (
{
layerId = "2BED5241-FEE2-452B-8B42-4A46EDD0955E";
paths = (
{
closed = 1;
nodes = (
"608 0 LINE",
"735.751 95 LINE",
"848.953 737 LINE",
"559.953 737 LINE",
"456.978 153 LINE",
"339.978 153 LINE",
"375.42 354 LINE",
"85.42 354 LINE",
"39.751 95 LINE",
"134 0 LINE"
);
}
);
width = 764;
}
);
leftKerningGroup = J;
rightKerningGroup = J;
rightMetricsKey = H;
unicode = 004A;
},
{
glyphname = Jcircumflex;
lastChange = "2019-10-06 19:24:56 +0000";
layers = (
{
layerId = "2BED5241-FEE2-452B-8B42-4A46EDD0955E";
paths = (
{
closed = 1;
nodes = (
"608 0 LINE",
"735.751 95 LINE",
"848.953 737 LINE",
"559.953 737 LINE",
"456.978 153 LINE",
"339.978 153 LINE",
"375.42 354 LINE",
"85.42 354 LINE",
"39.751 95 LINE",
"134 0 LINE"
);
},
{
closed = 1;
nodes = (
"637.122 789 LINE",
"726.523 865 LINE",
"789.122 789 LINE",
"976.122 789 LINE",
"881.863 952 LINE",
"596.863 952 LINE",
"445.122 789 LINE"
);
}
);
width = 764;
}
);
leftKerningGroup = J;
rightKerningGroup = J;
unicode = 0134;
},
{
glyphname = K;
lastChange = "2019-09-10 19:27:05 +0000";
layers = (
{
layerId = "2BED5241-FEE2-452B-8B42-4A46EDD0955E";
paths = (
{
closed = 1;
nodes = (
"334.9 0 LINE",
"390.434 314.95 LINE",
"500.5 0 LINE",
"825.5 0 LINE",
"652.852 397.451 LINE",
"962.453 737 LINE",
"633.453 737 LINE",
"418.87 476.212 LINE",
"464.853 737 LINE",
"174.953 737 LINE",
"45 0 LINE"
);
}
);
width = 827.5;
}
);
leftKerningGroup = H;
leftMetricsKey = H;
rightKerningGroup = K;
unicode = 004B;
},
{
glyphname = Kcommaaccent;
lastChange = "2019-10-06 18:15:50 +0000";
layers = (
{
layerId = "2BED5241-FEE2-452B-8B42-4A46EDD0955E";
paths = (
{
closed = 1;
nodes = (
"334.9 0 LINE",
"390.434 314.95 LINE",
"500.5 0 LINE",
"825.5 0 LINE",
"652.852 397.451 LINE",
"962.453 737 LINE",
"633.453 737 LINE",
"418.87 476.212 LINE",
"464.853 737 LINE",
"174.953 737 LINE",
"45 0 LINE"
);
},
{
closed = 1;
nodes = (
"360.141 -234 LINE",
"525.233 -52 LINE",
"293.233 -52 LINE",
"210.141 -234 LINE"
);
}
);
width = 827.5;
}
);
leftKerningGroup = H;
leftMetricsKey = H;
rightKerningGroup = K;
rightMetricsKey = K;
unicode = 0136;
},
{
glyphname = L;
lastChange = "2019-10-06 19:24:56 +0000";
layers = (
{
layerId = "2BED5241-FEE2-452B-8B42-4A46EDD0955E";
paths = (
{
closed = 1;
nodes = (
"634.5 0 LINE",
"671.176 208 LINE",
"371.576 208 LINE",
"464.853 737 LINE",
"174.953 737 LINE",
"45 0 LINE"
);
}
);
width = 662.5;
}
);
leftKerningGroup = H;
leftMetricsKey = H;
rightKerningGroup = L;
unicode = 004C;
},
{
glyphname = LJ;
lastChange = "2019-10-06 19:24:56 +0000";
layers = (
{
layerId = "2BED5241-FEE2-452B-8B42-4A46EDD0955E";
paths = (
{
closed = 1;
nodes = (
"1270.5 0 LINE",
"1398.251 95 LINE",
"1511.453 737 LINE",
"1222.453 737 LINE",
"1119.478 153 LINE",
"1002.478 153 LINE",
"1037.92 354 LINE",
"747.92 354 LINE",
"702.251 95 LINE",
"796.5 0 LINE"
);
},
{
closed = 1;
nodes = (
"634.5 0 LINE",
"671.176 208 LINE",
"371.576 208 LINE",
"464.853 737 LINE",
"174.953 737 LINE",
"45 0 LINE"
);
}
);
width = 1426.5;
}
);
unicode = 01C7;
},
{
glyphname = Lacute;
lastChange = "2019-10-06 19:24:56 +0000";
layers = (
{
layerId = "2BED5241-FEE2-452B-8B42-4A46EDD0955E";
paths = (
{
closed = 1;
nodes = (
"634.5 0 LINE",
"671.176 208 LINE",
"371.576 208 LINE",
"464.853 737 LINE",
"174.953 737 LINE",
"45 0 LINE"
);
},
{
closed = 1;
nodes = (
"422.622 789 LINE",
"613.363 952 LINE",
"372.363 952 LINE",
"264.622 789 LINE"
);
}
);
width = 662.5;
}
);
leftKerningGroup = H;
rightKerningGroup = L;
unicode = 0139;
},
{
glyphname = Lcaron;
lastChange = "2019-10-06 19:24:56 +0000";
layers = (
{
layerId = "2BED5241-FEE2-452B-8B42-4A46EDD0955E";
paths = (
{
closed = 1;
nodes = (
"634.5 0 LINE",
"671.176 208 LINE",
"371.576 208 LINE",
"464.853 737 LINE",
"174.953 737 LINE",
"45 0 LINE"
);
},
{
closed = 1;
nodes = (
"618.361 555 LINE",
"783.453 737 LINE",
"551.453 737 LINE",
"468.361 555 LINE"
);
}
);
width = 662.5;
}
);
rightKerningGroup = L;
unicode = 013D;
},
{
glyphname = Lcommaaccent;
lastChange = "2019-10-06 19:24:56 +0000";
layers = (
{
layerId = "2BED5241-FEE2-452B-8B42-4A46EDD0955E";
paths = (
{
closed = 1;
nodes = (
"634.5 0 LINE",
"671.176 208 LINE",
"371.576 208 LINE",
"464.853 737 LINE",
"174.953 737 LINE",
"45 0 LINE"
);
},
{
closed = 1;
nodes = (
"293.239 -234 LINE",
"458.331 -52 LINE",
"226.331 -52 LINE",
"143.239 -234 LINE"
);
}
);
width = 662.5;
}
);
rightKerningGroup = L;
unicode = 013B;
},
{
glyphname = Ldot;
lastChange = "2019-10-06 19:24:56 +0000";
layers = (
{
guideLines = (
{
position = "{344.5, 331.125}";
}
);
layerId = "2BED5241-FEE2-452B-8B42-4A46EDD0955E";
paths = (
{
closed = 1;
nodes = (
"634.5 0 LINE",
"671.176 208 LINE",
"371.576 208 LINE",
"464.853 737 LINE",
"174.953 737 LINE",
"45 0 LINE"
);
},
{
closed = 1;
nodes = (
"683.886 331.125 LINE",
"716.859 518.125 LINE",
"493.859 518.125 LINE",
"460.886 331.125 LINE"
);
}
);
width = 662.5;
}
);
unicode = 013F;
},
{
glyphname = Lj;
lastChange = "2019-10-06 19:24:56 +0000";
layers = (
{
layerId = "2BED5241-FEE2-452B-8B42-4A46EDD0955E";
paths = (
{
closed = 1;
nodes = (
"634.5 0 LINE",
"671.176 208 LINE",
"371.576 208 LINE",
"464.853 737 LINE",
"174.953 737 LINE",
"45 0 LINE"
);
},
{
closed = 1;
nodes = (
"833.527 -187 LINE",
"961.278 -92 LINE",
"1068.719 523 LINE",
"795.719 523 LINE",
"691.686 -67 LINE",
"601.686 -67 LINE",
"580.527 -187 LINE"
);
},
{
closed = 1;
nodes = (
"1078.388 575 LINE",
"1106.248 733 LINE",
"833.248 733 LINE",
"805.388 575 LINE"
);
}
);
width = 1016.72;
}
);
leftMetricsKey = L;
rightMetricsKey = j;
unicode = 01C8;
},
{
glyphname = Lslash;
lastChange = "2019-10-06 19:24:56 +0000";
layers = (
{
layerId = "2BED5241-FEE2-452B-8B42-4A46EDD0955E";
paths = (
{
closed = 1;
nodes = (
"83.531 218.519 LINE",
"45 0 LINE",
"634.5 0 LINE",
"671.176 208 LINE",
"371.576 208 LINE",
"395.85 345.666 LINE",
"563.705 414 LINE",
"592.911 581.701 LINE",
"425.436 513.458 LINE",
"464.853 737 LINE",
"174.953 737 LINE",
"113.094 386.183 LINE",
"46.135 358.898 LINE",
"16.736 191.327 LINE"
);
}
);
width = 662.5;
}
);
rightKerningGroup = L;
rightMetricsKey = L;
unicode = 0141;
},
{
glyphname = M;
lastChange = "2019-09-10 19:27:05 +0000";
layers = (
{
layerId = "2BED5241-FEE2-452B-8B42-4A46EDD0955E";
paths = (
{
closed = 1;
nodes = (
"306.41 0 LINE",
"373.767 382 LINE",
"417.661 46 LINE",
"526.661 46 LINE",
"688.041 380.206 LINE",
"621 0 LINE",
"882.41 0 LINE",
"1012.363 737 LINE",
"731.503 737 LINE",
"530.202 378 LINE",
"455.503 737 LINE",
"174.953 737 LINE",
"45 0 LINE"
);
}
);
width = 927.41;
}
);
leftKerningGroup = M;
leftMetricsKey = H;
rightKerningGroup = M;
rightMetricsKey = H;
unicode = 004D;
},
{
glyphname = N;
lastChange = "2019-10-06 19:24:56 +0000";
layers = (
{
layerId = "2BED5241-FEE2-452B-8B42-4A46EDD0955E";
paths = (
{
closed = 1;
nodes = (
"306.41 0 LINE",
"374.849 385.266 LINE",
"473.688 0 LINE",
"730.41 0 LINE",
"860.363 737 LINE",
"598.953 737 LINE",
"533.804 367.52 LINE",
"433.342 737 LINE",
"174.953 737 LINE",
"45 0 LINE"
);
}
);
width = 775.41;
}
);
leftKerningGroup = H;
leftMetricsKey = H;
rightKerningGroup = H;
rightMetricsKey = H;
unicode = 004E;
},
{
glyphname = NJ;
lastChange = "2019-10-06 19:24:56 +0000";
layers = (
{
layerId = "2BED5241-FEE2-452B-8B42-4A46EDD0955E";
paths = (
{
closed = 1;
nodes = (
"306.41 0 LINE",
"374.849 385.266 LINE",
"473.688 0 LINE",
"730.41 0 LINE",
"860.363 737 LINE",
"598.953 737 LINE",
"533.804 367.52 LINE",
"433.342 737 LINE",
"174.953 737 LINE",
"45 0 LINE"
);
},
{
closed = 1;
nodes = (
"1383.41 0 LINE",
"1511.161 95 LINE",
"1624.363 737 LINE",
"1335.363 737 LINE",
"1232.388 153 LINE",
"1115.388 153 LINE",
"1150.83 354 LINE",
"860.83 354 LINE",
"815.161 95 LINE",
"909.41 0 LINE"
);
}
);
width = 1539.41;
}
);
unicode = 01CA;
},
{
glyphname = Nacute;
lastChange = "2019-10-06 19:24:56 +0000";
layers = (
{
layerId = "2BED5241-FEE2-452B-8B42-4A46EDD0955E";
paths = (
{
closed = 1;
nodes = (
"306.41 0 LINE",
"374.849 385.266 LINE",
"473.688 0 LINE",
"730.41 0 LINE",
"860.363 737 LINE",
"598.953 737 LINE",
"533.804 367.52 LINE",
"433.342 737 LINE",
"174.953 737 LINE",
"45 0 LINE"
);
},
{
closed = 1;
nodes = (
"607.672 789 LINE",
"798.413 952 LINE",
"557.413 952 LINE",
"449.672 789 LINE"
);
}
);
width = 775.41;
}
);
unicode = 0143;
},
{
glyphname = Ncaron;
lastChange = "2019-10-06 19:24:56 +0000";
layers = (
{
layerId = "2BED5241-FEE2-452B-8B42-4A46EDD0955E";
paths = (
{
closed = 1;
nodes = (
"306.41 0 LINE",
"374.849 385.266 LINE",
"473.688 0 LINE",
"730.41 0 LINE",
"860.363 737 LINE",
"598.953 737 LINE",
"533.804 367.52 LINE",
"433.342 737 LINE",
"174.953 737 LINE",
"45 0 LINE"
);
},
{
closed = 1;
nodes = (
"672.672 789 LINE",
"824.413 952 LINE",
"632.413 952 LINE",
"543.012 876 LINE",
"480.413 952 LINE",
"293.413 952 LINE",
"387.672 789 LINE"
);
}
);
width = 775.41;
}
);
leftMetricsKey = N;
rightMetricsKey = N;
unicode = 0147;
},
{
glyphname = Ncommaaccent;
lastChange = "2019-10-06 19:24:56 +0000";
layers = (
{
layerId = "2BED5241-FEE2-452B-8B42-4A46EDD0955E";
paths = (
{
closed = 1;
nodes = (
"306.41 0 LINE",
"374.849 385.266 LINE",
"473.688 0 LINE",
"730.41 0 LINE",
"860.363 737 LINE",
"598.953 737 LINE",
"533.804 367.52 LINE",
"433.342 737 LINE",
"174.953 737 LINE",
"45 0 LINE"
);
},
{
closed = 1;
nodes = (
"331.289 -234 LINE",
"496.381 -52 LINE",
"264.381 -52 LINE",
"181.289 -234 LINE"
);
}
);
width = 775.41;
}
);
unicode = 0145;
},
{
glyphname = Eng;
lastChange = "2019-10-06 18:16:59 +0000";
layers = (
{
layerId = "2BED5241-FEE2-452B-8B42-4A46EDD0955E";
paths = (
{
closed = 1;
nodes = (
"586.437 -187 LINE",
"714.188 -92 LINE",
"860.363 737 LINE",
"598.953 737 LINE",
"533.804 367.52 LINE",
"433.342 737 LINE",
"174.953 737 LINE",
"45 0 LINE",
"306.41 0 LINE",
"374.849 385.266 LINE",
"473.643 0.177 LINE",
"463.949 -57 LINE",
"454.186 -67 LINE",
"372.186 -67 LINE",
"351.027 -187 LINE"
);
}
);
width = 775.41;
}
);
leftMetricsKey = N;
rightMetricsKey = N;
unicode = 014A;
},
{
glyphname = Nj;
lastChange = "2019-10-06 19:24:56 +0000";
layers = (
{
layerId = "2BED5241-FEE2-452B-8B42-4A46EDD0955E";
paths = (
{
closed = 1;
nodes = (
"306.41 0 LINE",
"374.849 385.266 LINE",
"473.688 0 LINE",
"730.41 0 LINE",
"860.363 737 LINE",
"598.953 737 LINE",
"533.804 367.52 LINE",
"433.342 737 LINE",
"174.953 737 LINE",
"45 0 LINE"
);
},
{
closed = 1;
nodes = (
"946.437 -187 LINE",
"1074.188 -92 LINE",
"1181.629 523 LINE",
"908.629 523 LINE",
"804.596 -67 LINE",
"714.596 -67 LINE",
"693.437 -187 LINE"
);
},
{
closed = 1;
nodes = (
"1191.298 575 LINE",
"1219.158 733 LINE",
"946.158 733 LINE",
"918.298 575 LINE"
);
}
);
width = 1129.63;
}
);
leftMetricsKey = N;
rightMetricsKey = j;
unicode = 01CB;
},
{
glyphname = Ntilde;
lastChange = "2019-10-06 19:24:56 +0000";
layers = (
{
layerId = "2BED5241-FEE2-452B-8B42-4A46EDD0955E";
paths = (
{
closed = 1;
nodes = (
"306.41 0 LINE",
"374.849 385.266 LINE",
"473.688 0 LINE",
"730.41 0 LINE",
"860.363 737 LINE",
"598.953 737 LINE",
"533.804 367.52 LINE",
"433.342 737 LINE",
"174.953 737 LINE",
"45 0 LINE"
);
},
{
closed = 1;
nodes = (
"702.672 789 LINE",
"799.368 861 LINE",
"815.061 950 LINE",
"663.061 950 LINE",
"657.242 917 LINE",
"638.597 902 LINE",
"620.597 902 LINE",
"581.295 957 LINE",
"383.295 957 LINE",
"287.247 883 LINE",
"271.73 795 LINE",
"423.73 795 LINE",
"429.372 827 LINE",
"448.194 843 LINE",
"465.194 843 LINE",
"505.672 789 LINE"
);
}
);
width = 775.41;
}
);
leftKerningGroup = H;
rightKerningGroup = H;
unicode = 00D1;
},
{
glyphname = O;
lastChange = "2019-10-06 19:24:56 +0000";
layers = (
{
layerId = "2BED5241-FEE2-452B-8B42-4A46EDD0955E";
paths = (
{
closed = 1;
nodes = (
"648 0 LINE",
"775.751 95 LINE",
"872.202 642 LINE",
"777.953 737 LINE",
"274.953 737 LINE",
"147.202 642 LINE",
"50.751 95 LINE",
"145 0 LINE"
);
},
{
closed = 1;
nodes = (
"426.975 584 LINE",
"571.975 584 LINE",
"495.978 153 LINE",
"350.978 153 LINE"
);
}
);
width = 793;
}
);
leftKerningGroup = O;
rightKerningGroup = O;
unicode = 004F;
},
{
glyphname = Oacute;
lastChange = "2019-10-06 19:24:56 +0000";
layers = (
{
layerId = "2BED5241-FEE2-452B-8B42-4A46EDD0955E";
paths = (
{
closed = 1;
nodes = (
"648 0 LINE",
"775.751 95 LINE",
"872.202 642 LINE",
"777.953 737 LINE",
"274.953 737 LINE",
"147.202 642 LINE",
"50.751 95 LINE",
"145 0 LINE"
);
},
{
closed = 1;
nodes = (
"426.975 584 LINE",
"571.975 584 LINE",
"495.978 153 LINE",
"350.978 153 LINE"
);
},
{
closed = 1;
nodes = (
"613.122 789 LINE",
"803.863 952 LINE",
"562.863 952 LINE",
"455.122 789 LINE"
);
}
);
width = 793;
}
);
leftKerningGroup = O;
rightKerningGroup = O;
unicode = 00D3;
},
{
glyphname = Obreve;
lastChange = "2019-10-06 19:24:56 +0000";
layers = (
{
layerId = "2BED5241-FEE2-452B-8B42-4A46EDD0955E";
paths = (
{
closed = 1;
nodes = (
"648 0 LINE",
"775.751 95 LINE",
"872.202 642 LINE",
"777.953 737 LINE",
"274.953 737 LINE",
"147.202 642 LINE",
"50.751 95 LINE",
"145 0 LINE"
);
},
{
closed = 1;
nodes = (
"426.975 584 LINE",
"571.975 584 LINE",
"495.978 153 LINE",
"350.978 153 LINE"
);
},
{
closed = 1;
nodes = (
"674.122 789 LINE",
"792.639 877 LINE",
"805.863 952 LINE",
"609.863 952 LINE",
"600.694 900 LINE",
"498.694 900 LINE",
"507.863 952 LINE",
"321.863 952 LINE",
"308.639 877 LINE",
"396.122 789 LINE"
);
}
);
width = 793;
}
);
unicode = 014E;
},
{
glyphname = Ocircumflex;
lastChange = "2019-10-06 19:24:56 +0000";
layers = (
{
layerId = "2BED5241-FEE2-452B-8B42-4A46EDD0955E";
paths = (
{
closed = 1;
nodes = (
"648 0 LINE",
"775.751 95 LINE",
"872.202 642 LINE",
"777.953 737 LINE",
"274.953 737 LINE",
"147.202 642 LINE",
"50.751 95 LINE",
"145 0 LINE"
);
},
{
closed = 1;
nodes = (
"426.975 584 LINE",
"571.975 584 LINE",
"495.978 153 LINE",
"350.978 153 LINE"
);
},
{
closed = 1;
nodes = (
"457.122 789 LINE",
"546.523 865 LINE",
"609.122 789 LINE",
"796.122 789 LINE",
"701.863 952 LINE",
"416.863 952 LINE",
"265.122 789 LINE"
);
}
);
width = 793;
}
);
leftKerningGroup = O;
rightKerningGroup = O;
unicode = 00D4;
},
{
glyphname = Ocircumflexacute;
lastChange = "2019-10-06 19:24:56 +0000";
layers = (
{
layerId = "2BED5241-FEE2-452B-8B42-4A46EDD0955E";
paths = (
{
closed = 1;
nodes = (
"648 0 LINE",
"775.751 95 LINE",
"872.202 642 LINE",
"777.953 737 LINE",
"274.953 737 LINE",
"147.202 642 LINE",
"50.751 95 LINE",
"145 0 LINE"
);
},
{
closed = 1;
nodes = (
"426.975 584 LINE",
"571.975 584 LINE",
"495.978 153 LINE",
"350.978 153 LINE"
);
},
{
closed = 1;
nodes = (
"457.122 789 LINE",
"546.523 865 LINE",
"609.122 789 LINE",
"796.122 789 LINE",
"701.863 952 LINE",
"416.863 952 LINE",
"265.122 789 LINE"
);
},
{
closed = 1;
nodes = (
"988.712 876.724 LINE",
"1179.453 1039.724 LINE",
"938.453 1039.724 LINE",
"830.712 876.724 LINE"
);
}
);
width = 793;
}
);
unicode = 1ED0;
},
{
glyphname = Ocircumflexdotbelow;
lastChange = "2019-10-06 19:24:56 +0000";
layers = (
{
layerId = "2BED5241-FEE2-452B-8B42-4A46EDD0955E";
paths = (
{
closed = 1;
nodes = (
"648 0 LINE",
"775.751 95 LINE",
"872.202 642 LINE",
"777.953 737 LINE",
"274.953 737 LINE",
"147.202 642 LINE",
"50.751 95 LINE",
"145 0 LINE"
);
},
{
closed = 1;
nodes = (
"496.645 -209.013 LINE",
"524.505 -51.013 LINE",
"251.505 -51.013 LINE",
"223.645 -209.013 LINE"
);
},
{
closed = 1;
nodes = (
"426.975 584 LINE",
"571.975 584 LINE",
"495.978 153 LINE",
"350.978 153 LINE"
);
},
{
closed = 1;
nodes = (
"457.122 789 LINE",
"546.523 865 LINE",
"609.122 789 LINE",
"796.122 789 LINE",
"701.863 952 LINE",
"416.863 952 LINE",
"265.122 789 LINE"
);
}
);
width = 793;
}
);
unicode = 1ED8;
},
{
glyphname = Ocircumflexgrave;
lastChange = "2019-10-06 19:24:56 +0000";
layers = (
{
layerId = "2BED5241-FEE2-452B-8B42-4A46EDD0955E";
paths = (
{
closed = 1;
nodes = (
"648 0 LINE",
"775.751 95 LINE",
"872.202 642 LINE",
"777.953 737 LINE",
"274.953 737 LINE",
"147.202 642 LINE",
"50.751 95 LINE",
"145 0 LINE"
);
},
{
closed = 1;
nodes = (
"426.975 584 LINE",
"571.975 584 LINE",
"495.978 153 LINE",
"350.978 153 LINE"
);
},
{
closed = 1;
nodes = (
"299.125 876.53 LINE",
"218.866 1039.53 LINE",
"3.866 1039.53 LINE",
"137.125 876.53 LINE"
);
},
{
closed = 1;
nodes = (
"457.122 789 LINE",
"546.523 865 LINE",
"609.122 789 LINE",
"796.122 789 LINE",
"701.863 952 LINE",
"416.863 952 LINE",
"265.122 789 LINE"
);
}
);
width = 793;
}
);
unicode = 1ED2;
},
{
glyphname = Ocircumflexhookabove;
lastChange = "2019-10-06 19:24:56 +0000";
layers = (
{
layerId = "2BED5241-FEE2-452B-8B42-4A46EDD0955E";
paths = (
{
closed = 1;
nodes = (
"648 0 LINE",
"775.751 95 LINE",
"872.202 642 LINE",
"777.953 737 LINE",
"274.953 737 LINE",
"147.202 642 LINE",
"50.751 95 LINE",
"145 0 LINE"
);
},
{
closed = 1;
nodes = (
"426.975 584 LINE",
"571.975 584 LINE",
"495.978 153 LINE",
"350.978 153 LINE"
);
},
{
closed = 1;
nodes = (
"457.122 789 LINE",
"546.523 865 LINE",
"609.122 789 LINE",
"796.122 789 LINE",
"701.863 952 LINE",
"416.863 952 LINE",
"265.122 789 LINE"
);
},
{
closed = 1;
nodes = (
"961.577 876.653 LINE",
"968.454 915.653 LINE",
"1010.454 915.653 LINE",
"1065.154 953.653 LINE",
"1086.137 1072.653 LINE",
"1044.543 1114.653 LINE",
"811.543 1114.653 LINE",
"749.137 1072.653 LINE",
"737.676 1007.653 LINE",
"887.676 1007.653 LINE",
"894.905 1048.653 LINE",
"926.905 1048.653 LINE",
"915.268 982.653 LINE",
"851.268 982.653 LINE",
"807.154 953.653 LINE",
"793.577 876.653 LINE"
);
}
);
width = 793;
}
);
unicode = 1ED4;
},
{
glyphname = Ocircumflextilde;
lastChange = "2019-10-06 19:24:56 +0000";
layers = (
{
layerId = "2BED5241-FEE2-452B-8B42-4A46EDD0955E";
paths = (
{
closed = 1;
nodes = (
"648 0 LINE",
"775.751 95 LINE",
"872.202 642 LINE",
"777.953 737 LINE",
"274.953 737 LINE",
"147.202 642 LINE",
"50.751 95 LINE",
"145 0 LINE"
);
},
{
closed = 1;
nodes = (
"426.975 584 LINE",
"571.975 584 LINE",
"495.978 153 LINE",
"350.978 153 LINE"
);
},
{
closed = 1;
nodes = (
"457.122 789 LINE",
"546.523 865 LINE",
"609.122 789 LINE",
"796.122 789 LINE",
"701.863 952 LINE",
"416.863 952 LINE",
"265.122 789 LINE"
);
},
{
closed = 1;
nodes = (
"741.329 983 LINE",
"838.025 1055 LINE",
"853.718 1144 LINE",
"701.718 1144 LINE",
"695.899 1111 LINE",
"677.254 1096 LINE",
"659.254 1096 LINE",
"619.952 1151 LINE",
"421.952 1151 LINE",
"325.904 1077 LINE",
"310.387 989 LINE",
"462.387 989 LINE",
"468.029 1021 LINE",
"486.851 1037 LINE",
"503.851 1037 LINE",
"544.329 983 LINE"
);
}
);
width = 793;
}
);
unicode = 1ED6;
},
{
glyphname = Odblgrave;
lastChange = "2019-10-06 19:24:56 +0000";
layers = (
{
layerId = "2BED5241-FEE2-452B-8B42-4A46EDD0955E";
paths = (
{
closed = 1;
nodes = (
"648 0 LINE",
"775.751 95 LINE",
"872.202 642 LINE",
"777.953 737 LINE",
"274.953 737 LINE",
"147.202 642 LINE",
"50.751 95 LINE",
"145 0 LINE"
);
},
{
closed = 1;
nodes = (
"426.975 584 LINE",
"571.975 584 LINE",
"495.978 153 LINE",
"350.978 153 LINE"
);
},
{
closed = 1;
nodes = (
"462.122 789 LINE",
"381.863 952 LINE",
"166.863 952 LINE",
"300.122 789 LINE"
);
},
{
closed = 1;
nodes = (
"749.122 789 LINE",
"668.863 952 LINE",
"453.863 952 LINE",
"587.122 789 LINE"
);
}
);
width = 793;
}
);
unicode = 020C;
},
{
glyphname = Odieresis;
lastChange = "2019-10-06 19:24:56 +0000";
layers = (
{
layerId = "2BED5241-FEE2-452B-8B42-4A46EDD0955E";
paths = (
{
closed = 1;
nodes = (
"648 0 LINE",
"775.751 95 LINE",
"872.202 642 LINE",
"777.953 737 LINE",
"274.953 737 LINE",
"147.202 642 LINE",
"50.751 95 LINE",
"145 0 LINE"
);
},
{
closed = 1;
nodes = (
"426.975 584 LINE",
"571.975 584 LINE",
"495.978 153 LINE",
"350.978 153 LINE"
);
},
{
closed = 1;
nodes = (
"504.075 789 LINE",
"531.935 947 LINE",
"283.935 947 LINE",
"256.075 789 LINE"
);
},
{
closed = 1;
nodes = (
"810.488 789 LINE",
"838.348 947 LINE",
"590.348 947 LINE",
"562.488 789 LINE"
);
}
);
width = 793;
}
);
leftKerningGroup = O;
rightKerningGroup = O;
unicode = 00D6;
},
{
glyphname = Odieresismacron;
lastChange = "2019-10-06 19:24:56 +0000";
layers = (
{
layerId = "2BED5241-FEE2-452B-8B42-4A46EDD0955E";
paths = (
{
closed = 1;
nodes = (
"648 0 LINE",
"775.751 95 LINE",
"872.202 642 LINE",
"777.953 737 LINE",
"274.953 737 LINE",
"147.202 642 LINE",
"50.751 95 LINE",
"145 0 LINE"
);
},
{
closed = 1;
nodes = (
"426.975 584 LINE",
"571.975 584 LINE",
"495.978 153 LINE",
"350.978 153 LINE"
);
},
{
closed = 1;
nodes = (
"504.075 789 LINE",
"531.935 947 LINE",
"283.935 947 LINE",
"256.075 789 LINE"
);
},
{
closed = 1;
nodes = (
"810.488 789 LINE",
"838.348 947 LINE",
"590.348 947 LINE",
"562.488 789 LINE"
);
},
{
closed = 1;
nodes = (
"845.514 979.181 LINE",
"871.787 1128.181 LINE",
"315.787 1128.181 LINE",
"289.514 979.181 LINE"
);
}
);
width = 793;
}
);
unicode = 022A;
},
{
glyphname = Odotaccentmacron;
lastChange = "2019-10-06 19:24:56 +0000";
layers = (
{
layerId = "2BED5241-FEE2-452B-8B42-4A46EDD0955E";
paths = (
{
closed = 1;
nodes = (
"648 0 LINE",
"775.751 95 LINE",
"872.202 642 LINE",
"777.953 737 LINE",
"274.953 737 LINE",
"147.202 642 LINE",
"50.751 95 LINE",
"145 0 LINE"
);
},
{
closed = 1;
nodes = (
"426.975 584 LINE",
"571.975 584 LINE",
"495.978 153 LINE",
"350.978 153 LINE"
);
},
{
closed = 1;
nodes = (
"669.622 789 LINE",
"697.482 947 LINE",
"424.482 947 LINE",
"396.622 789 LINE"
);
},
{
closed = 1;
nodes = (
"845.514 979.181 LINE",
"871.787 1128.181 LINE",
"315.787 1128.181 LINE",
"289.514 979.181 LINE"
);
}
);
width = 793;
}
);
unicode = 0230;
},
{
glyphname = Odotbelow;
lastChange = "2019-10-06 19:24:56 +0000";
layers = (
{
layerId = "2BED5241-FEE2-452B-8B42-4A46EDD0955E";
paths = (
{
closed = 1;
nodes = (
"648 0 LINE",
"775.751 95 LINE",
"872.202 642 LINE",
"777.953 737 LINE",
"274.953 737 LINE",
"147.202 642 LINE",
"50.751 95 LINE",
"145 0 LINE"
);
},
{
closed = 1;
nodes = (
"496.645 -209.013 LINE",
"524.505 -51.013 LINE",
"251.505 -51.013 LINE",
"223.645 -209.013 LINE"
);
},
{
closed = 1;
nodes = (
"426.975 584 LINE",
"571.975 584 LINE",
"495.978 153 LINE",
"350.978 153 LINE"
);
}
);
width = 793;
}
);
unicode = 1ECC;
},
{
glyphname = Ograve;
lastChange = "2019-10-06 19:24:56 +0000";
layers = (
{
layerId = "2BED5241-FEE2-452B-8B42-4A46EDD0955E";
paths = (
{
closed = 1;
nodes = (
"648 0 LINE",
"775.751 95 LINE",
"872.202 642 LINE",
"777.953 737 LINE",
"274.953 737 LINE",
"147.202 642 LINE",
"50.751 95 LINE",
"145 0 LINE"
);
},
{
closed = 1;
nodes = (
"426.975 584 LINE",
"571.975 584 LINE",
"495.978 153 LINE",
"350.978 153 LINE"
);
},
{
closed = 1;
nodes = (
"617.122 789 LINE",
"536.863 952 LINE",
"321.863 952 LINE",
"455.122 789 LINE"
);
}
);
width = 793;
}
);
leftKerningGroup = O;
rightKerningGroup = O;
unicode = 00D2;
},
{
glyphname = Ohookabove;
lastChange = "2019-10-06 19:24:56 +0000";
layers = (
{
layerId = "2BED5241-FEE2-452B-8B42-4A46EDD0955E";
paths = (
{
closed = 1;
nodes = (
"648 0 LINE",
"775.751 95 LINE",
"872.202 642 LINE",
"777.953 737 LINE",
"274.953 737 LINE",
"147.202 642 LINE",
"50.751 95 LINE",
"145 0 LINE"
);
},
{
closed = 1;
nodes = (
"426.975 584 LINE",
"571.975 584 LINE",
"495.978 153 LINE",
"350.978 153 LINE"
);
},
{
closed = 1;
nodes = (
"617.122 789 LINE",
"623.999 828 LINE",
"665.999 828 LINE",
"720.699 866 LINE",
"741.682 985 LINE",
"700.088 1027 LINE",
"467.088 1027 LINE",
"404.682 985 LINE",
"393.221 920 LINE",
"543.221 920 LINE",
"550.45 961 LINE",
"582.45 961 LINE",
"570.813 895 LINE",
"506.813 895 LINE",
"462.699 866 LINE",
"449.122 789 LINE"
);
}
);
width = 793;
}
);
unicode = 1ECE;
},
{
glyphname = Ohorn;
lastChange = "2019-10-06 19:24:56 +0000";
layers = (
{
layerId = "2BED5241-FEE2-452B-8B42-4A46EDD0955E";
paths = (
{
closed = 1;
nodes = (
"648 0 LINE",
"775.751 95 LINE",
"872.202 642 LINE",
"777.953 737 LINE",
"274.953 737 LINE",
"147.202 642 LINE",
"50.751 95 LINE",
"145 0 LINE"
);
},
{
closed = 1;
nodes = (
"426.975 584 LINE",
"571.975 584 LINE",
"495.978 153 LINE",
"350.978 153 LINE"
);
},
{
closed = 1;
nodes = (
"966.915 595 LINE",
"1156.238 801 LINE",
"925.238 801 LINE",
"869.432 683 LINE",
"805.432 683 LINE",
"789.915 595 LINE"
);
}
);
width = 793;
}
);
unicode = 01A0;
},
{
glyphname = Ohornacute;
lastChange = "2019-10-06 19:24:56 +0000";
layers = (
{
layerId = "2BED5241-FEE2-452B-8B42-4A46EDD0955E";
paths = (
{
closed = 1;
nodes = (
"648 0 LINE",
"775.751 95 LINE",
"872.202 642 LINE",
"777.953 737 LINE",
"274.953 737 LINE",
"147.202 642 LINE",
"50.751 95 LINE",
"145 0 LINE"
);
},
{
closed = 1;
nodes = (
"426.975 584 LINE",
"571.975 584 LINE",
"495.978 153 LINE",
"350.978 153 LINE"
);
},
{
closed = 1;
nodes = (
"613.122 789 LINE",
"803.863 952 LINE",
"562.863 952 LINE",
"455.122 789 LINE"
);
},
{
closed = 1;
nodes = (
"966.915 595 LINE",
"1156.238 801 LINE",
"925.238 801 LINE",
"869.432 683 LINE",
"805.432 683 LINE",
"789.915 595 LINE"
);
}
);
width = 793;
}
);
unicode = 1EDA;
},
{
glyphname = Ohorndotbelow;
lastChange = "2019-10-06 19:24:56 +0000";
layers = (
{
layerId = "2BED5241-FEE2-452B-8B42-4A46EDD0955E";
paths = (
{
closed = 1;
nodes = (
"648 0 LINE",
"775.751 95 LINE",
"872.202 642 LINE",
"777.953 737 LINE",
"274.953 737 LINE",
"147.202 642 LINE",
"50.751 95 LINE",
"145 0 LINE"
);
},
{
closed = 1;
nodes = (
"496.645 -209.013 LINE",
"524.505 -51.013 LINE",
"251.505 -51.013 LINE",
"223.645 -209.013 LINE"
);
},
{
closed = 1;
nodes = (
"426.975 584 LINE",
"571.975 584 LINE",
"495.978 153 LINE",
"350.978 153 LINE"
);
},
{
closed = 1;
nodes = (
"966.915 595 LINE",
"1156.238 801 LINE",
"925.238 801 LINE",
"869.432 683 LINE",
"805.432 683 LINE",
"789.915 595 LINE"
);
}
);
width = 793;
}
);
unicode = 1EE2;
},
{
glyphname = Ohorngrave;
lastChange = "2019-10-06 19:24:56 +0000";
layers = (
{
layerId = "2BED5241-FEE2-452B-8B42-4A46EDD0955E";
paths = (
{
closed = 1;
nodes = (
"648 0 LINE",
"775.751 95 LINE",
"872.202 642 LINE",
"777.953 737 LINE",
"274.953 737 LINE",
"147.202 642 LINE",
"50.751 95 LINE",
"145 0 LINE"
);
},
{
closed = 1;
nodes = (
"426.975 584 LINE",
"571.975 584 LINE",
"495.978 153 LINE",
"350.978 153 LINE"
);
},
{
closed = 1;
nodes = (
"617.122 789 LINE",
"536.863 952 LINE",
"321.863 952 LINE",
"455.122 789 LINE"
);
},
{
closed = 1;
nodes = (
"966.915 595 LINE",
"1156.238 801 LINE",
"925.238 801 LINE",
"869.432 683 LINE",
"805.432 683 LINE",
"789.915 595 LINE"
);
}
);
width = 793;
}
);
unicode = 1EDC;
},
{
glyphname = Ohornhookabove;
lastChange = "2019-10-06 19:24:56 +0000";
layers = (
{
layerId = "2BED5241-FEE2-452B-8B42-4A46EDD0955E";
paths = (
{
closed = 1;
nodes = (
"648 0 LINE",
"775.751 95 LINE",
"872.202 642 LINE",
"777.953 737 LINE",
"274.953 737 LINE",
"147.202 642 LINE",
"50.751 95 LINE",
"145 0 LINE"
);
},
{
closed = 1;
nodes = (
"426.975 584 LINE",
"571.975 584 LINE",
"495.978 153 LINE",
"350.978 153 LINE"
);
},
{
closed = 1;
nodes = (
"617.122 789 LINE",
"623.999 828 LINE",
"665.999 828 LINE",
"720.699 866 LINE",
"741.682 985 LINE",
"700.088 1027 LINE",
"467.088 1027 LINE",
"404.682 985 LINE",
"393.221 920 LINE",
"543.221 920 LINE",
"550.45 961 LINE",
"582.45 961 LINE",
"570.813 895 LINE",
"506.813 895 LINE",
"462.699 866 LINE",
"449.122 789 LINE"
);
},
{
closed = 1;
nodes = (
"966.915 595 LINE",
"1156.238 801 LINE",
"925.238 801 LINE",
"869.432 683 LINE",
"805.432 683 LINE",
"789.915 595 LINE"
);
}
);
width = 793;
}
);
unicode = 1EDE;
},
{
glyphname = Ohorntilde;
lastChange = "2019-10-06 19:24:56 +0000";
layers = (
{
layerId = "2BED5241-FEE2-452B-8B42-4A46EDD0955E";
paths = (
{
closed = 1;
nodes = (
"648 0 LINE",
"775.751 95 LINE",
"872.202 642 LINE",
"777.953 737 LINE",
"274.953 737 LINE",
"147.202 642 LINE",
"50.751 95 LINE",
"145 0 LINE"
);
},
{
closed = 1;
nodes = (
"426.975 584 LINE",
"571.975 584 LINE",
"495.978 153 LINE",
"350.978 153 LINE"
);
},
{
closed = 1;
nodes = (
"708.122 789 LINE",
"804.818 861 LINE",
"820.511 950 LINE",
"668.511 950 LINE",
"662.692 917 LINE",
"644.047 902 LINE",
"626.047 902 LINE",
"586.745 957 LINE",
"388.745 957 LINE",
"292.697 883 LINE",
"277.18 795 LINE",
"429.18 795 LINE",
"434.822 827 LINE",
"453.644 843 LINE",
"470.644 843 LINE",
"511.122 789 LINE"
);
},
{
closed = 1;
nodes = (
"966.915 595 LINE",
"1156.238 801 LINE",
"925.238 801 LINE",
"869.432 683 LINE",
"805.432 683 LINE",
"789.915 595 LINE"
);
}
);
width = 793;
}
);
unicode = 1EE0;
},
{
glyphname = Ohungarumlaut;
lastChange = "2019-10-06 19:24:56 +0000";
layers = (
{
layerId = "2BED5241-FEE2-452B-8B42-4A46EDD0955E";
paths = (
{
closed = 1;
nodes = (
"648 0 LINE",
"775.751 95 LINE",
"872.202 642 LINE",
"777.953 737 LINE",
"274.953 737 LINE",
"147.202 642 LINE",
"50.751 95 LINE",
"145 0 LINE"
);
},
{
closed = 1;
nodes = (
"426.975 584 LINE",
"571.975 584 LINE",
"495.978 153 LINE",
"350.978 153 LINE"
);
},
{
closed = 1;
nodes = (
"496.122 789 LINE",
"689.216 954 LINE",
"444.216 954 LINE",
"318.122 789 LINE"
);
},
{
closed = 1;
nodes = (
"764.122 789 LINE",
"957.216 954 LINE",
"712.216 954 LINE",
"586.122 789 LINE"
);
}
);
width = 793;
}
);
leftKerningGroup = O;
rightKerningGroup = O;
unicode = 0150;
},
{
glyphname = Oinvertedbreve;
lastChange = "2019-10-06 19:24:56 +0000";
layers = (
{
layerId = "2BED5241-FEE2-452B-8B42-4A46EDD0955E";
paths = (
{
closed = 1;
nodes = (
"648 0 LINE",
"775.751 95 LINE",
"872.202 642 LINE",
"777.953 737 LINE",
"274.953 737 LINE",
"147.202 642 LINE",
"50.751 95 LINE",
"145 0 LINE"
);
},
{
closed = 1;
nodes = (
"426.975 584 LINE",
"571.975 584 LINE",
"495.978 153 LINE",
"350.978 153 LINE"
);
},
{
closed = 1;
nodes = (
"482.122 789 LINE",
"491.291 841 LINE",
"593.291 841 LINE",
"584.122 789 LINE",
"780.122 789 LINE",
"793.347 864 LINE",
"705.863 952 LINE",
"417.863 952 LINE",
"299.347 864 LINE",
"286.122 789 LINE"
);
}
);
width = 793;
}
);
unicode = 020E;
},
{
glyphname = Omacron;
lastChange = "2019-10-06 19:24:56 +0000";
layers = (
{
layerId = "2BED5241-FEE2-452B-8B42-4A46EDD0955E";
paths = (
{
closed = 1;
nodes = (
"648 0 LINE",
"775.751 95 LINE",
"872.202 642 LINE",
"777.953 737 LINE",
"274.953 737 LINE",
"147.202 642 LINE",
"50.751 95 LINE",
"145 0 LINE"
);
},
{
closed = 1;
nodes = (
"426.975 584 LINE",
"571.975 584 LINE",
"495.978 153 LINE",
"350.978 153 LINE"
);
},
{
closed = 1;
nodes = (
"811.122 789 LINE",
"837.395 938 LINE",
"281.395 938 LINE",
"255.122 789 LINE"
);
}
);
width = 793;
}
);
leftKerningGroup = O;
rightKerningGroup = O;
unicode = 014C;
},
{
glyphname = Oogonek;
lastChange = "2019-10-06 19:24:56 +0000";
layers = (
{
layerId = "2BED5241-FEE2-452B-8B42-4A46EDD0955E";
paths = (
{
closed = 1;
nodes = (
"628.311 -191 LINE",
"650.704 -64 LINE",
"622.704 -64 LINE",
"609.173 -50 LINE",
"613.404 -26 LINE",
"647.989 0 LINE",
"775.751 95 LINE",
"872.202 642 LINE",
"777.953 737 LINE",
"274.953 737 LINE",
"147.202 642 LINE",
"50.751 95 LINE",
"145 0 LINE",
"526.989 0 LINE",
"476.17 -33 LINE",
"460.477 -122 LINE",
"531.311 -191 LINE"
);
},
{
closed = 1;
nodes = (
"426.975 584 LINE",
"571.975 584 LINE",
"495.978 153 LINE",
"350.978 153 LINE"
);
}
);
width = 793;
}
);
unicode = 01EA;
},
{
glyphname = Oslash;
lastChange = "2019-10-06 19:24:56 +0000";
layers = (
{
layerId = "2BED5241-FEE2-452B-8B42-4A46EDD0955E";
paths = (
{
closed = 1;
nodes = (
"145 0 LINE",
"648 0 LINE",
"775.751 95 LINE",
"872.202 642 LINE",
"777.953 737 LINE",
"274.953 737 LINE",
"147.202 642 LINE",
"50.751 95 LINE"
);
},
{
closed = 1;
nodes = (
"535.047 374.571 LINE",
"495.978 153 LINE",
"357.525 153 LINE"
);
},
{
closed = 1;
nodes = (
"426.975 584 LINE",
"565.428 584 LINE",
"387.906 362.429 LINE"
);
}
);
width = 793;
}
);
leftKerningGroup = O;
leftMetricsKey = O;
rightKerningGroup = O;
rightMetricsKey = O;
unicode = 00D8;
},
{
glyphname = Oslashacute;
lastChange = "2019-10-06 19:24:56 +0000";
layers = (
{
layerId = "2BED5241-FEE2-452B-8B42-4A46EDD0955E";
paths = (
{
closed = 1;
nodes = (
"648 0 LINE",
"775.751 95 LINE",
"872.202 642 LINE",
"777.953 737 LINE",
"274.953 737 LINE",
"147.202 642 LINE",
"50.751 95 LINE",
"145 0 LINE"
);
},
{
closed = 1;
nodes = (
"535.047 374.571 LINE",
"495.978 153 LINE",
"357.525 153 LINE"
);
},
{
closed = 1;
nodes = (
"426.975 584 LINE",
"565.428 584 LINE",
"387.906 362.429 LINE"
);
},
{
closed = 1;
nodes = (
"613.122 789 LINE",
"803.863 952 LINE",
"562.863 952 LINE",
"455.122 789 LINE"
);
}
);
width = 793;
}
);
unicode = 01FE;
},
{
glyphname = Otilde;
lastChange = "2019-10-06 19:24:56 +0000";
layers = (
{
layerId = "2BED5241-FEE2-452B-8B42-4A46EDD0955E";
paths = (
{
closed = 1;
nodes = (
"648 0 LINE",
"775.751 95 LINE",
"872.202 642 LINE",
"777.953 737 LINE",
"274.953 737 LINE",
"147.202 642 LINE",
"50.751 95 LINE",
"145 0 LINE"
);
},
{
closed = 1;
nodes = (
"426.975 584 LINE",
"571.975 584 LINE",
"495.978 153 LINE",
"350.978 153 LINE"
);
},
{
closed = 1;
nodes = (
"708.122 789 LINE",
"804.818 861 LINE",
"820.511 950 LINE",
"668.511 950 LINE",
"662.692 917 LINE",
"644.047 902 LINE",
"626.047 902 LINE",
"586.745 957 LINE",
"388.745 957 LINE",
"292.697 883 LINE",
"277.18 795 LINE",
"429.18 795 LINE",
"434.822 827 LINE",
"453.644 843 LINE",
"470.644 843 LINE",
"511.122 789 LINE"
);
}
);
width = 793;
}
);
leftKerningGroup = O;
rightKerningGroup = O;
unicode = 00D5;
},
{
glyphname = Otildemacron;
lastChange = "2019-10-06 19:24:56 +0000";
layers = (
{
layerId = "2BED5241-FEE2-452B-8B42-4A46EDD0955E";
paths = (
{
closed = 1;
nodes = (
"648 0 LINE",
"775.751 95 LINE",
"872.202 642 LINE",
"777.953 737 LINE",
"274.953 737 LINE",
"147.202 642 LINE",
"50.751 95 LINE",
"145 0 LINE"
);
},
{
closed = 1;
nodes = (
"426.975 584 LINE",
"571.975 584 LINE",
"495.978 153 LINE",
"350.978 153 LINE"
);
},
{
closed = 1;
nodes = (
"708.122 789 LINE",
"804.818 861 LINE",
"820.511 950 LINE",
"668.511 950 LINE",
"662.692 917 LINE",
"644.047 902 LINE",
"626.047 902 LINE",
"586.745 957 LINE",
"388.745 957 LINE",
"292.697 883 LINE",
"277.18 795 LINE",
"429.18 795 LINE",
"434.822 827 LINE",
"453.644 843 LINE",
"470.644 843 LINE",
"511.122 789 LINE"
);
},
{
closed = 1;
nodes = (
"848.878 989.354 LINE",
"875.151 1138.354 LINE",
"319.151 1138.354 LINE",
"292.878 989.354 LINE"
);
}
);
width = 793;
}
);
unicode = 022C;
},
{
glyphname = OE;
lastChange = "2019-10-06 18:26:11 +0000";
layers = (
{
layerId = "2BED5241-FEE2-452B-8B42-4A46EDD0955E";
paths = (
{
closed = 1;
nodes = (
"1117 0 LINE",
"1153.676 208 LINE",
"795.676 208 LINE",
"809.782 288 LINE",
"1125.782 288 LINE",
"1153.818 447 LINE",
"837.818 447 LINE",
"852.277 529 LINE",
"1210.277 529 LINE",
"1246.953 737 LINE",
"274.953 737 LINE",
"147.202 642 LINE",
"50.751 95 LINE",
"145 0 LINE"
);
},
{
closed = 1;
nodes = (
"426.975 584 LINE",
"571.975 584 LINE",
"495.978 153 LINE",
"350.978 153 LINE"
);
}
);
width = 1156;
}
);
leftKerningGroup = O;
leftMetricsKey = O;
rightKerningGroup = E;
rightMetricsKey = E;
unicode = 0152;
},
{
glyphname = P;
lastChange = "2019-09-10 19:27:05 +0000";
layers = (
{
layerId = "2BED5241-FEE2-452B-8B42-4A46EDD0955E";
paths = (
{
closed = 1;
nodes = (
"334.9 0 LINE",
"371.047 205 LINE",
"679.647 205 LINE",
"807.222 299 LINE",
"867.702 642 LINE",
"773.453 737 LINE",
"174.953 737 LINE",
"45 0 LINE"
);
},
{
closed = 1;
nodes = (
"437.875 584 LINE",
"578.475 584 LINE",
"538.449 357 LINE",
"397.849 357 LINE"
);
}
);
width = 766.5;
}
);
leftKerningGroup = H;
leftMetricsKey = H;
unicode = 0050;
},
{
glyphname = Thorn;
lastChange = "2019-09-10 19:27:05 +0000";
layers = (
{
layerId = "2BED5241-FEE2-452B-8B42-4A46EDD0955E";
paths = (
{
closed = 1;
nodes = (
"334.9 0 LINE",
"354.825 113 LINE",
"663.425 113 LINE",
"791.176 208 LINE",
"851.832 552 LINE",
"757.584 647 LINE",
"448.984 647 LINE",
"464.853 737 LINE",
"174.953 737 LINE",
"45 0 LINE"
);
},
{
closed = 1;
nodes = (
"425.885 516 LINE",
"566.485 516 LINE",
"518.524 244 LINE",
"377.924 244 LINE"
);
}
);
width = 766.5;
}
);
leftMetricsKey = P;
unicode = 00DE;
},
{
glyphname = Q;
lastChange = "2019-09-10 19:27:05 +0000";
layers = (
{
layerId = "2BED5241-FEE2-452B-8B42-4A46EDD0955E";
paths = (
{
closed = 1;
nodes = (
"489.309 -106 LINE",
"508 0 LINE",
"648 0 LINE",
"775.751 95 LINE",
"872.202 642 LINE",
"777.953 737 LINE",
"274.953 737 LINE",
"147.202 642 LINE",
"50.751 95 LINE",
"145 0 LINE",
"285 0 LINE",
"266.309 -106 LINE"
);
},
{
closed = 1;
nodes = (
"426.975 584 LINE",
"571.975 584 LINE",
"495.978 153 LINE",
"350.978 153 LINE"
);
}
);
width = 793;
}
);
leftKerningGroup = O;
leftMetricsKey = O;
rightKerningGroup = O;
rightMetricsKey = O;
unicode = 0051;
},
{
glyphname = R;
lastChange = "2019-10-06 19:24:56 +0000";
layers = (
{
layerId = "2BED5241-FEE2-452B-8B42-4A46EDD0955E";
paths = (
{
closed = 1;
nodes = (
"334.9 0 LINE",
"375.103 228 LINE",
"470.837 228 LINE",
"505.5 0 LINE",
"790.5 0 LINE",
"740.96 267.978 LINE",
"814.277 322 LINE",
"870.702 642 LINE",
"776.453 737 LINE",
"174.953 737 LINE",
"45 0 LINE"
);
},
{
closed = 1;
nodes = (
"437.875 584 LINE",
"581.475 584 LINE",
"545.681 381 LINE",
"402.081 381 LINE"
);
}
);
width = 796.5;
}
);
leftKerningGroup = H;
leftMetricsKey = H;
rightKerningGroup = R;
unicode = 0052;
},
{
glyphname = Racute;
lastChange = "2019-10-06 19:24:56 +0000";
layers = (
{
layerId = "2BED5241-FEE2-452B-8B42-4A46EDD0955E";
paths = (
{
closed = 1;
nodes = (
"334.9 0 LINE",
"375.103 228 LINE",
"470.837 228 LINE",
"505.5 0 LINE",
"790.5 0 LINE",
"740.96 267.978 LINE",
"814.277 322 LINE",
"870.702 642 LINE",
"776.453 737 LINE",
"174.953 737 LINE",
"45 0 LINE"
);
},
{
closed = 1;
nodes = (
"437.875 584 LINE",
"581.475 584 LINE",
"545.681 381 LINE",
"402.081 381 LINE"
);
},
{
closed = 1;
nodes = (
"605.622 789 LINE",
"796.363 952 LINE",
"555.363 952 LINE",
"447.622 789 LINE"
);
}
);
width = 796.5;
}
);
rightKerningGroup = R;
unicode = 0154;
},
{
glyphname = Rcaron;
lastChange = "2019-10-06 19:24:56 +0000";
layers = (
{
layerId = "2BED5241-FEE2-452B-8B42-4A46EDD0955E";
paths = (
{
closed = 1;
nodes = (
"334.9 0 LINE",
"375.103 228 LINE",
"470.837 228 LINE",
"505.5 0 LINE",
"790.5 0 LINE",
"740.96 267.978 LINE",
"814.277 322 LINE",
"870.702 642 LINE",
"776.453 737 LINE",
"174.953 737 LINE",
"45 0 LINE"
);
},
{
closed = 1;
nodes = (
"437.875 584 LINE",
"581.475 584 LINE",
"545.681 381 LINE",
"402.081 381 LINE"
);
},
{
closed = 1;
nodes = (
"670.622 789 LINE",
"822.363 952 LINE",
"630.363 952 LINE",
"540.962 876 LINE",
"478.363 952 LINE",
"291.363 952 LINE",
"385.622 789 LINE"
);
}
);
width = 796.5;
}
);
rightKerningGroup = R;
unicode = 0158;
},
{
glyphname = Rcommaaccent;
lastChange = "2019-10-06 19:24:56 +0000";
layers = (
{
layerId = "2BED5241-FEE2-452B-8B42-4A46EDD0955E";
paths = (
{
closed = 1;
nodes = (
"334.9 0 LINE",
"375.103 228 LINE",
"470.837 228 LINE",
"505.5 0 LINE",
"790.5 0 LINE",
"740.96 267.978 LINE",
"814.277 322 LINE",
"870.702 642 LINE",
"776.453 737 LINE",
"174.953 737 LINE",
"45 0 LINE"
);
},
{
closed = 1;
nodes = (
"353.239 -234 LINE",
"518.331 -52 LINE",
"286.331 -52 LINE",
"203.239 -234 LINE"
);
},
{
closed = 1;
nodes = (
"437.875 584 LINE",
"581.475 584 LINE",
"545.681 381 LINE",
"402.081 381 LINE"
);
}
);
width = 796.5;
}
);
rightKerningGroup = R;
unicode = 0156;
},
{
glyphname = Rdblgrave;
lastChange = "2019-10-06 19:24:56 +0000";
layers = (
{
layerId = "2BED5241-FEE2-452B-8B42-4A46EDD0955E";
paths = (
{
closed = 1;
nodes = (
"334.9 0 LINE",
"375.103 228 LINE",
"470.837 228 LINE",
"505.5 0 LINE",
"790.5 0 LINE",
"740.96 267.978 LINE",
"814.277 322 LINE",
"870.702 642 LINE",
"776.453 737 LINE",
"174.953 737 LINE",
"45 0 LINE"
);
},
{
closed = 1;
nodes = (
"437.875 584 LINE",
"581.475 584 LINE",
"545.681 381 LINE",
"402.081 381 LINE"
);
},
{
closed = 1;
nodes = (
"454.622 789 LINE",
"374.363 952 LINE",
"159.363 952 LINE",
"292.622 789 LINE"
);
},
{
closed = 1;
nodes = (
"741.622 789 LINE",
"661.363 952 LINE",
"446.363 952 LINE",
"579.622 789 LINE"
);
}
);
width = 796.5;
}
);
unicode = 0210;
},
{
glyphname = Rinvertedbreve;
lastChange = "2019-10-06 19:24:56 +0000";
layers = (
{
layerId = "2BED5241-FEE2-452B-8B42-4A46EDD0955E";
paths = (
{
closed = 1;
nodes = (
"334.9 0 LINE",
"375.103 228 LINE",
"470.837 228 LINE",
"505.5 0 LINE",
"790.5 0 LINE",
"740.96 267.978 LINE",
"814.277 322 LINE",
"870.702 642 LINE",
"776.453 737 LINE",
"174.953 737 LINE",
"45 0 LINE"
);
},
{
closed = 1;
nodes = (
"437.875 584 LINE",
"581.475 584 LINE",
"545.681 381 LINE",
"402.081 381 LINE"
);
},
{
closed = 1;
nodes = (
"474.622 789 LINE",
"483.791 841 LINE",
"585.791 841 LINE",
"576.622 789 LINE",
"772.622 789 LINE",
"785.847 864 LINE",
"698.363 952 LINE",
"410.363 952 LINE",
"291.847 864 LINE",
"278.622 789 LINE"
);
}
);
width = 796.5;
}
);
unicode = 0212;
},
{
glyphname = S;
lastChange = "2019-10-06 19:24:56 +0000";
layers = (
{
layerId = "2BED5241-FEE2-452B-8B42-4A46EDD0955E";
paths = (
{
closed = 1;
nodes = (
"597 0 LINE",
"724.751 95 LINE",
"773.241 370 LINE",
"678.816 464 LINE",
"390.992 465 LINE",
"405.275 546 LINE",
"768.275 546 LINE",
"801.953 737 LINE",
"268.953 737 LINE",
"141.202 642 LINE",
"94.299 376 LINE",
"188.724 282 LINE",
"475.548 281 LINE",
"460.031 193 LINE",
"93.031 193 LINE",
"59 0 LINE"
);
}
);
width = 736;
}
);
leftKerningGroup = S;
rightKerningGroup = S;
unicode = 0053;
},
{
glyphname = Sacute;
lastChange = "2019-10-06 19:24:56 +0000";
layers = (
{
layerId = "2BED5241-FEE2-452B-8B42-4A46EDD0955E";
paths = (
{
closed = 1;
nodes = (
"597 0 LINE",
"724.751 95 LINE",
"773.241 370 LINE",
"678.816 464 LINE",
"390.992 465 LINE",
"405.275 546 LINE",
"768.275 546 LINE",
"801.953 737 LINE",
"268.953 737 LINE",
"141.202 642 LINE",
"94.299 376 LINE",
"188.724 282 LINE",
"475.548 281 LINE",
"460.031 193 LINE",
"93.031 193 LINE",
"59 0 LINE"
);
},
{
closed = 1;
nodes = (
"585.122 789 LINE",
"775.863 952 LINE",
"534.863 952 LINE",
"427.122 789 LINE"
);
}
);
width = 736;
}
);
leftKerningGroup = S;
rightKerningGroup = S;
unicode = 015A;
},
{
glyphname = Scaron;
lastChange = "2019-10-06 19:24:56 +0000";
layers = (
{
layerId = "2BED5241-FEE2-452B-8B42-4A46EDD0955E";
paths = (
{
closed = 1;
nodes = (
"597 0 LINE",
"724.751 95 LINE",
"773.241 370 LINE",
"678.816 464 LINE",
"390.992 465 LINE",
"405.275 546 LINE",
"768.275 546 LINE",
"801.953 737 LINE",
"268.953 737 LINE",
"141.202 642 LINE",
"94.299 376 LINE",
"188.724 282 LINE",
"475.548 281 LINE",
"460.031 193 LINE",
"93.031 193 LINE",
"59 0 LINE"
);
},
{
closed = 1;
nodes = (
"650.122 789 LINE",
"801.863 952 LINE",
"609.863 952 LINE",
"520.462 876 LINE",
"457.863 952 LINE",
"270.863 952 LINE",
"365.122 789 LINE"
);
}
);
width = 736;
}
);
leftKerningGroup = S;
rightKerningGroup = S;
unicode = 0160;
},
{
glyphname = Scedilla;
lastChange = "2019-10-06 19:24:56 +0000";
layers = (
{
layerId = "2BED5241-FEE2-452B-8B42-4A46EDD0955E";
paths = (
{
closed = 1;
nodes = (
"260 0 LINE",
"217.959 -125 LINE",
"391.959 -125 LINE",
"477 0 LINE",
"597 0 LINE",
"724.751 95 LINE",
"773.241 370 LINE",
"678.816 464 LINE",
"390.992 465 LINE",
"405.275 546 LINE",
"768.275 546 LINE",
"801.953 737 LINE",
"268.953 737 LINE",
"141.202 642 LINE",
"94.299 376 LINE",
"188.724 282 LINE",
"475.548 281 LINE",
"460.031 193 LINE",
"93.031 193 LINE",
"59 0 LINE"
);
}
);
width = 736;
}
);
leftKerningGroup = S;
rightKerningGroup = S;
unicode = 015E;
},
{
glyphname = Scircumflex;
lastChange = "2019-10-06 19:24:56 +0000";
layers = (
{
layerId = "2BED5241-FEE2-452B-8B42-4A46EDD0955E";
paths = (
{
closed = 1;
nodes = (
"597 0 LINE",
"724.751 95 LINE",
"773.241 370 LINE",
"678.816 464 LINE",
"390.992 465 LINE",
"405.275 546 LINE",
"768.275 546 LINE",
"801.953 737 LINE",
"268.953 737 LINE",
"141.202 642 LINE",
"94.299 376 LINE",
"188.724 282 LINE",
"475.548 281 LINE",
"460.031 193 LINE",
"93.031 193 LINE",
"59 0 LINE"
);
},
{
closed = 1;
nodes = (
"429.122 789 LINE",
"518.523 865 LINE",
"581.122 789 LINE",
"768.122 789 LINE",
"673.863 952 LINE",
"388.863 952 LINE",
"237.122 789 LINE"
);
}
);
width = 736;
}
);
leftKerningGroup = S;
rightKerningGroup = S;
unicode = 015C;
},
{
glyphname = Scommaaccent;
lastChange = "2019-10-06 19:24:56 +0000";
layers = (
{
layerId = "2BED5241-FEE2-452B-8B42-4A46EDD0955E";
paths = (
{
closed = 1;
nodes = (
"597 0 LINE",
"724.751 95 LINE",
"773.241 370 LINE",
"678.816 464 LINE",
"390.992 465 LINE",
"405.275 546 LINE",
"768.275 546 LINE",
"801.953 737 LINE",
"268.953 737 LINE",
"141.202 642 LINE",
"94.299 376 LINE",
"188.724 282 LINE",
"475.548 281 LINE",
"460.031 193 LINE",
"93.031 193 LINE",
"59 0 LINE"
);
},
{
closed = 1;
nodes = (
"310.739 -234 LINE",
"475.831 -52 LINE",
"243.831 -52 LINE",
"160.739 -234 LINE"
);
}
);
width = 736;
}
);
leftKerningGroup = S;
rightKerningGroup = S;
unicode = 0218;
},
{
glyphname = Germandbls;
lastChange = "2019-09-10 19:27:05 +0000";
layers = (
{
layerId = "2BED5241-FEE2-452B-8B42-4A46EDD0955E";
paths = (
{
closed = 1;
nodes = (
"348 0 LINE",
"454.854 606 LINE",
"553.854 606 LINE",
"545.567 559 LINE",
"461.937 442 LINE",
"438.838 311 LINE",
"513.838 311 LINE",
"483.099 131 LINE",
"407.099 131 LINE",
"384 0 LINE",
"660 0 LINE",
"787.751 95 LINE",
"821.958 289 LINE",
"709.486 401.457 LINE",
"802.101 528 LINE",
"822.202 642 LINE",
"726.953 737 LINE",
"285.953 737 LINE",
"158.202 642 LINE",
"45 0 LINE"
);
}
);
width = 806.2;
}
);
leftMetricsKey = H;
unicode = 1E9E;
},
{
glyphname = Schwa;
lastChange = "2019-09-10 19:27:05 +0000";
layers = (
{
layerId = "2BED5241-FEE2-452B-8B42-4A46EDD0955E";
paths = (
{
closed = 1;
nodes = (
"648 0 LINE",
"775.751 95 LINE",
"872.202 642 LINE",
"777.953 737 LINE",
"171.953 737 LINE",
"137.217 540 LINE",
"564.217 540 LINE",
"547.994 448 LINE",
"112.994 448 LINE",
"50.751 95 LINE",
"145 0 LINE"
);
},
{
closed = 1;
nodes = (
"374.958 289 LINE",
"519.958 289 LINE",
"495.978 153 LINE",
"350.978 153 LINE"
);
}
);
width = 793;
}
);
leftMetricsKey = O;
rightMetricsKey = O;
unicode = 018F;
},
{
glyphname = T;
lastChange = "2019-10-06 19:24:56 +0000";
layers = (
{
layerId = "2BED5241-FEE2-452B-8B42-4A46EDD0955E";
paths = (
{
closed = 1;
nodes = (
"499.95 0 LINE",
"595.167 540 LINE",
"792.217 540 LINE",
"826.953 737 LINE",
"141.953 737 LINE",
"107.217 540 LINE",
"304.267 540 LINE",
"209.05 0 LINE"
);
}
);
width = 709;
}
);
leftKerningGroup = T;
rightKerningGroup = T;
unicode = 0054;
},
{
glyphname = Tbar;
lastChange = "2019-10-06 19:24:56 +0000";
layers = (
{
layerId = "2BED5241-FEE2-452B-8B42-4A46EDD0955E";
paths = (
{
closed = 1;
nodes = (
"500.19 0 LINE",
"541.451 234 LINE",
"688.001 234 LINE",
"717.8 403 LINE",
"571.25 403 LINE",
"595.407 540 LINE",
"792.457 540 LINE",
"827.193 737 LINE",
"142.193 737 LINE",
"107.457 540 LINE",
"304.507 540 LINE",
"280.35 403 LINE",
"133.8 403 LINE",
"104.001 234 LINE",
"250.551 234 LINE",
"209.29 0 LINE"
);
}
);
width = 709.24;
}
);
leftKerningGroup = T;
rightKerningGroup = T;
rightMetricsKey = T;
unicode = 0166;
},
{
glyphname = Tcaron;
lastChange = "2019-10-06 19:24:56 +0000";
layers = (
{
layerId = "2BED5241-FEE2-452B-8B42-4A46EDD0955E";
paths = (
{
closed = 1;
nodes = (
"499.95 0 LINE",
"595.167 540 LINE",
"792.217 540 LINE",
"826.953 737 LINE",
"141.953 737 LINE",
"107.217 540 LINE",
"304.267 540 LINE",
"209.05 0 LINE"
);
},
{
closed = 1;
nodes = (
"638.622 789 LINE",
"790.363 952 LINE",
"598.363 952 LINE",
"508.962 876 LINE",
"446.363 952 LINE",
"259.363 952 LINE",
"353.622 789 LINE"
);
}
);
width = 709;
}
);
leftKerningGroup = T;
rightKerningGroup = T;
unicode = 0164;
},
{
glyphname = Tcedilla;
lastChange = "2019-10-06 18:26:58 +0000";
layers = (
{
layerId = "2BED5241-FEE2-452B-8B42-4A46EDD0955E";
paths = (
{
closed = 1;
nodes = (
"414.887 -125 LINE",
"499.928 0 LINE",
"595.167 540 LINE",
"792.217 540 LINE",
"826.953 737 LINE",
"141.953 737 LINE",
"107.217 540 LINE",
"304.267 540 LINE",
"209.05 0 LINE",
"282.928 0 LINE",
"240.887 -125 LINE"
);
}
);
width = 709;
}
);
leftKerningGroup = T;
rightKerningGroup = T;
unicode = 0162;
},
{
glyphname = Tcommaaccent;
lastChange = "2019-10-06 19:24:56 +0000";
layers = (
{
layerId = "2BED5241-FEE2-452B-8B42-4A46EDD0955E";
paths = (
{
closed = 1;
nodes = (
"499.95 0 LINE",
"595.167 540 LINE",
"792.217 540 LINE",
"826.953 737 LINE",
"141.953 737 LINE",
"107.217 540 LINE",
"304.267 540 LINE",
"209.05 0 LINE"
);
},
{
closed = 1;
nodes = (
"297.239 -234 LINE",
"462.331 -52 LINE",
"230.331 -52 LINE",
"147.239 -234 LINE"
);
}
);
width = 709;
}
);
leftKerningGroup = T;
leftMetricsKey = T;
rightKerningGroup = T;
rightMetricsKey = T;
unicode = 021A;
},
{
glyphname = U;
lastChange = "2019-10-06 18:27:12 +0000";
layers = (
{
layerId = "2BED5241-FEE2-452B-8B42-4A46EDD0955E";
paths = (
{
closed = 1;
nodes = (
"647 0 LINE",
"774.751 95 LINE",
"887.953 737 LINE",
"597.953 737 LINE",
"494.978 153 LINE",
"361.978 153 LINE",
"464.953 737 LINE",
"174.953 737 LINE",
"61.751 95 LINE",
"156 0 LINE"
);
}
);
width = 803;
}
);
leftKerningGroup = U;
rightKerningGroup = U;
unicode = 0055;
},
{
glyphname = Uacute;
lastChange = "2019-10-06 19:24:56 +0000";
layers = (
{
layerId = "2BED5241-FEE2-452B-8B42-4A46EDD0955E";
paths = (
{
closed = 1;
nodes = (
"647 0 LINE",
"774.751 95 LINE",
"887.953 737 LINE",
"597.953 737 LINE",
"494.978 153 LINE",
"361.978 153 LINE",
"464.953 737 LINE",
"174.953 737 LINE",
"61.751 95 LINE",
"156 0 LINE"
);
},
{
closed = 1;
nodes = (
"617.122 789 LINE",
"807.863 952 LINE",
"566.863 952 LINE",
"459.122 789 LINE"
);
}
);
width = 803;
}
);
leftKerningGroup = U;
rightKerningGroup = U;
unicode = 00DA;
},
{
glyphname = Ubreve;
lastChange = "2019-10-06 19:24:56 +0000";
layers = (
{
layerId = "2BED5241-FEE2-452B-8B42-4A46EDD0955E";
paths = (
{
closed = 1;
nodes = (
"647 0 LINE",
"774.751 95 LINE",
"887.953 737 LINE",
"597.953 737 LINE",
"494.978 153 LINE",
"361.978 153 LINE",
"464.953 737 LINE",
"174.953 737 LINE",
"61.751 95 LINE",
"156 0 LINE"
);
},
{
closed = 1;
nodes = (
"678.122 789 LINE",
"796.639 877 LINE",
"809.863 952 LINE",
"613.863 952 LINE",
"604.694 900 LINE",
"502.694 900 LINE",
"511.863 952 LINE",
"325.863 952 LINE",
"312.639 877 LINE",
"400.122 789 LINE"
);
}
);
width = 803;
}
);
unicode = 016C;
},
{
glyphname = Ucircumflex;
lastChange = "2019-10-06 19:24:56 +0000";
layers = (
{
layerId = "2BED5241-FEE2-452B-8B42-4A46EDD0955E";
paths = (
{
closed = 1;
nodes = (
"647 0 LINE",
"774.751 95 LINE",
"887.953 737 LINE",
"597.953 737 LINE",
"494.978 153 LINE",
"361.978 153 LINE",
"464.953 737 LINE",
"174.953 737 LINE",
"61.751 95 LINE",
"156 0 LINE"
);
},
{
closed = 1;
nodes = (
"461.122 789 LINE",
"550.523 865 LINE",
"613.122 789 LINE",
"800.122 789 LINE",
"705.863 952 LINE",
"420.863 952 LINE",
"269.122 789 LINE"
);
}
);
width = 803;
}
);
leftKerningGroup = U;
rightKerningGroup = U;
unicode = 00DB;
},
{
glyphname = Udblgrave;
lastChange = "2019-10-06 19:24:56 +0000";
layers = (
{
layerId = "2BED5241-FEE2-452B-8B42-4A46EDD0955E";
paths = (
{
closed = 1;
nodes = (
"647 0 LINE",
"774.751 95 LINE",
"887.953 737 LINE",
"597.953 737 LINE",
"494.978 153 LINE",
"361.978 153 LINE",
"464.953 737 LINE",
"174.953 737 LINE",
"61.751 95 LINE",
"156 0 LINE"
);
},
{
closed = 1;
nodes = (
"466.122 789 LINE",
"385.863 952 LINE",
"170.863 952 LINE",
"304.122 789 LINE"
);
},
{
closed = 1;
nodes = (
"753.122 789 LINE",
"672.863 952 LINE",
"457.863 952 LINE",
"591.122 789 LINE"
);
}
);
width = 803;
}
);
unicode = 0214;
},
{
glyphname = Udieresis;
lastChange = "2019-10-06 19:24:56 +0000";
layers = (
{
layerId = "2BED5241-FEE2-452B-8B42-4A46EDD0955E";
paths = (
{
closed = 1;
nodes = (
"647 0 LINE",
"774.751 95 LINE",
"887.953 737 LINE",
"597.953 737 LINE",
"494.978 153 LINE",
"361.978 153 LINE",
"464.953 737 LINE",
"174.953 737 LINE",
"61.751 95 LINE",
"156 0 LINE"
);
},
{
closed = 1;
nodes = (
"508.075 789 LINE",
"535.935 947 LINE",
"287.935 947 LINE",
"260.075 789 LINE"
);
},
{
closed = 1;
nodes = (
"814.488 789 LINE",
"842.348 947 LINE",
"594.348 947 LINE",
"566.488 789 LINE"
);
}
);
width = 803;
}
);
leftKerningGroup = U;
rightKerningGroup = U;
unicode = 00DC;
},
{
glyphname = Udotbelow;
lastChange = "2019-10-06 19:24:56 +0000";
layers = (
{
layerId = "2BED5241-FEE2-452B-8B42-4A46EDD0955E";
paths = (
{
closed = 1;
nodes = (
"647 0 LINE",
"774.751 95 LINE",
"887.953 737 LINE",
"597.953 737 LINE",
"494.978 153 LINE",
"361.978 153 LINE",
"464.953 737 LINE",
"174.953 737 LINE",
"61.751 95 LINE",
"156 0 LINE"
);
},
{
closed = 1;
nodes = (
"501.645 -209.013 LINE",
"529.505 -51.013 LINE",
"256.505 -51.013 LINE",
"228.645 -209.013 LINE"
);
}
);
width = 803;
}
);
unicode = 1EE4;
},
{
glyphname = Ugrave;
lastChange = "2019-10-06 19:24:56 +0000";
layers = (
{
layerId = "2BED5241-FEE2-452B-8B42-4A46EDD0955E";
paths = (
{
closed = 1;
nodes = (
"647 0 LINE",
"774.751 95 LINE",
"887.953 737 LINE",
"597.953 737 LINE",
"494.978 153 LINE",
"361.978 153 LINE",
"464.953 737 LINE",
"174.953 737 LINE",
"61.751 95 LINE",
"156 0 LINE"
);
},
{
closed = 1;
nodes = (
"621.122 789 LINE",
"540.863 952 LINE",
"325.863 952 LINE",
"459.122 789 LINE"
);
}
);
width = 803;
}
);
leftKerningGroup = U;
rightKerningGroup = U;
unicode = 00D9;
},
{
glyphname = Uhookabove;
lastChange = "2019-10-06 19:24:56 +0000";
layers = (
{
layerId = "2BED5241-FEE2-452B-8B42-4A46EDD0955E";
paths = (
{
closed = 1;
nodes = (
"647 0 LINE",
"774.751 95 LINE",
"887.953 737 LINE",
"597.953 737 LINE",
"494.978 153 LINE",
"361.978 153 LINE",
"464.953 737 LINE",
"174.953 737 LINE",
"61.751 95 LINE",
"156 0 LINE"
);
},
{
closed = 1;
nodes = (
"621.122 789 LINE",
"627.999 828 LINE",
"669.999 828 LINE",
"724.699 866 LINE",
"745.682 985 LINE",
"704.088 1027 LINE",
"471.088 1027 LINE",
"408.682 985 LINE",
"397.221 920 LINE",
"547.221 920 LINE",
"554.45 961 LINE",
"586.45 961 LINE",
"574.813 895 LINE",
"510.813 895 LINE",
"466.699 866 LINE",
"453.122 789 LINE"
);
}
);
width = 803;
}
);
unicode = 1EE6;
},
{
glyphname = Uhorn;
lastChange = "2019-10-06 19:24:56 +0000";
layers = (
{
layerId = "2BED5241-FEE2-452B-8B42-4A46EDD0955E";
paths = (
{
closed = 1;
nodes = (
"647 0 LINE",
"774.751 95 LINE",
"887.953 737 LINE",
"597.953 737 LINE",
"494.978 153 LINE",
"361.978 153 LINE",
"464.953 737 LINE",
"174.953 737 LINE",
"61.751 95 LINE",
"156 0 LINE"
);
},
{
closed = 1;
nodes = (
"1016.915 595 LINE",
"1206.238 801 LINE",
"975.238 801 LINE",
"919.432 683 LINE",
"855.432 683 LINE",
"839.915 595 LINE"
);
}
);
width = 803;
}
);
unicode = 01AF;
},
{
glyphname = Uhornacute;
lastChange = "2019-10-06 19:24:56 +0000";
layers = (
{
layerId = "2BED5241-FEE2-452B-8B42-4A46EDD0955E";
paths = (
{
closed = 1;
nodes = (
"647 0 LINE",
"774.751 95 LINE",
"887.953 737 LINE",
"597.953 737 LINE",
"494.978 153 LINE",
"361.978 153 LINE",
"464.953 737 LINE",
"174.953 737 LINE",
"61.751 95 LINE",
"156 0 LINE"
);
},
{
closed = 1;
nodes = (
"617.122 789 LINE",
"807.863 952 LINE",
"566.863 952 LINE",
"459.122 789 LINE"
);
},
{
closed = 1;
nodes = (
"1016.915 595 LINE",
"1206.238 801 LINE",
"975.238 801 LINE",
"919.432 683 LINE",
"855.432 683 LINE",
"839.915 595 LINE"
);
}
);
width = 803;
}
);
unicode = 1EE8;
},
{
glyphname = Uhorndotbelow;
lastChange = "2019-10-06 19:24:56 +0000";
layers = (
{
layerId = "2BED5241-FEE2-452B-8B42-4A46EDD0955E";
paths = (
{
closed = 1;
nodes = (
"647 0 LINE",
"774.751 95 LINE",
"887.953 737 LINE",
"597.953 737 LINE",
"494.978 153 LINE",
"361.978 153 LINE",
"464.953 737 LINE",
"174.953 737 LINE",
"61.751 95 LINE",
"156 0 LINE"
);
},
{
closed = 1;
nodes = (
"501.645 -209.013 LINE",
"529.505 -51.013 LINE",
"256.505 -51.013 LINE",
"228.645 -209.013 LINE"
);
},
{
closed = 1;
nodes = (
"1016.915 595 LINE",
"1206.238 801 LINE",
"975.238 801 LINE",
"919.432 683 LINE",
"855.432 683 LINE",
"839.915 595 LINE"
);
}
);
width = 803;
}
);
unicode = 1EF0;
},
{
glyphname = Uhorngrave;
lastChange = "2019-10-06 19:24:56 +0000";
layers = (
{
layerId = "2BED5241-FEE2-452B-8B42-4A46EDD0955E";
paths = (
{
closed = 1;
nodes = (
"647 0 LINE",
"774.751 95 LINE",
"887.953 737 LINE",
"597.953 737 LINE",
"494.978 153 LINE",
"361.978 153 LINE",
"464.953 737 LINE",
"174.953 737 LINE",
"61.751 95 LINE",
"156 0 LINE"
);
},
{
closed = 1;
nodes = (
"621.122 789 LINE",
"540.863 952 LINE",
"325.863 952 LINE",
"459.122 789 LINE"
);
},
{
closed = 1;
nodes = (
"1016.915 595 LINE",
"1206.238 801 LINE",
"975.238 801 LINE",
"919.432 683 LINE",
"855.432 683 LINE",
"839.915 595 LINE"
);
}
);
width = 803;
}
);
unicode = 1EEA;
},
{
glyphname = Uhornhookabove;
lastChange = "2019-10-06 19:24:56 +0000";
layers = (
{
layerId = "2BED5241-FEE2-452B-8B42-4A46EDD0955E";
paths = (
{
closed = 1;
nodes = (
"647 0 LINE",
"774.751 95 LINE",
"887.953 737 LINE",
"597.953 737 LINE",
"494.978 153 LINE",
"361.978 153 LINE",
"464.953 737 LINE",
"174.953 737 LINE",
"61.751 95 LINE",
"156 0 LINE"
);
},
{
closed = 1;
nodes = (
"621.122 789 LINE",
"627.999 828 LINE",
"669.999 828 LINE",
"724.699 866 LINE",
"745.682 985 LINE",
"704.088 1027 LINE",
"471.088 1027 LINE",
"408.682 985 LINE",
"397.221 920 LINE",
"547.221 920 LINE",
"554.45 961 LINE",
"586.45 961 LINE",
"574.813 895 LINE",
"510.813 895 LINE",
"466.699 866 LINE",
"453.122 789 LINE"
);
},
{
closed = 1;
nodes = (
"1016.915 595 LINE",
"1206.238 801 LINE",
"975.238 801 LINE",
"919.432 683 LINE",
"855.432 683 LINE",
"839.915 595 LINE"
);
}
);
width = 803;
}
);
unicode = 1EEC;
},
{
glyphname = Uhorntilde;
lastChange = "2019-10-06 19:24:56 +0000";
layers = (
{
layerId = "2BED5241-FEE2-452B-8B42-4A46EDD0955E";
paths = (
{
closed = 1;
nodes = (
"647 0 LINE",
"774.751 95 LINE",
"887.953 737 LINE",
"597.953 737 LINE",
"494.978 153 LINE",
"361.978 153 LINE",
"464.953 737 LINE",
"174.953 737 LINE",
"61.751 95 LINE",
"156 0 LINE"
);
},
{
closed = 1;
nodes = (
"712.122 789 LINE",
"808.818 861 LINE",
"824.511 950 LINE",
"672.511 950 LINE",
"666.692 917 LINE",
"648.047 902 LINE",
"630.047 902 LINE",
"590.745 957 LINE",
"392.745 957 LINE",
"296.697 883 LINE",
"281.18 795 LINE",
"433.18 795 LINE",
"438.822 827 LINE",
"457.644 843 LINE",
"474.644 843 LINE",
"515.122 789 LINE"
);
},
{
closed = 1;
nodes = (
"1016.915 595 LINE",
"1206.238 801 LINE",
"975.238 801 LINE",
"919.432 683 LINE",
"855.432 683 LINE",
"839.915 595 LINE"
);
}
);
width = 803;
}
);
unicode = 1EEE;
},
{
glyphname = Uhungarumlaut;
lastChange = "2019-10-06 19:24:56 +0000";
layers = (
{
layerId = "2BED5241-FEE2-452B-8B42-4A46EDD0955E";
paths = (
{
closed = 1;
nodes = (
"647 0 LINE",
"774.751 95 LINE",
"887.953 737 LINE",
"597.953 737 LINE",
"494.978 153 LINE",
"361.978 153 LINE",
"464.953 737 LINE",
"174.953 737 LINE",
"61.751 95 LINE",
"156 0 LINE"
);
},
{
closed = 1;
nodes = (
"500.122 789 LINE",
"693.216 954 LINE",
"448.216 954 LINE",
"322.122 789 LINE"
);
},
{
closed = 1;
nodes = (
"768.122 789 LINE",
"961.216 954 LINE",
"716.216 954 LINE",
"590.122 789 LINE"
);
}
);
width = 803;
}
);
leftKerningGroup = U;
rightKerningGroup = U;
unicode = 0170;
},
{
glyphname = Uinvertedbreve;
lastChange = "2019-10-06 19:24:56 +0000";
layers = (
{
layerId = "2BED5241-FEE2-452B-8B42-4A46EDD0955E";
paths = (
{
closed = 1;
nodes = (
"647 0 LINE",
"774.751 95 LINE",
"887.953 737 LINE",
"597.953 737 LINE",
"494.978 153 LINE",
"361.978 153 LINE",
"464.953 737 LINE",
"174.953 737 LINE",
"61.751 95 LINE",
"156 0 LINE"
);
},
{
closed = 1;
nodes = (
"486.122 789 LINE",
"495.291 841 LINE",
"597.291 841 LINE",
"588.122 789 LINE",
"784.122 789 LINE",
"797.347 864 LINE",
"709.863 952 LINE",
"421.863 952 LINE",
"303.347 864 LINE",
"290.122 789 LINE"
);
}
);
width = 803;
}
);
unicode = 0216;
},
{
glyphname = Umacron;
lastChange = "2019-10-06 19:24:56 +0000";
layers = (
{
layerId = "2BED5241-FEE2-452B-8B42-4A46EDD0955E";
paths = (
{
closed = 1;
nodes = (
"647 0 LINE",
"774.751 95 LINE",
"887.953 737 LINE",
"597.953 737 LINE",
"494.978 153 LINE",
"361.978 153 LINE",
"464.953 737 LINE",
"174.953 737 LINE",
"61.751 95 LINE",
"156 0 LINE"
);
},
{
closed = 1;
nodes = (
"815.122 789 LINE",
"841.395 938 LINE",
"285.395 938 LINE",
"259.122 789 LINE"
);
}
);
width = 803;
}
);
leftKerningGroup = U;
rightKerningGroup = U;
unicode = 016A;
},
{
glyphname = Uogonek;
lastChange = "2019-10-06 19:24:56 +0000";
layers = (
{
layerId = "2BED5241-FEE2-452B-8B42-4A46EDD0955E";
paths = (
{
closed = 1;
nodes = (
"156 0 LINE",
"357 0 LINE",
"306.181 -33 LINE",
"290.488 -122 LINE",
"361.322 -191 LINE",
"458.322 -191 LINE",
"480.715 -64 LINE",
"452.715 -64 LINE",
"439.184 -50 LINE",
"443.415 -26 LINE",
"478 0 LINE",
"647 0 LINE",
"774.751 95 LINE",
"887.953 737 LINE",
"597.953 737 LINE",
"494.978 153 LINE",
"361.978 153 LINE",
"464.953 737 LINE",
"174.953 737 LINE",
"61.751 95 LINE"
);
}
);
width = 803;
}
);
leftKerningGroup = U;
leftMetricsKey = U;
rightKerningGroup = U;
rightMetricsKey = U;
unicode = 0172;
},
{
glyphname = Uring;
lastChange = "2019-10-06 19:24:56 +0000";
layers = (
{
layerId = "2BED5241-FEE2-452B-8B42-4A46EDD0955E";
paths = (
{
closed = 1;
nodes = (
"647 0 LINE",
"774.751 95 LINE",
"887.953 737 LINE",
"597.953 737 LINE",
"494.978 153 LINE",
"361.978 153 LINE",
"464.953 737 LINE",
"174.953 737 LINE",
"61.751 95 LINE",
"156 0 LINE"
);
},
{
closed = 1;
nodes = (
"604.622 789 LINE",
"694.023 865 LINE",
"709.54 953 LINE",
"646.94 1029 LINE",
"511.94 1029 LINE",
"422.54 953 LINE",
"407.023 865 LINE",
"469.622 789 LINE"
);
},
{
closed = 1;
nodes = (
"533.694 900 LINE",
"536.692 917 LINE",
"553.337 932 LINE",
"570.337 932 LINE",
"582.692 917 LINE",
"579.694 900 LINE",
"562.226 886 LINE",
"545.226 886 LINE"
);
}
);
width = 803;
}
);
leftKerningGroup = U;
rightKerningGroup = U;
unicode = 016E;
},
{
glyphname = Utilde;
lastChange = "2019-10-06 19:24:56 +0000";
layers = (
{
layerId = "2BED5241-FEE2-452B-8B42-4A46EDD0955E";
paths = (
{
closed = 1;
nodes = (
"647 0 LINE",
"774.751 95 LINE",
"887.953 737 LINE",
"597.953 737 LINE",
"494.978 153 LINE",
"361.978 153 LINE",
"464.953 737 LINE",
"174.953 737 LINE",
"61.751 95 LINE",
"156 0 LINE"
);
},
{
closed = 1;
nodes = (
"712.122 789 LINE",
"808.818 861 LINE",
"824.511 950 LINE",
"672.511 950 LINE",
"666.692 917 LINE",
"648.047 902 LINE",
"630.047 902 LINE",
"590.745 957 LINE",
"392.745 957 LINE",
"296.697 883 LINE",
"281.18 795 LINE",
"433.18 795 LINE",
"438.822 827 LINE",
"457.644 843 LINE",
"474.644 843 LINE",
"515.122 789 LINE"
);
}
);
width = 803;
}
);
unicode = 0168;
},
{
glyphname = V;
lastChange = "2019-09-10 19:27:05 +0000";
layers = (
{
layerId = "2BED5241-FEE2-452B-8B42-4A46EDD0955E";
paths = (
{
closed = 1;
nodes = (
"594 0 LINE",
"857.458 496 LINE",
"899.953 737 LINE",
"610.953 737 LINE",
"455.797 186 LINE",
"413.797 186 LINE",
"435.953 737 LINE",
"163.953 737 LINE",
"121.458 496 LINE",
"211 0 LINE"
);
}
);
width = 803;
}
);
leftKerningGroup = V;
rightKerningGroup = V;
unicode = 0056;
},
{
glyphname = W;
lastChange = "2019-10-06 19:24:56 +0000";
layers = (
{
layerId = "2BED5241-FEE2-452B-8B42-4A46EDD0955E";
paths = (
{
closed = 1;
nodes = (
"505 0 LINE",
"604.152 171 LINE",
"641 0 LINE",
"952 0 LINE",
"1184.932 476 LINE",
"1230.953 737 LINE",
"939.953 737 LINE",
"803.797 186 LINE",
"761.797 186 LINE",
"819.953 737 LINE",
"585.953 737 LINE",
"449.797 186 LINE",
"408.797 186 LINE",
"466.953 737 LINE",
"174.953 737 LINE",
"128.932 476 LINE",
"195 0 LINE"
);
}
);
width = 1145;
}
);
leftKerningGroup = W;
rightKerningGroup = W;
unicode = 0057;
},
{
glyphname = Wacute;
lastChange = "2019-10-06 19:24:56 +0000";
layers = (
{
layerId = "2BED5241-FEE2-452B-8B42-4A46EDD0955E";
paths = (
{
closed = 1;
nodes = (
"505 0 LINE",
"604.152 171 LINE",
"641 0 LINE",
"952 0 LINE",
"1184.932 476 LINE",
"1230.953 737 LINE",
"939.953 737 LINE",
"803.797 186 LINE",
"761.797 186 LINE",
"819.953 737 LINE",
"585.953 737 LINE",
"449.797 186 LINE",
"408.797 186 LINE",
"466.953 737 LINE",
"174.953 737 LINE",
"128.932 476 LINE",
"195 0 LINE"
);
},
{
closed = 1;
nodes = (
"793.122 789 LINE",
"983.863 952 LINE",
"742.863 952 LINE",
"635.122 789 LINE"
);
}
);
width = 1145;
}
);
leftKerningGroup = W;
rightKerningGroup = W;
unicode = 1E82;
},
{
glyphname = Wcircumflex;
lastChange = "2019-10-06 19:24:56 +0000";
layers = (
{
layerId = "2BED5241-FEE2-452B-8B42-4A46EDD0955E";
paths = (
{
closed = 1;
nodes = (
"505 0 LINE",
"604.152 171 LINE",
"641 0 LINE",
"952 0 LINE",
"1184.932 476 LINE",
"1230.953 737 LINE",
"939.953 737 LINE",
"803.797 186 LINE",
"761.797 186 LINE",
"819.953 737 LINE",
"585.953 737 LINE",
"449.797 186 LINE",
"408.797 186 LINE",
"466.953 737 LINE",
"174.953 737 LINE",
"128.932 476 LINE",
"195 0 LINE"
);
},
{
closed = 1;
nodes = (
"637.122 789 LINE",
"726.523 865 LINE",
"789.122 789 LINE",
"976.122 789 LINE",
"881.863 952 LINE",
"596.863 952 LINE",
"445.122 789 LINE"
);
}
);
width = 1145;
}
);
leftKerningGroup = W;
rightKerningGroup = W;
unicode = 0174;
},
{
glyphname = Wdieresis;
lastChange = "2019-10-06 19:24:56 +0000";
layers = (
{
layerId = "2BED5241-FEE2-452B-8B42-4A46EDD0955E";
paths = (
{
closed = 1;
nodes = (
"505 0 LINE",
"604.152 171 LINE",
"641 0 LINE",
"952 0 LINE",
"1184.932 476 LINE",
"1230.953 737 LINE",
"939.953 737 LINE",
"803.797 186 LINE",
"761.797 186 LINE",
"819.953 737 LINE",
"585.953 737 LINE",
"449.797 186 LINE",
"408.797 186 LINE",
"466.953 737 LINE",
"174.953 737 LINE",
"128.932 476 LINE",
"195 0 LINE"
);
},
{
closed = 1;
nodes = (
"684.075 789 LINE",
"711.935 947 LINE",
"463.935 947 LINE",
"436.075 789 LINE"
);
},
{
closed = 1;
nodes = (
"990.488 789 LINE",
"1018.348 947 LINE",
"770.348 947 LINE",
"742.488 789 LINE"
);
}
);
width = 1145;
}
);
leftKerningGroup = W;
rightKerningGroup = W;
unicode = 1E84;
},
{
glyphname = Wgrave;
lastChange = "2019-10-06 19:24:56 +0000";
layers = (
{
layerId = "2BED5241-FEE2-452B-8B42-4A46EDD0955E";
paths = (
{
closed = 1;
nodes = (
"505 0 LINE",
"604.152 171 LINE",
"641 0 LINE",
"952 0 LINE",
"1184.932 476 LINE",
"1230.953 737 LINE",
"939.953 737 LINE",
"803.797 186 LINE",
"761.797 186 LINE",
"819.953 737 LINE",
"585.953 737 LINE",
"449.797 186 LINE",
"408.797 186 LINE",
"466.953 737 LINE",
"174.953 737 LINE",
"128.932 476 LINE",
"195 0 LINE"
);
},
{
closed = 1;
nodes = (
"779.122 789 LINE",
"698.863 952 LINE",
"483.863 952 LINE",
"617.122 789 LINE"
);
}
);
width = 1145;
}
);
leftKerningGroup = W;
rightKerningGroup = W;
unicode = 1E80;
},
{
glyphname = X;
lastChange = "2019-09-10 19:27:05 +0000";
layers = (
{
layerId = "2BED5241-FEE2-452B-8B42-4A46EDD0955E";
paths = (
{
closed = 1;
nodes = (
"339 0 LINE",
"439.782 288 LINE",
"481.782 288 LINE",
"480 0 LINE",
"774 0 LINE",
"814.026 227 LINE",
"720.004 380 LINE",
"866.395 524 LINE",
"903.953 737 LINE",
"609.953 737 LINE",
"511.758 458 LINE",
"469.758 458 LINE",
"468.953 737 LINE",
"174.953 737 LINE",
"137.395 524 LINE",
"234.004 380 LINE",
"85.026 227 LINE",
"45 0 LINE"
);
}
);
width = 818;
}
);
leftKerningGroup = X;
rightKerningGroup = X;
unicode = 0058;
},
{
glyphname = Y;
lastChange = "2019-10-06 19:24:56 +0000";
layers = (
{
layerId = "2BED5241-FEE2-452B-8B42-4A46EDD0955E";
paths = (
{
closed = 1;
nodes = (
"521 0 LINE",
"559.792 220.5 LINE",
"744.301 359 LINE",
"870.953 737 LINE",
"576.953 737 LINE",
"462.712 367 LINE",
"420.712 367 LINE",
"435.953 737 LINE",
"141.953 737 LINE",
"136.301 359 LINE",
"270.968 220.5 LINE",
"232 0 LINE"
);
}
);
width = 753;
}
);
leftKerningGroup = Y;
rightKerningGroup = Y;
unicode = 0059;
},
{
glyphname = Yacute;
lastChange = "2019-10-06 19:24:56 +0000";
layers = (
{
layerId = "2BED5241-FEE2-452B-8B42-4A46EDD0955E";
paths = (
{
closed = 1;
nodes = (
"521 0 LINE",
"559.792 220.5 LINE",
"744.301 359 LINE",
"870.953 737 LINE",
"576.953 737 LINE",
"462.712 367 LINE",
"420.712 367 LINE",
"435.953 737 LINE",
"141.953 737 LINE",
"136.301 359 LINE",
"270.968 220.5 LINE",
"232 0 LINE"
);
},
{
closed = 1;
nodes = (
"595.622 789 LINE",
"786.363 952 LINE",
"545.363 952 LINE",
"437.622 789 LINE"
);
}
);
width = 753;
}
);
leftKerningGroup = Y;
rightKerningGroup = Y;
unicode = 00DD;
},
{
glyphname = Ycircumflex;
lastChange = "2019-10-06 19:24:56 +0000";
layers = (
{
layerId = "2BED5241-FEE2-452B-8B42-4A46EDD0955E";
paths = (
{
closed = 1;
nodes = (
"521 0 LINE",
"559.792 220.5 LINE",
"744.301 359 LINE",
"870.953 737 LINE",
"576.953 737 LINE",
"462.712 367 LINE",
"420.712 367 LINE",
"435.953 737 LINE",
"141.953 737 LINE",
"136.301 359 LINE",
"270.968 220.5 LINE",
"232 0 LINE"
);
},
{
closed = 1;
nodes = (
"439.622 789 LINE",
"529.023 865 LINE",
"591.622 789 LINE",
"778.622 789 LINE",
"684.363 952 LINE",
"399.363 952 LINE",
"247.622 789 LINE"
);
}
);
width = 753;
}
);
leftKerningGroup = Y;
rightKerningGroup = Y;
unicode = 0176;
},
{
glyphname = Ydieresis;
lastChange = "2019-10-06 19:24:56 +0000";
layers = (
{
layerId = "2BED5241-FEE2-452B-8B42-4A46EDD0955E";
paths = (
{
closed = 1;
nodes = (
"521 0 LINE",
"559.792 220.5 LINE",
"744.301 359 LINE",
"870.953 737 LINE",
"576.953 737 LINE",
"462.712 367 LINE",
"420.712 367 LINE",
"435.953 737 LINE",
"141.953 737 LINE",
"136.301 359 LINE",
"270.968 220.5 LINE",
"232 0 LINE"
);
},
{
closed = 1;
nodes = (
"486.575 789 LINE",
"514.435 947 LINE",
"266.435 947 LINE",
"238.575 789 LINE"
);
},
{
closed = 1;
nodes = (
"792.988 789 LINE",
"820.848 947 LINE",
"572.848 947 LINE",
"544.988 789 LINE"
);
}
);
width = 753;
}
);
leftKerningGroup = Y;
rightKerningGroup = Y;
unicode = 0178;
},
{
glyphname = Ydotbelow;
lastChange = "2019-10-06 19:24:56 +0000";
layers = (
{
layerId = "2BED5241-FEE2-452B-8B42-4A46EDD0955E";
paths = (
{
closed = 1;
nodes = (
"521 0 LINE",
"559.792 220.5 LINE",
"744.301 359 LINE",
"870.953 737 LINE",
"576.953 737 LINE",
"462.712 367 LINE",
"420.712 367 LINE",
"435.953 737 LINE",
"141.953 737 LINE",
"136.301 359 LINE",
"270.968 220.5 LINE",
"232 0 LINE"
);
},
{
closed = 1;
nodes = (
"476.145 -209.013 LINE",
"504.005 -51.013 LINE",
"231.005 -51.013 LINE",
"203.145 -209.013 LINE"
);
}
);
width = 753;
}
);
leftKerningGroup = Y;
rightKerningGroup = Y;
unicode = 1EF4;
},
{
glyphname = Ygrave;
lastChange = "2019-10-06 19:24:56 +0000";
layers = (
{
layerId = "2BED5241-FEE2-452B-8B42-4A46EDD0955E";
paths = (
{
closed = 1;
nodes = (
"521 0 LINE",
"559.792 220.5 LINE",
"744.301 359 LINE",
"870.953 737 LINE",
"576.953 737 LINE",
"462.712 367 LINE",
"420.712 367 LINE",
"435.953 737 LINE",
"141.953 737 LINE",
"136.301 359 LINE",
"270.968 220.5 LINE",
"232 0 LINE"
);
},
{
closed = 1;
nodes = (
"599.622 789 LINE",
"519.363 952 LINE",
"304.363 952 LINE",
"437.622 789 LINE"
);
}
);
width = 753;
}
);
leftKerningGroup = Y;
rightKerningGroup = Y;
unicode = 1EF2;
},
{
glyphname = Yhookabove;
lastChange = "2019-10-06 19:24:56 +0000";
layers = (
{
layerId = "2BED5241-FEE2-452B-8B42-4A46EDD0955E";
paths = (
{
closed = 1;
nodes = (
"521 0 LINE",
"559.792 220.5 LINE",
"744.301 359 LINE",
"870.953 737 LINE",
"576.953 737 LINE",
"462.712 367 LINE",
"420.712 367 LINE",
"435.953 737 LINE",
"141.953 737 LINE",
"136.301 359 LINE",
"270.968 220.5 LINE",
"232 0 LINE"
);
},
{
closed = 1;
nodes = (
"599.622 789 LINE",
"606.499 828 LINE",
"648.499 828 LINE",
"703.199 866 LINE",
"724.182 985 LINE",
"682.588 1027 LINE",
"449.588 1027 LINE",
"387.182 985 LINE",
"375.721 920 LINE",
"525.721 920 LINE",
"532.95 961 LINE",
"564.95 961 LINE",
"553.313 895 LINE",
"489.313 895 LINE",
"445.199 866 LINE",
"431.622 789 LINE"
);
}
);
width = 753;
}
);
leftKerningGroup = Y;
rightKerningGroup = Y;
unicode = 1EF6;
},
{
glyphname = Ymacron;
lastChange = "2019-10-06 19:24:56 +0000";
layers = (
{
layerId = "2BED5241-FEE2-452B-8B42-4A46EDD0955E";
paths = (
{
closed = 1;
nodes = (
"521 0 LINE",
"559.792 220.5 LINE",
"744.301 359 LINE",
"870.953 737 LINE",
"576.953 737 LINE",
"462.712 367 LINE",
"420.712 367 LINE",
"435.953 737 LINE",
"141.953 737 LINE",
"136.301 359 LINE",
"270.968 220.5 LINE",
"232 0 LINE"
);
},
{
closed = 1;
nodes = (
"793.622 789 LINE",
"819.895 938 LINE",
"263.895 938 LINE",
"237.622 789 LINE"
);
}
);
width = 753;
}
);
leftKerningGroup = Y;
rightKerningGroup = Y;
unicode = 0232;
},
{
glyphname = Ytilde;
lastChange = "2019-10-06 19:24:56 +0000";
layers = (
{
layerId = "2BED5241-FEE2-452B-8B42-4A46EDD0955E";
paths = (
{
closed = 1;
nodes = (
"521 0 LINE",
"559.792 220.5 LINE",
"744.301 359 LINE",
"870.953 737 LINE",
"576.953 737 LINE",
"462.712 367 LINE",
"420.712 367 LINE",
"435.953 737 LINE",
"141.953 737 LINE",
"136.301 359 LINE",
"270.968 220.5 LINE",
"232 0 LINE"
);
},
{
closed = 1;
nodes = (
"690.622 789 LINE",
"787.318 861 LINE",
"803.011 950 LINE",
"651.011 950 LINE",
"645.192 917 LINE",
"626.547 902 LINE",
"608.547 902 LINE",
"569.245 957 LINE",
"371.245 957 LINE",
"275.197 883 LINE",
"259.68 795 LINE",
"411.68 795 LINE",
"417.322 827 LINE",
"436.144 843 LINE",
"453.144 843 LINE",
"493.622 789 LINE"
);
}
);
width = 753;
}
);
leftKerningGroup = Y;
rightKerningGroup = Y;
unicode = 1EF8;
},
{
glyphname = Z;
lastChange = "2019-10-06 19:24:56 +0000";
layers = (
{
layerId = "2BED5241-FEE2-452B-8B42-4A46EDD0955E";
paths = (
{
closed = 1;
nodes = (
"674 0 LINE",
"708.736 197 LINE",
"401.736 197 LINE",
"767.277 529 LINE",
"803.953 737 LINE",
"177.953 737 LINE",
"143.217 540 LINE",
"438.217 540 LINE",
"69.676 208 LINE",
"33 0 LINE"
);
}
);
width = 707;
}
);
leftKerningGroup = Z;
rightKerningGroup = Z;
unicode = 005A;
},
{
glyphname = Zacute;
lastChange = "2019-10-06 19:24:56 +0000";
layers = (
{
layerId = "2BED5241-FEE2-452B-8B42-4A46EDD0955E";
paths = (
{
closed = 1;
nodes = (
"674 0 LINE",
"708.736 197 LINE",
"401.736 197 LINE",
"767.277 529 LINE",
"803.953 737 LINE",
"177.953 737 LINE",
"143.217 540 LINE",
"438.217 540 LINE",
"69.676 208 LINE",
"33 0 LINE"
);
},
{
closed = 1;
nodes = (
"584.122 789 LINE",
"774.863 952 LINE",
"533.863 952 LINE",
"426.122 789 LINE"
);
}
);
width = 707;
}
);
leftKerningGroup = Z;
rightKerningGroup = Z;
unicode = 0179;
},
{
glyphname = Zcaron;
lastChange = "2019-10-06 19:24:56 +0000";
layers = (
{
layerId = "2BED5241-FEE2-452B-8B42-4A46EDD0955E";
paths = (
{
closed = 1;
nodes = (
"674 0 LINE",
"708.736 197 LINE",
"401.736 197 LINE",
"767.277 529 LINE",
"803.953 737 LINE",
"177.953 737 LINE",
"143.217 540 LINE",
"438.217 540 LINE",
"69.676 208 LINE",
"33 0 LINE"
);
},
{
closed = 1;
nodes = (
"649.122 789 LINE",
"800.863 952 LINE",
"608.863 952 LINE",
"519.462 876 LINE",
"456.863 952 LINE",
"269.863 952 LINE",
"364.122 789 LINE"
);
}
);
width = 707;
}
);
leftKerningGroup = Z;
rightKerningGroup = Z;
unicode = 017D;
},
{
glyphname = Zdotaccent;
lastChange = "2019-10-06 19:24:56 +0000";
layers = (
{
layerId = "2BED5241-FEE2-452B-8B42-4A46EDD0955E";
paths = (
{
closed = 1;
nodes = (
"674 0 LINE",
"708.736 197 LINE",
"401.736 197 LINE",
"767.277 529 LINE",
"803.953 737 LINE",
"177.953 737 LINE",
"143.217 540 LINE",
"438.217 540 LINE",
"69.676 208 LINE",
"33 0 LINE"
);
},
{
closed = 1;
nodes = (
"640.622 789 LINE",
"668.482 947 LINE",
"395.482 947 LINE",
"367.622 789 LINE"
);
}
);
width = 707;
}
);
leftKerningGroup = Z;
rightKerningGroup = Z;
unicode = 017B;
},
{
glyphname = a;
lastChange = "2019-10-08 13:13:56 +0000";
layers = (
{
layerId = "2BED5241-FEE2-452B-8B42-4A46EDD0955E";
paths = (
{
closed = 1;
nodes = (
"289 0 LINE",
"357.997 62.366 LINE",
"347 0 LINE",
"615 0 LINE",
"690.468 428 LINE",
"596.219 523 LINE",
"167.219 523 LINE",
"142.357 382 LINE",
"414.357 382 LINE",
"404.483 326 LINE",
"164.483 326 LINE",
"49.91 215 LINE",
"31.572 111 LINE",
"107 0 LINE"
);
},
{
closed = 1;
nodes = (
"297.671 242 LINE",
"389.671 242 LINE",
"376.447 167 LINE",
"305.867 107 LINE",
"273.867 107 LINE"
);
}
);
width = 654;
}
);
leftKerningGroup = a;
rightKerningGroup = n;
unicode = 0061;
},
{
glyphname = aacute;
lastChange = "2019-10-06 19:24:56 +0000";
layers = (
{
layerId = "2BED5241-FEE2-452B-8B42-4A46EDD0955E";
paths = (
{
closed = 1;
nodes = (
"289 0 LINE",
"357.997 62.366 LINE",
"347 0 LINE",
"615 0 LINE",
"690.468 428 LINE",
"596.219 523 LINE",
"167.219 523 LINE",
"142.357 382 LINE",
"414.357 382 LINE",
"404.483 326 LINE",
"164.483 326 LINE",
"49.91 215 LINE",
"31.572 111 LINE",
"107 0 LINE"
);
},
{
closed = 1;
nodes = (
"297.671 242 LINE",
"389.671 242 LINE",
"376.447 167 LINE",
"305.867 107 LINE",
"273.867 107 LINE"
);
},
{
closed = 1;
nodes = (
"512.388 575 LINE",
"703.129 738 LINE",
"462.129 738 LINE",
"354.388 575 LINE"
);
}
);
width = 654;
}
);
leftKerningGroup = a;
rightKerningGroup = n;
unicode = 00E1;
},
{
glyphname = abreve;
lastChange = "2019-10-06 19:24:56 +0000";
layers = (
{
layerId = "2BED5241-FEE2-452B-8B42-4A46EDD0955E";
paths = (
{
closed = 1;
nodes = (
"289 0 LINE",
"357.997 62.366 LINE",
"347 0 LINE",
"615 0 LINE",
"690.468 428 LINE",
"596.219 523 LINE",
"167.219 523 LINE",
"142.357 382 LINE",
"414.357 382 LINE",
"404.483 326 LINE",
"164.483 326 LINE",
"49.91 215 LINE",
"31.572 111 LINE",
"107 0 LINE"
);
},
{
closed = 1;
nodes = (
"297.671 242 LINE",
"389.671 242 LINE",
"376.447 167 LINE",
"305.867 107 LINE",
"273.867 107 LINE"
);
},
{
closed = 1;
nodes = (
"573.388 575 LINE",
"691.905 663 LINE",
"705.129 738 LINE",
"509.129 738 LINE",
"499.96 686 LINE",
"397.96 686 LINE",
"407.129 738 LINE",
"221.129 738 LINE",
"207.905 663 LINE",
"295.388 575 LINE"
);
}
);
width = 654;
}
);
leftKerningGroup = a;
rightKerningGroup = n;
unicode = 0103;
},
{
glyphname = abreveacute;
lastChange = "2019-10-06 19:24:56 +0000";
layers = (
{
layerId = "2BED5241-FEE2-452B-8B42-4A46EDD0955E";
paths = (
{
closed = 1;
nodes = (
"289 0 LINE",
"357.997 62.366 LINE",
"347 0 LINE",
"615 0 LINE",
"690.468 428 LINE",
"596.219 523 LINE",
"167.219 523 LINE",
"142.357 382 LINE",
"414.357 382 LINE",
"404.483 326 LINE",
"164.483 326 LINE",
"49.91 215 LINE",
"31.572 111 LINE",
"107 0 LINE"
);
},
{
closed = 1;
nodes = (
"297.671 242 LINE",
"389.671 242 LINE",
"376.447 167 LINE",
"305.867 107 LINE",
"273.867 107 LINE"
);
},
{
closed = 1;
nodes = (
"573.388 575 LINE",
"691.905 663 LINE",
"705.129 738 LINE",
"509.129 738 LINE",
"499.96 686 LINE",
"397.96 686 LINE",
"407.129 738 LINE",
"221.129 738 LINE",
"207.905 663 LINE",
"295.388 575 LINE"
);
},
{
closed = 1;
nodes = (
"542.388 785 LINE",
"733.129 948 LINE",
"492.129 948 LINE",
"384.388 785 LINE"
);
}
);
width = 654;
}
);
leftKerningGroup = a;
rightKerningGroup = n;
unicode = 1EAF;
},
{
glyphname = abrevedotbelow;
lastChange = "2019-10-06 19:24:56 +0000";
layers = (
{
layerId = "2BED5241-FEE2-452B-8B42-4A46EDD0955E";
paths = (
{
closed = 1;
nodes = (
"289 0 LINE",
"357.997 62.366 LINE",
"347 0 LINE",
"615 0 LINE",
"690.468 428 LINE",
"596.219 523 LINE",
"167.219 523 LINE",
"142.357 382 LINE",
"414.357 382 LINE",
"404.483 326 LINE",
"164.483 326 LINE",
"49.91 215 LINE",
"31.572 111 LINE",
"107 0 LINE"
);
},
{
closed = 1;
nodes = (
"433.645 -209.013 LINE",
"461.505 -51.013 LINE",
"188.505 -51.013 LINE",
"160.645 -209.013 LINE"
);
},
{
closed = 1;
nodes = (
"297.671 242 LINE",
"389.671 242 LINE",
"376.447 167 LINE",
"305.867 107 LINE",
"273.867 107 LINE"
);
},
{
closed = 1;
nodes = (
"573.388 575 LINE",
"691.905 663 LINE",
"705.129 738 LINE",
"509.129 738 LINE",
"499.96 686 LINE",
"397.96 686 LINE",
"407.129 738 LINE",
"221.129 738 LINE",
"207.905 663 LINE",
"295.388 575 LINE"
);
}
);
width = 654;
}
);
leftKerningGroup = a;
rightKerningGroup = n;
unicode = 1EB7;
},
{
glyphname = abrevegrave;
lastChange = "2019-10-06 19:24:56 +0000";
layers = (
{
layerId = "2BED5241-FEE2-452B-8B42-4A46EDD0955E";
paths = (
{
closed = 1;
nodes = (
"289 0 LINE",
"357.997 62.366 LINE",
"347 0 LINE",
"615 0 LINE",
"690.468 428 LINE",
"596.219 523 LINE",
"167.219 523 LINE",
"142.357 382 LINE",
"414.357 382 LINE",
"404.483 326 LINE",
"164.483 326 LINE",
"49.91 215 LINE",
"31.572 111 LINE",
"107 0 LINE"
);
},
{
closed = 1;
nodes = (
"297.671 242 LINE",
"389.671 242 LINE",
"376.447 167 LINE",
"305.867 107 LINE",
"273.867 107 LINE"
);
},
{
closed = 1;
nodes = (
"573.388 575 LINE",
"691.905 663 LINE",
"705.129 738 LINE",
"509.129 738 LINE",
"499.96 686 LINE",
"397.96 686 LINE",
"407.129 738 LINE",
"221.129 738 LINE",
"207.905 663 LINE",
"295.388 575 LINE"
);
},
{
closed = 1;
nodes = (
"542.206 771 LINE",
"461.947 934 LINE",
"246.947 934 LINE",
"380.206 771 LINE"
);
}
);
width = 654;
}
);
leftKerningGroup = a;
rightKerningGroup = n;
unicode = 1EB1;
},
{
glyphname = abrevehookabove;
lastChange = "2019-10-06 19:24:56 +0000";
layers = (
{
layerId = "2BED5241-FEE2-452B-8B42-4A46EDD0955E";
paths = (
{
closed = 1;
nodes = (
"289 0 LINE",
"357.997 62.366 LINE",
"347 0 LINE",
"615 0 LINE",
"690.468 428 LINE",
"596.219 523 LINE",
"167.219 523 LINE",
"142.357 382 LINE",
"414.357 382 LINE",
"404.483 326 LINE",
"164.483 326 LINE",
"49.91 215 LINE",
"31.572 111 LINE",
"107 0 LINE"
);
},
{
closed = 1;
nodes = (
"297.671 242 LINE",
"389.671 242 LINE",
"376.447 167 LINE",
"305.867 107 LINE",
"273.867 107 LINE"
);
},
{
closed = 1;
nodes = (
"573.388 575 LINE",
"691.905 663 LINE",
"705.129 738 LINE",
"509.129 738 LINE",
"499.96 686 LINE",
"397.96 686 LINE",
"407.129 738 LINE",
"221.129 738 LINE",
"207.905 663 LINE",
"295.388 575 LINE"
);
},
{
closed = 1;
nodes = (
"545.612 770.987 LINE",
"552.489 809.987 LINE",
"594.489 809.987 LINE",
"649.189 847.987 LINE",
"670.172 966.987 LINE",
"628.578 1008.987 LINE",
"395.578 1008.987 LINE",
"333.172 966.987 LINE",
"321.711 901.987 LINE",
"471.711 901.987 LINE",
"478.94 942.987 LINE",
"510.94 942.987 LINE",
"499.303 876.987 LINE",
"435.303 876.987 LINE",
"391.189 847.987 LINE",
"377.612 770.987 LINE"
);
}
);
width = 654;
}
);
leftKerningGroup = a;
rightKerningGroup = n;
unicode = 1EB3;
},
{
glyphname = abrevetilde;
lastChange = "2019-10-06 19:24:56 +0000";
layers = (
{
layerId = "2BED5241-FEE2-452B-8B42-4A46EDD0955E";
paths = (
{
closed = 1;
nodes = (
"289 0 LINE",
"357.997 62.366 LINE",
"347 0 LINE",
"615 0 LINE",
"690.468 428 LINE",
"596.219 523 LINE",
"167.219 523 LINE",
"142.357 382 LINE",
"414.357 382 LINE",
"404.483 326 LINE",
"164.483 326 LINE",
"49.91 215 LINE",
"31.572 111 LINE",
"107 0 LINE"
);
},
{
closed = 1;
nodes = (
"297.671 242 LINE",
"389.671 242 LINE",
"376.447 167 LINE",
"305.867 107 LINE",
"273.867 107 LINE"
);
},
{
closed = 1;
nodes = (
"573.388 575 LINE",
"691.905 663 LINE",
"705.129 738 LINE",
"509.129 738 LINE",
"499.96 686 LINE",
"397.96 686 LINE",
"407.129 738 LINE",
"221.129 738 LINE",
"207.905 663 LINE",
"295.388 575 LINE"
);
},
{
closed = 1;
nodes = (
"639.742 769 LINE",
"736.438 841 LINE",
"752.131 930 LINE",
"600.131 930 LINE",
"594.312 897 LINE",
"575.667 882 LINE",
"557.667 882 LINE",
"518.365 937 LINE",
"320.365 937 LINE",
"224.317 863 LINE",
"208.8 775 LINE",
"360.8 775 LINE",
"366.442 807 LINE",
"385.264 823 LINE",
"402.264 823 LINE",
"442.742 769 LINE"
);
}
);
width = 654;
}
);
leftKerningGroup = a;
rightKerningGroup = n;
unicode = 1EB5;
},
{
glyphname = acircumflex;
lastChange = "2019-10-06 19:24:56 +0000";
layers = (
{
layerId = "2BED5241-FEE2-452B-8B42-4A46EDD0955E";
paths = (
{
closed = 1;
nodes = (
"289 0 LINE",
"357.997 62.366 LINE",
"347 0 LINE",
"615 0 LINE",
"690.468 428 LINE",
"596.219 523 LINE",
"167.219 523 LINE",
"142.357 382 LINE",
"414.357 382 LINE",
"404.483 326 LINE",
"164.483 326 LINE",
"49.91 215 LINE",
"31.572 111 LINE",
"107 0 LINE"
);
},
{
closed = 1;
nodes = (
"297.671 242 LINE",
"389.671 242 LINE",
"376.447 167 LINE",
"305.867 107 LINE",
"273.867 107 LINE"
);
},
{
closed = 1;
nodes = (
"356.388 575 LINE",
"445.789 651 LINE",
"508.388 575 LINE",
"695.388 575 LINE",
"601.129 738 LINE",
"316.129 738 LINE",
"164.388 575 LINE"
);
}
);
width = 654;
}
);
leftKerningGroup = a;
rightKerningGroup = n;
unicode = 00E2;
},
{
glyphname = acircumflexacute;
lastChange = "2019-10-06 19:24:56 +0000";
layers = (
{
layerId = "2BED5241-FEE2-452B-8B42-4A46EDD0955E";
paths = (
{
closed = 1;
nodes = (
"289 0 LINE",
"357.997 62.366 LINE",
"347 0 LINE",
"615 0 LINE",
"690.468 428 LINE",
"596.219 523 LINE",
"167.219 523 LINE",
"142.357 382 LINE",
"414.357 382 LINE",
"404.483 326 LINE",
"164.483 326 LINE",
"49.91 215 LINE",
"31.572 111 LINE",
"107 0 LINE"
);
},
{
closed = 1;
nodes = (
"297.671 242 LINE",
"389.671 242 LINE",
"376.447 167 LINE",
"305.867 107 LINE",
"273.867 107 LINE"
);
},
{
closed = 1;
nodes = (
"356.388 575 LINE",
"445.789 651 LINE",
"508.388 575 LINE",
"695.388 575 LINE",
"601.129 738 LINE",
"316.129 738 LINE",
"164.388 575 LINE"
);
},
{
closed = 1;
nodes = (
"887.978 662.724 LINE",
"1078.719 825.724 LINE",
"837.719 825.724 LINE",
"729.978 662.724 LINE"
);
}
);
width = 654;
}
);
leftKerningGroup = a;
rightKerningGroup = n;
unicode = 1EA5;
},
{
glyphname = acircumflexdotbelow;
lastChange = "2019-10-06 19:24:56 +0000";
layers = (
{
layerId = "2BED5241-FEE2-452B-8B42-4A46EDD0955E";
paths = (
{
closed = 1;
nodes = (
"289 0 LINE",
"357.997 62.366 LINE",
"347 0 LINE",
"615 0 LINE",
"690.468 428 LINE",
"596.219 523 LINE",
"167.219 523 LINE",
"142.357 382 LINE",
"414.357 382 LINE",
"404.483 326 LINE",
"164.483 326 LINE",
"49.91 215 LINE",
"31.572 111 LINE",
"107 0 LINE"
);
},
{
closed = 1;
nodes = (
"433.645 -209.013 LINE",
"461.505 -51.013 LINE",
"188.505 -51.013 LINE",
"160.645 -209.013 LINE"
);
},
{
closed = 1;
nodes = (
"297.671 242 LINE",
"389.671 242 LINE",
"376.447 167 LINE",
"305.867 107 LINE",
"273.867 107 LINE"
);
},
{
closed = 1;
nodes = (
"356.388 575 LINE",
"445.789 651 LINE",
"508.388 575 LINE",
"695.388 575 LINE",
"601.129 738 LINE",
"316.129 738 LINE",
"164.388 575 LINE"
);
}
);
width = 654;
}
);
leftKerningGroup = a;
rightKerningGroup = n;
unicode = 1EAD;
},
{
glyphname = acircumflexgrave;
lastChange = "2019-10-08 22:05:59 +0000";
layers = (
{
layerId = "2BED5241-FEE2-452B-8B42-4A46EDD0955E";
paths = (
{
closed = 1;
nodes = (
"289 0 LINE",
"357.997 62.366 LINE",
"347 0 LINE",
"615 0 LINE",
"690.468 428 LINE",
"596.219 523 LINE",
"167.219 523 LINE",
"142.357 382 LINE",
"414.357 382 LINE",
"404.483 326 LINE",
"164.483 326 LINE",
"49.91 215 LINE",
"31.572 111 LINE",
"107 0 LINE"
);
},
{
closed = 1;
nodes = (
"297.671 242 LINE",
"389.671 242 LINE",
"376.447 167 LINE",
"305.867 107 LINE",
"273.867 107 LINE"
);
},
{
closed = 1;
nodes = (
"198.391 662.53 LINE",
"118.132 825.53 LINE",
"-96.868 825.53 LINE",
"36.391 662.53 LINE"
);
},
{
closed = 1;
nodes = (
"356.388 575 LINE",
"445.789 651 LINE",
"508.388 575 LINE",
"695.388 575 LINE",
"601.129 738 LINE",
"316.129 738 LINE",
"164.388 575 LINE"
);
}
);
width = 654;
}
);
leftKerningGroup = a;
rightKerningGroup = n;
unicode = 1EA7;
},
{
glyphname = acircumflexhookabove;
lastChange = "2019-10-06 19:24:56 +0000";
layers = (
{
layerId = "2BED5241-FEE2-452B-8B42-4A46EDD0955E";
paths = (
{
closed = 1;
nodes = (
"289 0 LINE",
"357.997 62.366 LINE",
"347 0 LINE",
"615 0 LINE",
"690.468 428 LINE",
"596.219 523 LINE",
"167.219 523 LINE",
"142.357 382 LINE",
"414.357 382 LINE",
"404.483 326 LINE",
"164.483 326 LINE",
"49.91 215 LINE",
"31.572 111 LINE",
"107 0 LINE"
);
},
{
closed = 1;
nodes = (
"297.671 242 LINE",
"389.671 242 LINE",
"376.447 167 LINE",
"305.867 107 LINE",
"273.867 107 LINE"
);
},
{
closed = 1;
nodes = (
"356.388 575 LINE",
"445.789 651 LINE",
"508.388 575 LINE",
"695.388 575 LINE",
"601.129 738 LINE",
"316.129 738 LINE",
"164.388 575 LINE"
);
},
{
closed = 1;
nodes = (
"860.843 662.653 LINE",
"867.72 701.653 LINE",
"909.72 701.653 LINE",
"964.42 739.653 LINE",
"985.403 858.653 LINE",
"943.809 900.653 LINE",
"710.809 900.653 LINE",
"648.403 858.653 LINE",
"636.942 793.653 LINE",
"786.942 793.653 LINE",
"794.171 834.653 LINE",
"826.171 834.653 LINE",
"814.534 768.653 LINE",
"750.534 768.653 LINE",
"706.42 739.653 LINE",
"692.843 662.653 LINE"
);
}
);
width = 654;
}
);
leftKerningGroup = a;
rightKerningGroup = n;
unicode = 1EA9;
},
{
glyphname = acircumflextilde;
lastChange = "2019-10-06 19:24:56 +0000";
layers = (
{
layerId = "2BED5241-FEE2-452B-8B42-4A46EDD0955E";
paths = (
{
closed = 1;
nodes = (
"289 0 LINE",
"357.997 62.366 LINE",
"347 0 LINE",
"615 0 LINE",
"690.468 428 LINE",
"596.219 523 LINE",
"167.219 523 LINE",
"142.357 382 LINE",
"414.357 382 LINE",
"404.483 326 LINE",
"164.483 326 LINE",
"49.91 215 LINE",
"31.572 111 LINE",
"107 0 LINE"
);
},
{
closed = 1;
nodes = (
"297.671 242 LINE",
"389.671 242 LINE",
"376.447 167 LINE",
"305.867 107 LINE",
"273.867 107 LINE"
);
},
{
closed = 1;
nodes = (
"356.388 575 LINE",
"445.789 651 LINE",
"508.388 575 LINE",
"695.388 575 LINE",
"601.129 738 LINE",
"316.129 738 LINE",
"164.388 575 LINE"
);
},
{
closed = 1;
nodes = (
"640.595 769 LINE",
"737.291 841 LINE",
"752.984 930 LINE",
"600.984 930 LINE",
"595.165 897 LINE",
"576.52 882 LINE",
"558.52 882 LINE",
"519.218 937 LINE",
"321.218 937 LINE",
"225.17 863 LINE",
"209.653 775 LINE",
"361.653 775 LINE",
"367.295 807 LINE",
"386.117 823 LINE",
"403.117 823 LINE",
"443.595 769 LINE"
);
}
);
width = 654;
}
);
leftKerningGroup = a;
rightKerningGroup = n;
unicode = 1EAB;
},
{
glyphname = adblgrave;
lastChange = "2019-10-08 22:03:16 +0000";
layers = (
{
layerId = "2BED5241-FEE2-452B-8B42-4A46EDD0955E";
paths = (
{
closed = 1;
nodes = (
"289 0 LINE",
"357.997 62.366 LINE",
"347 0 LINE",
"615 0 LINE",
"690.468 428 LINE",
"596.219 523 LINE",
"167.219 523 LINE",
"142.357 382 LINE",
"414.357 382 LINE",
"404.483 326 LINE",
"164.483 326 LINE",
"49.91 215 LINE",
"31.572 111 LINE",
"107 0 LINE"
);
},
{
closed = 1;
nodes = (
"297.671 242 LINE",
"389.671 242 LINE",
"376.447 167 LINE",
"305.867 107 LINE",
"273.867 107 LINE"
);
},
{
closed = 1;
nodes = (
"361.388 575 LINE",
"281.129 738 LINE",
"66.129 738 LINE",
"199.388 575 LINE"
);
},
{
closed = 1;
nodes = (
"648.388 575 LINE",
"568.129 738 LINE",
"353.129 738 LINE",
"486.388 575 LINE"
);
}
);
width = 654;
}
);
leftKerningGroup = a;
rightKerningGroup = n;
unicode = 0201;
},
{
glyphname = adieresis;
lastChange = "2019-10-06 19:24:56 +0000";
layers = (
{
layerId = "2BED5241-FEE2-452B-8B42-4A46EDD0955E";
paths = (
{
closed = 1;
nodes = (
"289 0 LINE",
"357.997 62.366 LINE",
"347 0 LINE",
"615 0 LINE",
"690.468 428 LINE",
"596.219 523 LINE",
"167.219 523 LINE",
"142.357 382 LINE",
"414.357 382 LINE",
"404.483 326 LINE",
"164.483 326 LINE",
"49.91 215 LINE",
"31.572 111 LINE",
"107 0 LINE"
);
},
{
closed = 1;
nodes = (
"297.671 242 LINE",
"389.671 242 LINE",
"376.447 167 LINE",
"305.867 107 LINE",
"273.867 107 LINE"
);
},
{
closed = 1;
nodes = (
"403.341 575 LINE",
"431.201 733 LINE",
"183.201 733 LINE",
"155.341 575 LINE"
);
},
{
closed = 1;
nodes = (
"709.754 575 LINE",
"737.614 733 LINE",
"489.614 733 LINE",
"461.754 575 LINE"
);
}
);
width = 654;
}
);
leftKerningGroup = a;
rightKerningGroup = n;
unicode = 00E4;
},
{
glyphname = adotbelow;
lastChange = "2019-10-06 19:24:56 +0000";
layers = (
{
layerId = "2BED5241-FEE2-452B-8B42-4A46EDD0955E";
paths = (
{
closed = 1;
nodes = (
"289 0 LINE",
"357.997 62.366 LINE",
"347 0 LINE",
"615 0 LINE",
"690.468 428 LINE",
"596.219 523 LINE",
"167.219 523 LINE",
"142.357 382 LINE",
"414.357 382 LINE",
"404.483 326 LINE",
"164.483 326 LINE",
"49.91 215 LINE",
"31.572 111 LINE",
"107 0 LINE"
);
},
{
closed = 1;
nodes = (
"433.645 -209.013 LINE",
"461.505 -51.013 LINE",
"188.505 -51.013 LINE",
"160.645 -209.013 LINE"
);
},
{
closed = 1;
nodes = (
"297.671 242 LINE",
"389.671 242 LINE",
"376.447 167 LINE",
"305.867 107 LINE",
"273.867 107 LINE"
);
}
);
width = 654;
}
);
leftKerningGroup = a;
rightKerningGroup = n;
unicode = 1EA1;
},
{
glyphname = agrave;
lastChange = "2019-10-06 19:24:56 +0000";
layers = (
{
layerId = "2BED5241-FEE2-452B-8B42-4A46EDD0955E";
paths = (
{
closed = 1;
nodes = (
"289 0 LINE",
"357.997 62.366 LINE",
"347 0 LINE",
"615 0 LINE",
"690.468 428 LINE",
"596.219 523 LINE",
"167.219 523 LINE",
"142.357 382 LINE",
"414.357 382 LINE",
"404.483 326 LINE",
"164.483 326 LINE",
"49.91 215 LINE",
"31.572 111 LINE",
"107 0 LINE"
);
},
{
closed = 1;
nodes = (
"297.671 242 LINE",
"389.671 242 LINE",
"376.447 167 LINE",
"305.867 107 LINE",
"273.867 107 LINE"
);
},
{
closed = 1;
nodes = (
"516.388 575 LINE",
"436.129 738 LINE",
"221.129 738 LINE",
"354.388 575 LINE"
);
}
);
width = 654;
}
);
leftKerningGroup = a;
rightKerningGroup = n;
unicode = 00E0;
},
{
glyphname = ahookabove;
lastChange = "2019-10-06 19:24:56 +0000";
layers = (
{
layerId = "2BED5241-FEE2-452B-8B42-4A46EDD0955E";
paths = (
{
closed = 1;
nodes = (
"289 0 LINE",
"357.997 62.366 LINE",
"347 0 LINE",
"615 0 LINE",
"690.468 428 LINE",
"596.219 523 LINE",
"167.219 523 LINE",
"142.357 382 LINE",
"414.357 382 LINE",
"404.483 326 LINE",
"164.483 326 LINE",
"49.91 215 LINE",
"31.572 111 LINE",
"107 0 LINE"
);
},
{
closed = 1;
nodes = (
"297.671 242 LINE",
"389.671 242 LINE",
"376.447 167 LINE",
"305.867 107 LINE",
"273.867 107 LINE"
);
},
{
closed = 1;
nodes = (
"516.388 575 LINE",
"523.265 614 LINE",
"565.265 614 LINE",
"619.965 652 LINE",
"640.948 771 LINE",
"599.354 813 LINE",
"366.354 813 LINE",
"303.948 771 LINE",
"292.487 706 LINE",
"442.487 706 LINE",
"449.716 747 LINE",
"481.716 747 LINE",
"470.079 681 LINE",
"406.079 681 LINE",
"361.965 652 LINE",
"348.388 575 LINE"
);
}
);
width = 654;
}
);
leftKerningGroup = a;
rightKerningGroup = n;
unicode = 1EA3;
},
{
glyphname = ainvertedbreve;
lastChange = "2019-10-06 19:24:56 +0000";
layers = (
{
layerId = "2BED5241-FEE2-452B-8B42-4A46EDD0955E";
paths = (
{
closed = 1;
nodes = (
"289 0 LINE",
"357.997 62.366 LINE",
"347 0 LINE",
"615 0 LINE",
"690.468 428 LINE",
"596.219 523 LINE",
"167.219 523 LINE",
"142.357 382 LINE",
"414.357 382 LINE",
"404.483 326 LINE",
"164.483 326 LINE",
"49.91 215 LINE",
"31.572 111 LINE",
"107 0 LINE"
);
},
{
closed = 1;
nodes = (
"297.671 242 LINE",
"389.671 242 LINE",
"376.447 167 LINE",
"305.867 107 LINE",
"273.867 107 LINE"
);
},
{
closed = 1;
nodes = (
"381.388 575 LINE",
"390.557 627 LINE",
"492.557 627 LINE",
"483.388 575 LINE",
"679.388 575 LINE",
"692.613 650 LINE",
"605.129 738 LINE",
"317.129 738 LINE",
"198.613 650 LINE",
"185.388 575 LINE"
);
}
);
width = 654;
}
);
leftKerningGroup = a;
rightKerningGroup = n;
unicode = 0203;
},
{
glyphname = amacron;
lastChange = "2019-10-06 19:24:56 +0000";
layers = (
{
layerId = "2BED5241-FEE2-452B-8B42-4A46EDD0955E";
paths = (
{
closed = 1;
nodes = (
"289 0 LINE",
"357.997 62.366 LINE",
"347 0 LINE",
"615 0 LINE",
"690.468 428 LINE",
"596.219 523 LINE",
"167.219 523 LINE",
"142.357 382 LINE",
"414.357 382 LINE",
"404.483 326 LINE",
"164.483 326 LINE",
"49.91 215 LINE",
"31.572 111 LINE",
"107 0 LINE"
);
},
{
closed = 1;
nodes = (
"297.671 242 LINE",
"389.671 242 LINE",
"376.447 167 LINE",
"305.867 107 LINE",
"273.867 107 LINE"
);
},
{
closed = 1;
nodes = (
"710.388 575 LINE",
"736.661 724 LINE",
"180.661 724 LINE",
"154.388 575 LINE"
);
}
);
width = 654;
}
);
leftKerningGroup = a;
rightKerningGroup = n;
unicode = 0101;
},
{
glyphname = aogonek;
lastChange = "2019-10-06 18:29:09 +0000";
layers = (
{
layerId = "2BED5241-FEE2-452B-8B42-4A46EDD0955E";
paths = (
{
closed = 1;
nodes = (
"448.345 -191 LINE",
"470.738 -64 LINE",
"442.738 -64 LINE",
"429.207 -50 LINE",
"433.438 -26 LINE",
"468.023 0 LINE",
"615 0 LINE",
"690.468 428 LINE",
"596.219 523 LINE",
"167.219 523 LINE",
"142.357 382 LINE",
"414.357 382 LINE",
"404.483 326 LINE",
"164.483 326 LINE",
"49.91 215 LINE",
"31.572 111 LINE",
"107 0 LINE",
"289 0 LINE",
"357.997 62.366 LINE",
"347 0 LINE",
"296.204 -33 LINE",
"280.511 -122 LINE",
"351.345 -191 LINE"
);
},
{
closed = 1;
nodes = (
"297.671 242 LINE",
"389.671 242 LINE",
"376.447 167 LINE",
"305.867 107 LINE",
"273.867 107 LINE"
);
}
);
width = 654;
}
);
leftKerningGroup = a;
leftMetricsKey = a;
rightKerningGroup = n;
rightMetricsKey = a;
unicode = 0105;
},
{
glyphname = aring;
lastChange = "2019-10-06 19:24:56 +0000";
layers = (
{
layerId = "2BED5241-FEE2-452B-8B42-4A46EDD0955E";
paths = (
{
closed = 1;
nodes = (
"289 0 LINE",
"357.997 62.366 LINE",
"347 0 LINE",
"615 0 LINE",
"690.468 428 LINE",
"596.219 523 LINE",
"167.219 523 LINE",
"142.357 382 LINE",
"414.357 382 LINE",
"404.483 326 LINE",
"164.483 326 LINE",
"49.91 215 LINE",
"31.572 111 LINE",
"107 0 LINE"
);
},
{
closed = 1;
nodes = (
"297.671 242 LINE",
"389.671 242 LINE",
"376.447 167 LINE",
"305.867 107 LINE",
"273.867 107 LINE"
);
},
{
closed = 1;
nodes = (
"499.888 575 LINE",
"589.289 651 LINE",
"604.806 739 LINE",
"542.206 815 LINE",
"407.206 815 LINE",
"317.806 739 LINE",
"302.289 651 LINE",
"364.888 575 LINE"
);
},
{
closed = 1;
nodes = (
"428.96 686 LINE",
"431.958 703 LINE",
"448.603 718 LINE",
"465.603 718 LINE",
"477.958 703 LINE",
"474.96 686 LINE",
"457.492 672 LINE",
"440.492 672 LINE"
);
}
);
width = 654;
}
);
leftKerningGroup = a;
rightKerningGroup = n;
unicode = 00E5;
},
{
glyphname = aringacute;
lastChange = "2019-10-06 19:24:56 +0000";
layers = (
{
layerId = "2BED5241-FEE2-452B-8B42-4A46EDD0955E";
paths = (
{
closed = 1;
nodes = (
"289 0 LINE",
"357.997 62.366 LINE",
"347 0 LINE",
"615 0 LINE",
"690.468 428 LINE",
"596.219 523 LINE",
"167.219 523 LINE",
"142.357 382 LINE",
"414.357 382 LINE",
"404.483 326 LINE",
"164.483 326 LINE",
"49.91 215 LINE",
"31.572 111 LINE",
"107 0 LINE"
);
},
{
closed = 1;
nodes = (
"297.671 242 LINE",
"389.671 242 LINE",
"376.447 167 LINE",
"305.867 107 LINE",
"273.867 107 LINE"
);
},
{
closed = 1;
nodes = (
"499.888 575 LINE",
"589.289 651 LINE",
"604.806 739 LINE",
"542.206 815 LINE",
"407.206 815 LINE",
"317.806 739 LINE",
"302.289 651 LINE",
"364.888 575 LINE"
);
},
{
closed = 1;
nodes = (
"428.96 686 LINE",
"431.958 703 LINE",
"448.603 718 LINE",
"465.603 718 LINE",
"477.958 703 LINE",
"474.96 686 LINE",
"457.492 672 LINE",
"440.492 672 LINE"
);
},
{
closed = 1;
nodes = (
"558.917 847.101 LINE",
"749.658 1010.101 LINE",
"508.658 1010.101 LINE",
"400.917 847.101 LINE"
);
}
);
width = 654;
}
);
leftKerningGroup = a;
rightKerningGroup = n;
unicode = 01FB;
},
{
glyphname = atilde;
lastChange = "2019-10-06 19:24:56 +0000";
layers = (
{
layerId = "2BED5241-FEE2-452B-8B42-4A46EDD0955E";
paths = (
{
closed = 1;
nodes = (
"289 0 LINE",
"357.997 62.366 LINE",
"347 0 LINE",
"615 0 LINE",
"690.468 428 LINE",
"596.219 523 LINE",
"167.219 523 LINE",
"142.357 382 LINE",
"414.357 382 LINE",
"404.483 326 LINE",
"164.483 326 LINE",
"49.91 215 LINE",
"31.572 111 LINE",
"107 0 LINE"
);
},
{
closed = 1;
nodes = (
"297.671 242 LINE",
"389.671 242 LINE",
"376.447 167 LINE",
"305.867 107 LINE",
"273.867 107 LINE"
);
},
{
closed = 1;
nodes = (
"607.388 575 LINE",
"704.084 647 LINE",
"719.777 736 LINE",
"567.777 736 LINE",
"561.958 703 LINE",
"543.313 688 LINE",
"525.313 688 LINE",
"486.011 743 LINE",
"288.011 743 LINE",
"191.963 669 LINE",
"176.446 581 LINE",
"328.446 581 LINE",
"334.088 613 LINE",
"352.91 629 LINE",
"369.91 629 LINE",
"410.388 575 LINE"
);
}
);
width = 654;
}
);
leftKerningGroup = a;
rightKerningGroup = n;
unicode = 00E3;
},
{
glyphname = ae;
lastChange = "2019-10-06 18:29:51 +0000";
layers = (
{
layerId = "2BED5241-FEE2-452B-8B42-4A46EDD0955E";
paths = (
{
closed = 1;
nodes = (
"371 0 LINE",
"460.1 80.537 LINE",
"540 0 LINE",
"934 0 LINE",
"959.92 147 LINE",
"636.92 147 LINE",
"648.91 215 LINE",
"976.91 215 LINE",
"1014.468 428 LINE",
"920.219 523 LINE",
"167.219 523 LINE",
"142.357 382 LINE",
"414.357 382 LINE",
"403.425 320 LINE",
"163.425 320 LINE",
"48.852 209 LINE",
"31.572 111 LINE",
"107 0 LINE"
);
},
{
closed = 1;
nodes = (
"292.91 215 LINE",
"384.91 215 LINE",
"376.447 167 LINE",
"305.867 107 LINE",
"273.867 107 LINE"
);
},
{
closed = 1;
nodes = (
"686.644 429 LINE",
"778.644 429 LINE",
"759.425 320 LINE",
"667.425 320 LINE"
);
}
);
width = 973;
}
);
leftKerningGroup = a;
leftMetricsKey = a;
rightKerningGroup = e;
rightMetricsKey = e;
unicode = 00E6;
},
{
glyphname = aeacute;
lastChange = "2019-10-06 18:29:55 +0000";
layers = (
{
layerId = "2BED5241-FEE2-452B-8B42-4A46EDD0955E";
paths = (
{
closed = 1;
nodes = (
"371 0 LINE",
"460.1 80.537 LINE",
"540 0 LINE",
"934 0 LINE",
"959.92 147 LINE",
"636.92 147 LINE",
"648.91 215 LINE",
"976.91 215 LINE",
"1014.468 428 LINE",
"920.219 523 LINE",
"167.219 523 LINE",
"142.357 382 LINE",
"414.357 382 LINE",
"403.425 320 LINE",
"163.425 320 LINE",
"48.852 209 LINE",
"31.572 111 LINE",
"107 0 LINE"
);
},
{
closed = 1;
nodes = (
"292.91 215 LINE",
"384.91 215 LINE",
"376.447 167 LINE",
"305.867 107 LINE",
"273.867 107 LINE"
);
},
{
closed = 1;
nodes = (
"686.644 429 LINE",
"778.644 429 LINE",
"759.425 320 LINE",
"667.425 320 LINE"
);
},
{
closed = 1;
nodes = (
"638.081 575 LINE",
"828.822 738 LINE",
"587.822 738 LINE",
"480.081 575 LINE"
);
}
);
width = 973;
}
);
leftKerningGroup = a;
rightKerningGroup = e;
unicode = 01FD;
},
{
glyphname = b;
lastChange = "2019-10-06 18:29:58 +0000";
layers = (
{
layerId = "2BED5241-FEE2-452B-8B42-4A46EDD0955E";
paths = (
{
closed = 1;
nodes = (
"308 0 LINE",
"314.271 35.564 LINE",
"359.8 0 LINE",
"560.6 0 LINE",
"688.381 94.6 LINE",
"747.15 427.9 LINE",
"652.731 522.5 LINE",
"459.631 522.5 LINE",
"392.617 479.885 LINE",
"437.953 737 LINE",
"168.953 737 LINE",
"39 0 LINE"
);
},
{
closed = 1;
nodes = (
"330.644 128.423 LINE",
"375.265 381.477 LINE",
"442.562 425.7 LINE",
"478.862 425.7 LINE",
"419.511 89.1 LINE",
"387.611 89.1 LINE"
);
}
);
width = 705.68;
}
);
leftKerningGroup = _part.b;
leftMetricsKey = n;
rightKerningGroup = o;
rightMetricsKey = o;
unicode = 0062;
},
{
glyphname = c;
lastChange = "2019-10-06 19:24:56 +0000";
layers = (
{
layerId = "2BED5241-FEE2-452B-8B42-4A46EDD0955E";
paths = (
{
closed = 1;
nodes = (
"639 0 LINE",
"664.92 147 LINE",
"327.92 147 LINE",
"377.644 429 LINE",
"469.644 429 LINE",
"446.193 296 LINE",
"693.193 296 LINE",
"716.468 428 LINE",
"622.219 523 LINE",
"237.219 523 LINE",
"109.468 428 LINE",
"50.751 95 LINE",
"145 0 LINE"
);
}
);
width = 675;
}
);
leftKerningGroup = o;
leftMetricsKey = o;
rightKerningGroup = e;
rightMetricsKey = o;
unicode = 0063;
},
{
glyphname = cacute;
lastChange = "2019-10-06 19:24:56 +0000";
layers = (
{
layerId = "2BED5241-FEE2-452B-8B42-4A46EDD0955E";
paths = (
{
closed = 1;
nodes = (
"639 0 LINE",
"664.92 147 LINE",
"327.92 147 LINE",
"377.644 429 LINE",
"469.644 429 LINE",
"446.193 296 LINE",
"693.193 296 LINE",
"716.468 428 LINE",
"622.219 523 LINE",
"237.219 523 LINE",
"109.468 428 LINE",
"50.751 95 LINE",
"145 0 LINE"
);
},
{
closed = 1;
nodes = (
"528.388 575 LINE",
"719.129 738 LINE",
"478.129 738 LINE",
"370.388 575 LINE"
);
}
);
width = 675;
}
);
leftKerningGroup = o;
rightKerningGroup = e;
unicode = 0107;
},
{
glyphname = ccaron;
lastChange = "2019-10-06 19:24:56 +0000";
layers = (
{
layerId = "2BED5241-FEE2-452B-8B42-4A46EDD0955E";
paths = (
{
closed = 1;
nodes = (
"639 0 LINE",
"664.92 147 LINE",
"327.92 147 LINE",
"377.644 429 LINE",
"469.644 429 LINE",
"446.193 296 LINE",
"693.193 296 LINE",
"716.468 428 LINE",
"622.219 523 LINE",
"237.219 523 LINE",
"109.468 428 LINE",
"50.751 95 LINE",
"145 0 LINE"
);
},
{
closed = 1;
nodes = (
"593.388 575 LINE",
"745.129 738 LINE",
"553.129 738 LINE",
"463.728 662 LINE",
"401.129 738 LINE",
"214.129 738 LINE",
"308.388 575 LINE"
);
}
);
width = 675;
}
);
leftKerningGroup = o;
rightKerningGroup = e;
unicode = 010D;
},
{
glyphname = ccedilla;
lastChange = "2019-10-06 19:24:56 +0000";
layers = (
{
layerId = "2BED5241-FEE2-452B-8B42-4A46EDD0955E";
paths = (
{
closed = 1;
nodes = (
"145 0 LINE",
"251 0 LINE",
"208.959 -125 LINE",
"382.959 -125 LINE",
"468 0 LINE",
"639 0 LINE",
"664.92 147 LINE",
"327.92 147 LINE",
"377.644 429 LINE",
"469.644 429 LINE",
"446.193 296 LINE",
"693.193 296 LINE",
"716.468 428 LINE",
"622.219 523 LINE",
"237.219 523 LINE",
"109.468 428 LINE",
"50.751 95 LINE"
);
}
);
width = 675;
}
);
leftKerningGroup = o;
rightKerningGroup = e;
unicode = 00E7;
},
{
glyphname = ccircumflex;
lastChange = "2019-10-06 19:24:56 +0000";
layers = (
{
layerId = "2BED5241-FEE2-452B-8B42-4A46EDD0955E";
paths = (
{
closed = 1;
nodes = (
"639 0 LINE",
"664.92 147 LINE",
"327.92 147 LINE",
"377.644 429 LINE",
"469.644 429 LINE",
"446.193 296 LINE",
"693.193 296 LINE",
"716.468 428 LINE",
"622.219 523 LINE",
"237.219 523 LINE",
"109.468 428 LINE",
"50.751 95 LINE",
"145 0 LINE"
);
},
{
closed = 1;
nodes = (
"372.388 575 LINE",
"461.789 651 LINE",
"524.388 575 LINE",
"711.388 575 LINE",
"617.129 738 LINE",
"332.129 738 LINE",
"180.388 575 LINE"
);
}
);
width = 675;
}
);
leftKerningGroup = o;
rightKerningGroup = e;
unicode = 0109;
},
{
glyphname = cdotaccent;
lastChange = "2019-10-06 19:24:56 +0000";
layers = (
{
layerId = "2BED5241-FEE2-452B-8B42-4A46EDD0955E";
paths = (
{
closed = 1;
nodes = (
"639 0 LINE",
"664.92 147 LINE",
"327.92 147 LINE",
"377.644 429 LINE",
"469.644 429 LINE",
"446.193 296 LINE",
"693.193 296 LINE",
"716.468 428 LINE",
"622.219 523 LINE",
"237.219 523 LINE",
"109.468 428 LINE",
"50.751 95 LINE",
"145 0 LINE"
);
},
{
closed = 1;
nodes = (
"584.888 575 LINE",
"612.748 733 LINE",
"339.748 733 LINE",
"311.888 575 LINE"
);
}
);
width = 675;
}
);
leftKerningGroup = o;
rightKerningGroup = e;
unicode = 010B;
},
{
glyphname = d;
lastChange = "2019-09-10 19:27:05 +0000";
layers = (
{
layerId = "2BED5241-FEE2-452B-8B42-4A46EDD0955E";
paths = (
{
closed = 1;
nodes = (
"345.97 0 LINE",
"405.162 36.251 LINE",
"398.77 0 LINE",
"667.77 0 LINE",
"797.723 737 LINE",
"528.723 737 LINE",
"483.26 479.169 LINE",
"430.401 522.5 LINE",
"237.301 522.5 LINE",
"109.52 427.9 LINE",
"50.751 94.6 LINE",
"145.17 0 LINE"
);
},
{
closed = 1;
nodes = (
"377.032 425.7 LINE",
"413.332 425.7 LINE",
"465.904 380.734 LINE",
"421.523 129.038 LINE",
"349.581 89.1 LINE",
"317.681 89.1 LINE"
);
}
);
width = 706.77;
}
);
leftKerningGroup = o;
leftMetricsKey = o;
rightKerningGroup = l;
unicode = 0064;
},
{
glyphname = eth;
lastChange = "2019-09-10 19:27:05 +0000";
layers = (
{
background = {
paths = (
{
closed = 1;
nodes = (
"547 0 LINE",
"674.751 95 LINE",
"727.629 395.931 LINE",
"589.966 655.413 LINE",
"650.591 693.56 LINE",
"602.931 780.56 LINE",
"543.509 743.219 LINE",
"521.637 784.56 LINE",
"335.139 670 LINE",
"358.139 626.515 LINE",
"300.033 590 LINE",
"346.516 502 LINE",
"404.652 538.58 LINE",
"435.637 480 LINE",
"229.461 479 LINE",
"101.71 384 LINE",
"50.751 95 LINE",
"145 0 LINE"
);
}
);
};
layerId = "2BED5241-FEE2-452B-8B42-4A46EDD0955E";
paths = (
{
closed = 1;
nodes = (
"552 0 LINE",
"679.751 95 LINE",
"731.517 389.127 LINE",
"589.966 655.413 LINE",
"650.591 693.56 LINE",
"602.931 780.56 LINE",
"543.509 743.219 LINE",
"521.637 784.56 LINE",
"335.139 670 LINE",
"358.139 626.515 LINE",
"300.033 590 LINE",
"346.516 502 LINE",
"404.652 538.58 LINE",
"435.637 480 LINE",
"229.461 479 LINE",
"101.71 384 LINE",
"50.751 95 LINE",
"145 0 LINE"
);
},
{
closed = 1;
nodes = (
"370.886 385 LINE",
"462.886 385 LINE",
"411.575 94 LINE",
"319.575 94 LINE"
);
}
);
width = 697.52;
}
);
leftKerningGroup = o;
leftMetricsKey = o;
rightKerningGroup = o;
unicode = 00F0;
},
{
glyphname = dcaron;
lastChange = "2019-10-06 18:15:50 +0000";
layers = (
{
layerId = "2BED5241-FEE2-452B-8B42-4A46EDD0955E";
paths = (
{
closed = 1;
nodes = (
"345.97 0 LINE",
"405.162 36.251 LINE",
"398.77 0 LINE",
"667.77 0 LINE",
"797.723 737 LINE",
"528.723 737 LINE",
"483.26 479.169 LINE",
"430.401 522.5 LINE",
"237.301 522.5 LINE",
"109.52 427.9 LINE",
"50.751 94.6 LINE",
"145.17 0 LINE"
);
},
{
closed = 1;
nodes = (
"377.032 425.7 LINE",
"413.332 425.7 LINE",
"465.904 380.734 LINE",
"421.523 129.038 LINE",
"349.581 89.1 LINE",
"317.681 89.1 LINE"
);
},
{
closed = 1;
nodes = (
"937.861 555 LINE",
"1102.953 737 LINE",
"875.953 737 LINE",
"792.861 555 LINE"
);
}
);
width = 706.70001;
}
);
leftKerningGroup = o;
rightKerningGroup = l;
unicode = 010F;
},
{
glyphname = dcroat;
lastChange = "2019-10-06 18:30:11 +0000";
layers = (
{
layerId = "2BED5241-FEE2-452B-8B42-4A46EDD0955E";
paths = (
{
closed = 1;
nodes = (
"145.17 0 LINE",
"345.97 0 LINE",
"405.162 36.251 LINE",
"398.77 0 LINE",
"667.77 0 LINE",
"764.397 548 LINE",
"821.427 548 LINE",
"845.76 686 LINE",
"788.73 686 LINE",
"797.723 737 LINE",
"528.723 737 LINE",
"519.73 686 LINE",
"416.76 686 LINE",
"392.427 548 LINE",
"495.397 548 LINE",
"483.26 479.169 LINE",
"430.401 522.5 LINE",
"237.301 522.5 LINE",
"109.52 427.9 LINE",
"50.751 94.6 LINE"
);
},
{
closed = 1;
nodes = (
"377.032 425.7 LINE",
"413.332 425.7 LINE",
"465.904 380.734 LINE",
"421.523 129.038 LINE",
"349.581 89.1 LINE",
"317.681 89.1 LINE"
);
}
);
width = 706.70001;
}
);
leftKerningGroup = o;
rightKerningGroup = l;
unicode = 0111;
},
{
glyphname = dzcaron;
lastChange = "2019-10-06 19:24:56 +0000";
layers = (
{
layerId = "2BED5241-FEE2-452B-8B42-4A46EDD0955E";
paths = (
{
closed = 1;
nodes = (
"345.97 0 LINE",
"405.162 36.251 LINE",
"398.77 0 LINE",
"667.77 0 LINE",
"797.723 737 LINE",
"528.723 737 LINE",
"483.26 479.169 LINE",
"430.401 522.5 LINE",
"237.301 522.5 LINE",
"109.52 427.9 LINE",
"50.751 94.6 LINE",
"145.17 0 LINE"
);
},
{
closed = 1;
nodes = (
"377.032 425.7 LINE",
"413.332 425.7 LINE",
"465.904 380.734 LINE",
"421.523 129.038 LINE",
"349.581 89.1 LINE",
"317.681 89.1 LINE"
);
},
{
closed = 1;
nodes = (
"1302.77 0 LINE",
"1326.75 136 LINE",
"1087.247 136 LINE",
"1359.069 376 LINE",
"1384.989 523 LINE",
"855.989 523 LINE",
"831.832 386 LINE",
"1039.397 386 LINE",
"764.632 141 LINE",
"739.77 0 LINE"
);
},
{
closed = 1;
nodes = (
"1269.158 575 LINE",
"1420.899 738 LINE",
"1228.899 738 LINE",
"1139.498 662 LINE",
"1076.899 738 LINE",
"889.899 738 LINE",
"984.158 575 LINE"
);
}
);
width = 1335.77;
}
);
leftKerningGroup = o;
unicode = 01C6;
},
{
glyphname = e;
lastChange = "2019-10-06 19:24:56 +0000";
layers = (
{
layerId = "2BED5241-FEE2-452B-8B42-4A46EDD0955E";
paths = (
{
closed = 1;
nodes = (
"626 0 LINE",
"651.92 147 LINE",
"328.92 147 LINE",
"340.029 210 LINE",
"668.029 210 LINE",
"706.468 428 LINE",
"612.219 523 LINE",
"237.219 523 LINE",
"109.468 428 LINE",
"50.751 95 LINE",
"145 0 LINE"
);
},
{
closed = 1;
nodes = (
"378.644 429 LINE",
"470.644 429 LINE",
"449.485 309 LINE",
"357.485 309 LINE"
);
}
);
width = 665;
}
);
leftKerningGroup = o;
leftMetricsKey = o;
rightKerningGroup = e;
unicode = 0065;
},
{
glyphname = eacute;
lastChange = "2019-10-06 19:24:56 +0000";
layers = (
{
layerId = "2BED5241-FEE2-452B-8B42-4A46EDD0955E";
paths = (
{
closed = 1;
nodes = (
"626 0 LINE",
"651.92 147 LINE",
"328.92 147 LINE",
"340.029 210 LINE",
"668.029 210 LINE",
"706.468 428 LINE",
"612.219 523 LINE",
"237.219 523 LINE",
"109.468 428 LINE",
"50.751 95 LINE",
"145 0 LINE"
);
},
{
closed = 1;
nodes = (
"378.644 429 LINE",
"470.644 429 LINE",
"449.485 309 LINE",
"357.485 309 LINE"
);
},
{
closed = 1;
nodes = (
"510.388 575 LINE",
"701.129 738 LINE",
"460.129 738 LINE",
"352.388 575 LINE"
);
}
);
width = 665;
}
);
leftKerningGroup = o;
rightKerningGroup = e;
unicode = 00E9;
},
{
glyphname = ebreve;
lastChange = "2019-10-06 19:24:56 +0000";
layers = (
{
layerId = "2BED5241-FEE2-452B-8B42-4A46EDD0955E";
paths = (
{
closed = 1;
nodes = (
"626 0 LINE",
"651.92 147 LINE",
"328.92 147 LINE",
"340.029 210 LINE",
"668.029 210 LINE",
"706.468 428 LINE",
"612.219 523 LINE",
"237.219 523 LINE",
"109.468 428 LINE",
"50.751 95 LINE",
"145 0 LINE"
);
},
{
closed = 1;
nodes = (
"378.644 429 LINE",
"470.644 429 LINE",
"449.485 309 LINE",
"357.485 309 LINE"
);
},
{
closed = 1;
nodes = (
"571.388 575 LINE",
"689.905 663 LINE",
"703.129 738 LINE",
"507.129 738 LINE",
"497.96 686 LINE",
"395.96 686 LINE",
"405.129 738 LINE",
"219.129 738 LINE",
"205.905 663 LINE",
"293.388 575 LINE"
);
}
);
width = 665;
}
);
leftKerningGroup = o;
rightKerningGroup = e;
unicode = 0115;
},
{
glyphname = ecaron;
lastChange = "2019-10-06 19:24:56 +0000";
layers = (
{
layerId = "2BED5241-FEE2-452B-8B42-4A46EDD0955E";
paths = (
{
closed = 1;
nodes = (
"626 0 LINE",
"651.92 147 LINE",
"328.92 147 LINE",
"340.029 210 LINE",
"668.029 210 LINE",
"706.468 428 LINE",
"612.219 523 LINE",
"237.219 523 LINE",
"109.468 428 LINE",
"50.751 95 LINE",
"145 0 LINE"
);
},
{
closed = 1;
nodes = (
"378.644 429 LINE",
"470.644 429 LINE",
"449.485 309 LINE",
"357.485 309 LINE"
);
},
{
closed = 1;
nodes = (
"575.388 575 LINE",
"727.129 738 LINE",
"535.129 738 LINE",
"445.728 662 LINE",
"383.129 738 LINE",
"196.129 738 LINE",
"290.388 575 LINE"
);
}
);
width = 665;
}
);
leftKerningGroup = o;
rightKerningGroup = e;
unicode = 011B;
},
{
glyphname = ecircumflex;
lastChange = "2019-10-06 19:24:56 +0000";
layers = (
{
layerId = "2BED5241-FEE2-452B-8B42-4A46EDD0955E";
paths = (
{
closed = 1;
nodes = (
"626 0 LINE",
"651.92 147 LINE",
"328.92 147 LINE",
"340.029 210 LINE",
"668.029 210 LINE",
"706.468 428 LINE",
"612.219 523 LINE",
"237.219 523 LINE",
"109.468 428 LINE",
"50.751 95 LINE",
"145 0 LINE"
);
},
{
closed = 1;
nodes = (
"378.644 429 LINE",
"470.644 429 LINE",
"449.485 309 LINE",
"357.485 309 LINE"
);
},
{
closed = 1;
nodes = (
"354.388 575 LINE",
"443.789 651 LINE",
"506.388 575 LINE",
"693.388 575 LINE",
"599.129 738 LINE",
"314.129 738 LINE",
"162.388 575 LINE"
);
}
);
width = 665;
}
);
leftKerningGroup = o;
rightKerningGroup = e;
unicode = 00EA;
},
{
glyphname = ecircumflexacute;
lastChange = "2019-10-06 19:24:56 +0000";
layers = (
{
layerId = "2BED5241-FEE2-452B-8B42-4A46EDD0955E";
paths = (
{
closed = 1;
nodes = (
"626 0 LINE",
"651.92 147 LINE",
"328.92 147 LINE",
"340.029 210 LINE",
"668.029 210 LINE",
"706.468 428 LINE",
"612.219 523 LINE",
"237.219 523 LINE",
"109.468 428 LINE",
"50.751 95 LINE",
"145 0 LINE"
);
},
{
closed = 1;
nodes = (
"378.644 429 LINE",
"470.644 429 LINE",
"449.485 309 LINE",
"357.485 309 LINE"
);
},
{
closed = 1;
nodes = (
"354.388 575 LINE",
"443.789 651 LINE",
"506.388 575 LINE",
"693.388 575 LINE",
"599.129 738 LINE",
"314.129 738 LINE",
"162.388 575 LINE"
);
},
{
closed = 1;
nodes = (
"885.978 662.724 LINE",
"1076.719 825.724 LINE",
"835.719 825.724 LINE",
"727.978 662.724 LINE"
);
}
);
width = 665;
}
);
leftKerningGroup = o;
rightKerningGroup = e;
unicode = 1EBF;
},
{
glyphname = ecircumflexdotbelow;
lastChange = "2019-10-06 19:24:56 +0000";
layers = (
{
layerId = "2BED5241-FEE2-452B-8B42-4A46EDD0955E";
paths = (
{
closed = 1;
nodes = (
"626 0 LINE",
"651.92 147 LINE",
"328.92 147 LINE",
"340.029 210 LINE",
"668.029 210 LINE",
"706.468 428 LINE",
"612.219 523 LINE",
"237.219 523 LINE",
"109.468 428 LINE",
"50.751 95 LINE",
"145 0 LINE"
);
},
{
closed = 1;
nodes = (
"428.645 -209.013 LINE",
"456.505 -51.013 LINE",
"183.505 -51.013 LINE",
"155.645 -209.013 LINE"
);
},
{
closed = 1;
nodes = (
"378.644 429 LINE",
"470.644 429 LINE",
"449.485 309 LINE",
"357.485 309 LINE"
);
},
{
closed = 1;
nodes = (
"354.388 575 LINE",
"443.789 651 LINE",
"506.388 575 LINE",
"693.388 575 LINE",
"599.129 738 LINE",
"314.129 738 LINE",
"162.388 575 LINE"
);
}
);
width = 665;
}
);
leftKerningGroup = o;
rightKerningGroup = e;
unicode = 1EC7;
},
{
glyphname = ecircumflexgrave;
lastChange = "2019-10-08 22:06:11 +0000";
layers = (
{
layerId = "2BED5241-FEE2-452B-8B42-4A46EDD0955E";
paths = (
{
closed = 1;
nodes = (
"626 0 LINE",
"651.92 147 LINE",
"328.92 147 LINE",
"340.029 210 LINE",
"668.029 210 LINE",
"706.468 428 LINE",
"612.219 523 LINE",
"237.219 523 LINE",
"109.468 428 LINE",
"50.751 95 LINE",
"145 0 LINE"
);
},
{
closed = 1;
nodes = (
"378.644 429 LINE",
"470.644 429 LINE",
"449.485 309 LINE",
"357.485 309 LINE"
);
},
{
closed = 1;
nodes = (
"196.391 662.53 LINE",
"116.132 825.53 LINE",
"-98.868 825.53 LINE",
"34.391 662.53 LINE"
);
},
{
closed = 1;
nodes = (
"354.388 575 LINE",
"443.789 651 LINE",
"506.388 575 LINE",
"693.388 575 LINE",
"599.129 738 LINE",
"314.129 738 LINE",
"162.388 575 LINE"
);
}
);
width = 665;
}
);
leftKerningGroup = o;
rightKerningGroup = e;
unicode = 1EC1;
},
{
glyphname = ecircumflexhookabove;
lastChange = "2019-10-06 19:24:56 +0000";
layers = (
{
layerId = "2BED5241-FEE2-452B-8B42-4A46EDD0955E";
paths = (
{
closed = 1;
nodes = (
"626 0 LINE",
"651.92 147 LINE",
"328.92 147 LINE",
"340.029 210 LINE",
"668.029 210 LINE",
"706.468 428 LINE",
"612.219 523 LINE",
"237.219 523 LINE",
"109.468 428 LINE",
"50.751 95 LINE",
"145 0 LINE"
);
},
{
closed = 1;
nodes = (
"378.644 429 LINE",
"470.644 429 LINE",
"449.485 309 LINE",
"357.485 309 LINE"
);
},
{
closed = 1;
nodes = (
"354.388 575 LINE",
"443.789 651 LINE",
"506.388 575 LINE",
"693.388 575 LINE",
"599.129 738 LINE",
"314.129 738 LINE",
"162.388 575 LINE"
);
},
{
closed = 1;
nodes = (
"858.843 662.653 LINE",
"865.72 701.653 LINE",
"907.72 701.653 LINE",
"962.42 739.653 LINE",
"983.403 858.653 LINE",
"941.809 900.653 LINE",
"708.809 900.653 LINE",
"646.403 858.653 LINE",
"634.942 793.653 LINE",
"784.942 793.653 LINE",
"792.171 834.653 LINE",
"824.171 834.653 LINE",
"812.534 768.653 LINE",
"748.534 768.653 LINE",
"704.42 739.653 LINE",
"690.843 662.653 LINE"
);
}
);
width = 665;
}
);
leftKerningGroup = o;
rightKerningGroup = e;
unicode = 1EC3;
},
{
glyphname = ecircumflextilde;
lastChange = "2019-10-06 19:24:56 +0000";
layers = (
{
layerId = "2BED5241-FEE2-452B-8B42-4A46EDD0955E";
paths = (
{
closed = 1;
nodes = (
"626 0 LINE",
"651.92 147 LINE",
"328.92 147 LINE",
"340.029 210 LINE",
"668.029 210 LINE",
"706.468 428 LINE",
"612.219 523 LINE",
"237.219 523 LINE",
"109.468 428 LINE",
"50.751 95 LINE",
"145 0 LINE"
);
},
{
closed = 1;
nodes = (
"378.644 429 LINE",
"470.644 429 LINE",
"449.485 309 LINE",
"357.485 309 LINE"
);
},
{
closed = 1;
nodes = (
"354.388 575 LINE",
"443.789 651 LINE",
"506.388 575 LINE",
"693.388 575 LINE",
"599.129 738 LINE",
"314.129 738 LINE",
"162.388 575 LINE"
);
},
{
closed = 1;
nodes = (
"638.595 769 LINE",
"735.291 841 LINE",
"750.984 930 LINE",
"598.984 930 LINE",
"593.165 897 LINE",
"574.52 882 LINE",
"556.52 882 LINE",
"517.218 937 LINE",
"319.218 937 LINE",
"223.17 863 LINE",
"207.653 775 LINE",
"359.653 775 LINE",
"365.295 807 LINE",
"384.117 823 LINE",
"401.117 823 LINE",
"441.595 769 LINE"
);
}
);
width = 665;
}
);
leftKerningGroup = o;
rightKerningGroup = e;
unicode = 1EC5;
},
{
glyphname = edblgrave;
lastChange = "2019-10-08 22:03:57 +0000";
layers = (
{
layerId = "2BED5241-FEE2-452B-8B42-4A46EDD0955E";
paths = (
{
closed = 1;
nodes = (
"626 0 LINE",
"651.92 147 LINE",
"328.92 147 LINE",
"340.029 210 LINE",
"668.029 210 LINE",
"706.468 428 LINE",
"612.219 523 LINE",
"237.219 523 LINE",
"109.468 428 LINE",
"50.751 95 LINE",
"145 0 LINE"
);
},
{
closed = 1;
nodes = (
"378.644 429 LINE",
"470.644 429 LINE",
"449.485 309 LINE",
"357.485 309 LINE"
);
},
{
closed = 1;
nodes = (
"359.388 575 LINE",
"279.129 738 LINE",
"64.129 738 LINE",
"197.388 575 LINE"
);
},
{
closed = 1;
nodes = (
"646.388 575 LINE",
"566.129 738 LINE",
"351.129 738 LINE",
"484.388 575 LINE"
);
}
);
width = 665;
}
);
leftKerningGroup = o;
rightKerningGroup = e;
unicode = 0205;
},
{
glyphname = edieresis;
lastChange = "2019-10-06 19:24:56 +0000";
layers = (
{
layerId = "2BED5241-FEE2-452B-8B42-4A46EDD0955E";
paths = (
{
closed = 1;
nodes = (
"626 0 LINE",
"651.92 147 LINE",
"328.92 147 LINE",
"340.029 210 LINE",
"668.029 210 LINE",
"706.468 428 LINE",
"612.219 523 LINE",
"237.219 523 LINE",
"109.468 428 LINE",
"50.751 95 LINE",
"145 0 LINE"
);
},
{
closed = 1;
nodes = (
"378.644 429 LINE",
"470.644 429 LINE",
"449.485 309 LINE",
"357.485 309 LINE"
);
},
{
closed = 1;
nodes = (
"401.341 575 LINE",
"429.201 733 LINE",
"181.201 733 LINE",
"153.341 575 LINE"
);
},
{
closed = 1;
nodes = (
"707.754 575 LINE",
"735.614 733 LINE",
"487.614 733 LINE",
"459.754 575 LINE"
);
}
);
width = 665;
}
);
leftKerningGroup = o;
rightKerningGroup = e;
unicode = 00EB;
},
{
glyphname = edotaccent;
lastChange = "2019-10-06 19:24:56 +0000";
layers = (
{
layerId = "2BED5241-FEE2-452B-8B42-4A46EDD0955E";
paths = (
{
closed = 1;
nodes = (
"626 0 LINE",
"651.92 147 LINE",
"328.92 147 LINE",
"340.029 210 LINE",
"668.029 210 LINE",
"706.468 428 LINE",
"612.219 523 LINE",
"237.219 523 LINE",
"109.468 428 LINE",
"50.751 95 LINE",
"145 0 LINE"
);
},
{
closed = 1;
nodes = (
"378.644 429 LINE",
"470.644 429 LINE",
"449.485 309 LINE",
"357.485 309 LINE"
);
},
{
closed = 1;
nodes = (
"566.888 575 LINE",
"594.748 733 LINE",
"321.748 733 LINE",
"293.888 575 LINE"
);
}
);
width = 665;
}
);
leftKerningGroup = o;
rightKerningGroup = e;
unicode = 0117;
},
{
glyphname = edotbelow;
lastChange = "2019-10-06 19:24:56 +0000";
layers = (
{
layerId = "2BED5241-FEE2-452B-8B42-4A46EDD0955E";
paths = (
{
closed = 1;
nodes = (
"626 0 LINE",
"651.92 147 LINE",
"328.92 147 LINE",
"340.029 210 LINE",
"668.029 210 LINE",
"706.468 428 LINE",
"612.219 523 LINE",
"237.219 523 LINE",
"109.468 428 LINE",
"50.751 95 LINE",
"145 0 LINE"
);
},
{
closed = 1;
nodes = (
"428.645 -209.013 LINE",
"456.505 -51.013 LINE",
"183.505 -51.013 LINE",
"155.645 -209.013 LINE"
);
},
{
closed = 1;
nodes = (
"378.644 429 LINE",
"470.644 429 LINE",
"449.485 309 LINE",
"357.485 309 LINE"
);
}
);
width = 665;
}
);
leftKerningGroup = o;
rightKerningGroup = e;
unicode = 1EB9;
},
{
glyphname = egrave;
lastChange = "2019-10-06 19:24:56 +0000";
layers = (
{
layerId = "2BED5241-FEE2-452B-8B42-4A46EDD0955E";
paths = (
{
closed = 1;
nodes = (
"626 0 LINE",
"651.92 147 LINE",
"328.92 147 LINE",
"340.029 210 LINE",
"668.029 210 LINE",
"706.468 428 LINE",
"612.219 523 LINE",
"237.219 523 LINE",
"109.468 428 LINE",
"50.751 95 LINE",
"145 0 LINE"
);
},
{
closed = 1;
nodes = (
"378.644 429 LINE",
"470.644 429 LINE",
"449.485 309 LINE",
"357.485 309 LINE"
);
},
{
closed = 1;
nodes = (
"514.388 575 LINE",
"434.129 738 LINE",
"219.129 738 LINE",
"352.388 575 LINE"
);
}
);
width = 665;
}
);
leftKerningGroup = o;
rightKerningGroup = e;
unicode = 00E8;
},
{
glyphname = ehookabove;
lastChange = "2019-10-06 19:24:56 +0000";
layers = (
{
layerId = "2BED5241-FEE2-452B-8B42-4A46EDD0955E";
paths = (
{
closed = 1;
nodes = (
"626 0 LINE",
"651.92 147 LINE",
"328.92 147 LINE",
"340.029 210 LINE",
"668.029 210 LINE",
"706.468 428 LINE",
"612.219 523 LINE",
"237.219 523 LINE",
"109.468 428 LINE",
"50.751 95 LINE",
"145 0 LINE"
);
},
{
closed = 1;
nodes = (
"378.644 429 LINE",
"470.644 429 LINE",
"449.485 309 LINE",
"357.485 309 LINE"
);
},
{
closed = 1;
nodes = (
"514.388 575 LINE",
"521.265 614 LINE",
"563.265 614 LINE",
"617.965 652 LINE",
"638.948 771 LINE",
"597.354 813 LINE",
"364.354 813 LINE",
"301.948 771 LINE",
"290.487 706 LINE",
"440.487 706 LINE",
"447.716 747 LINE",
"479.716 747 LINE",
"468.079 681 LINE",
"404.079 681 LINE",
"359.965 652 LINE",
"346.388 575 LINE"
);
}
);
width = 665;
}
);
leftKerningGroup = o;
rightKerningGroup = e;
unicode = 1EBB;
},
{
glyphname = einvertedbreve;
lastChange = "2019-10-06 19:24:56 +0000";
layers = (
{
layerId = "2BED5241-FEE2-452B-8B42-4A46EDD0955E";
paths = (
{
closed = 1;
nodes = (
"626 0 LINE",
"651.92 147 LINE",
"328.92 147 LINE",
"340.029 210 LINE",
"668.029 210 LINE",
"706.468 428 LINE",
"612.219 523 LINE",
"237.219 523 LINE",
"109.468 428 LINE",
"50.751 95 LINE",
"145 0 LINE"
);
},
{
closed = 1;
nodes = (
"378.644 429 LINE",
"470.644 429 LINE",
"449.485 309 LINE",
"357.485 309 LINE"
);
},
{
closed = 1;
nodes = (
"379.388 575 LINE",
"388.557 627 LINE",
"490.557 627 LINE",
"481.388 575 LINE",
"677.388 575 LINE",
"690.613 650 LINE",
"603.129 738 LINE",
"315.129 738 LINE",
"196.613 650 LINE",
"183.388 575 LINE"
);
}
);
width = 665;
}
);
leftKerningGroup = o;
rightKerningGroup = e;
unicode = 0207;
},
{
glyphname = emacron;
lastChange = "2019-10-06 19:24:56 +0000";
layers = (
{
layerId = "2BED5241-FEE2-452B-8B42-4A46EDD0955E";
paths = (
{
closed = 1;
nodes = (
"626 0 LINE",
"651.92 147 LINE",
"328.92 147 LINE",
"340.029 210 LINE",
"668.029 210 LINE",
"706.468 428 LINE",
"612.219 523 LINE",
"237.219 523 LINE",
"109.468 428 LINE",
"50.751 95 LINE",
"145 0 LINE"
);
},
{
closed = 1;
nodes = (
"378.644 429 LINE",
"470.644 429 LINE",
"449.485 309 LINE",
"357.485 309 LINE"
);
},
{
closed = 1;
nodes = (
"708.388 575 LINE",
"734.661 724 LINE",
"178.661 724 LINE",
"152.388 575 LINE"
);
}
);
width = 665;
}
);
leftKerningGroup = o;
rightKerningGroup = e;
unicode = 0113;
},
{
glyphname = eogonek;
lastChange = "2019-10-06 19:24:56 +0000";
layers = (
{
layerId = "2BED5241-FEE2-452B-8B42-4A46EDD0955E";
paths = (
{
closed = 1;
nodes = (
"145 0 LINE",
"505 0 LINE",
"454.181 -33 LINE",
"438.488 -122 LINE",
"509.322 -191 LINE",
"606.322 -191 LINE",
"628.715 -64 LINE",
"600.715 -64 LINE",
"587.184 -50 LINE",
"591.415 -26 LINE",
"626 0 LINE",
"651.92 147 LINE",
"328.92 147 LINE",
"340.029 210 LINE",
"668.029 210 LINE",
"706.468 428 LINE",
"612.219 523 LINE",
"237.219 523 LINE",
"109.468 428 LINE",
"50.751 95 LINE"
);
},
{
closed = 1;
nodes = (
"378.644 429 LINE",
"470.644 429 LINE",
"449.485 309 LINE",
"357.485 309 LINE"
);
}
);
width = 674;
}
);
leftKerningGroup = o;
leftMetricsKey = e;
rightKerningGroup = e;
rightMetricsKey = e;
unicode = 0119;
},
{
glyphname = etilde;
lastChange = "2019-10-06 19:24:56 +0000";
layers = (
{
layerId = "2BED5241-FEE2-452B-8B42-4A46EDD0955E";
paths = (
{
closed = 1;
nodes = (
"626 0 LINE",
"651.92 147 LINE",
"328.92 147 LINE",
"340.029 210 LINE",
"668.029 210 LINE",
"706.468 428 LINE",
"612.219 523 LINE",
"237.219 523 LINE",
"109.468 428 LINE",
"50.751 95 LINE",
"145 0 LINE"
);
},
{
closed = 1;
nodes = (
"378.644 429 LINE",
"470.644 429 LINE",
"449.485 309 LINE",
"357.485 309 LINE"
);
},
{
closed = 1;
nodes = (
"605.388 575 LINE",
"702.084 647 LINE",
"717.777 736 LINE",
"565.777 736 LINE",
"559.958 703 LINE",
"541.313 688 LINE",
"523.313 688 LINE",
"484.011 743 LINE",
"286.011 743 LINE",
"189.963 669 LINE",
"174.446 581 LINE",
"326.446 581 LINE",
"332.088 613 LINE",
"350.91 629 LINE",
"367.91 629 LINE",
"408.388 575 LINE"
);
}
);
width = 665;
}
);
leftKerningGroup = o;
rightKerningGroup = e;
unicode = 1EBD;
},
{
glyphname = schwa;
lastChange = "2019-10-06 18:13:41 +0000";
layers = (
{
layerId = "2BED5241-FEE2-452B-8B42-4A46EDD0955E";
paths = (
{
closed = 1;
nodes = (
"520 0 LINE",
"647.751 95 LINE",
"706.468 428 LINE",
"612.219 523 LINE",
"131.219 523 LINE",
"105.299 376 LINE",
"428.299 376 LINE",
"417.19 313 LINE",
"89.19 313 LINE",
"50.751 95 LINE",
"145 0 LINE"
);
},
{
closed = 1;
nodes = (
"307.734 214 LINE",
"399.734 214 LINE",
"378.575 94 LINE",
"286.575 94 LINE"
);
}
);
width = 665;
}
);
leftKerningGroup = o;
rightKerningGroup = e;
unicode = 0259;
},
{
glyphname = f;
lastChange = "2019-09-10 19:27:05 +0000";
layers = (
{
layerId = "2BED5241-FEE2-452B-8B42-4A46EDD0955E";
paths = (
{
closed = 1;
nodes = (
"317 0 LINE",
"388.236 404 LINE",
"479.236 404 LINE",
"500.219 523 LINE",
"409.219 523 LINE",
"425.793 617 LINE",
"540.794 617 LINE",
"561.953 737 LINE",
"284.953 737 LINE",
"157.202 642 LINE",
"136.219 523 LINE",
"93.219 523 LINE",
"72.236 404 LINE",
"115.236 404 LINE",
"44 0 LINE"
);
}
);
width = 427;
}
);
leftKerningGroup = f;
rightKerningGroup = f;
unicode = 0066;
},
{
glyphname = g;
lastChange = "2019-10-06 19:24:56 +0000";
layers = (
{
layerId = "2BED5241-FEE2-452B-8B42-4A46EDD0955E";
paths = (
{
closed = 1;
nodes = (
"483.827 -187 LINE",
"630.926 -56 LINE",
"732.843 522 LINE",
"489.843 522 LINE",
"482.404 479.814 LINE",
"430.331 522.5 LINE",
"237.231 522.5 LINE",
"109.45 427.9 LINE",
"50.681 94.6 LINE",
"145.1 0 LINE",
"345.9 0 LINE",
"404.083 35.633 LINE",
"394.979 -16 LINE",
"354.455 -53 LINE",
"57.455 -53 LINE",
"33.827 -187 LINE"
);
},
{
closed = 1;
nodes = (
"376.962 425.7 LINE",
"413.262 425.7 LINE",
"465.052 381.403 LINE",
"420.455 128.485 LINE",
"349.511 89.1 LINE",
"317.611 89.1 LINE"
);
}
);
width = 679.84;
}
);
leftKerningGroup = o;
rightKerningGroup = u;
unicode = 0067;
},
{
glyphname = gbreve;
lastChange = "2019-10-06 19:24:56 +0000";
layers = (
{
layerId = "2BED5241-FEE2-452B-8B42-4A46EDD0955E";
paths = (
{
closed = 1;
nodes = (
"483.827 -187 LINE",
"630.926 -56 LINE",
"732.843 522 LINE",
"489.843 522 LINE",
"482.404 479.814 LINE",
"430.331 522.5 LINE",
"237.231 522.5 LINE",
"109.45 427.9 LINE",
"50.681 94.6 LINE",
"145.1 0 LINE",
"345.9 0 LINE",
"404.083 35.633 LINE",
"394.979 -16 LINE",
"354.455 -53 LINE",
"57.455 -53 LINE",
"33.827 -187 LINE"
);
},
{
closed = 1;
nodes = (
"376.962 425.7 LINE",
"413.262 425.7 LINE",
"465.052 381.403 LINE",
"420.455 128.485 LINE",
"349.511 89.1 LINE",
"317.611 89.1 LINE"
);
},
{
closed = 1;
nodes = (
"579.012 574 LINE",
"697.529 662 LINE",
"710.753 737 LINE",
"514.753 737 LINE",
"505.584 685 LINE",
"403.584 685 LINE",
"412.753 737 LINE",
"226.753 737 LINE",
"213.529 662 LINE",
"301.012 574 LINE"
);
}
);
width = 679.8;
}
);
leftKerningGroup = o;
rightKerningGroup = u;
unicode = 011F;
},
{
glyphname = gcaron;
lastChange = "2019-10-06 19:24:56 +0000";
layers = (
{
layerId = "2BED5241-FEE2-452B-8B42-4A46EDD0955E";
paths = (
{
closed = 1;
nodes = (
"483.827 -187 LINE",
"630.926 -56 LINE",
"732.843 522 LINE",
"489.843 522 LINE",
"482.404 479.814 LINE",
"430.331 522.5 LINE",
"237.231 522.5 LINE",
"109.45 427.9 LINE",
"50.681 94.6 LINE",
"145.1 0 LINE",
"345.9 0 LINE",
"404.083 35.633 LINE",
"394.979 -16 LINE",
"354.455 -53 LINE",
"57.455 -53 LINE",
"33.827 -187 LINE"
);
},
{
closed = 1;
nodes = (
"376.962 425.7 LINE",
"413.262 425.7 LINE",
"465.052 381.403 LINE",
"420.455 128.485 LINE",
"349.511 89.1 LINE",
"317.611 89.1 LINE"
);
},
{
closed = 1;
nodes = (
"583.012 574 LINE",
"734.753 737 LINE",
"542.753 737 LINE",
"453.352 661 LINE",
"390.753 737 LINE",
"203.753 737 LINE",
"298.012 574 LINE"
);
}
);
width = 679.8;
}
);
leftKerningGroup = o;
rightKerningGroup = u;
unicode = 01E7;
},
{
glyphname = gcircumflex;
lastChange = "2019-10-06 19:24:56 +0000";
layers = (
{
layerId = "2BED5241-FEE2-452B-8B42-4A46EDD0955E";
paths = (
{
closed = 1;
nodes = (
"483.827 -187 LINE",
"630.926 -56 LINE",
"732.843 522 LINE",
"489.843 522 LINE",
"482.404 479.814 LINE",
"430.331 522.5 LINE",
"237.231 522.5 LINE",
"109.45 427.9 LINE",
"50.681 94.6 LINE",
"145.1 0 LINE",
"345.9 0 LINE",
"404.083 35.633 LINE",
"394.979 -16 LINE",
"354.455 -53 LINE",
"57.455 -53 LINE",
"33.827 -187 LINE"
);
},
{
closed = 1;
nodes = (
"376.962 425.7 LINE",
"413.262 425.7 LINE",
"465.052 381.403 LINE",
"420.455 128.485 LINE",
"349.511 89.1 LINE",
"317.611 89.1 LINE"
);
},
{
closed = 1;
nodes = (
"362.012 574 LINE",
"451.413 650 LINE",
"514.012 574 LINE",
"701.012 574 LINE",
"606.753 737 LINE",
"321.753 737 LINE",
"170.012 574 LINE"
);
}
);
width = 679.8;
}
);
leftKerningGroup = o;
rightKerningGroup = u;
unicode = 011D;
},
{
glyphname = gcommaaccent;
lastChange = "2019-10-06 19:24:56 +0000";
layers = (
{
layerId = "2BED5241-FEE2-452B-8B42-4A46EDD0955E";
paths = (
{
closed = 1;
nodes = (
"483.827 -187 LINE",
"630.926 -56 LINE",
"732.843 522 LINE",
"489.843 522 LINE",
"482.404 479.814 LINE",
"430.331 522.5 LINE",
"237.231 522.5 LINE",
"109.45 427.9 LINE",
"50.681 94.6 LINE",
"145.1 0 LINE",
"345.9 0 LINE",
"404.083 35.633 LINE",
"394.979 -16 LINE",
"354.455 -53 LINE",
"57.455 -53 LINE",
"33.827 -187 LINE"
);
},
{
closed = 1;
nodes = (
"376.962 425.7 LINE",
"413.262 425.7 LINE",
"465.052 381.403 LINE",
"420.455 128.485 LINE",
"349.511 89.1 LINE",
"317.611 89.1 LINE"
);
},
{
closed = 1;
nodes = (
"558.951 573.652 LINE",
"642.042 755.652 LINE",
"492.042 755.652 LINE",
"326.951 573.652 LINE"
);
}
);
width = 679.8;
}
);
leftKerningGroup = o;
rightKerningGroup = u;
unicode = 0123;
},
{
glyphname = gdotaccent;
lastChange = "2019-10-06 19:24:56 +0000";
layers = (
{
layerId = "2BED5241-FEE2-452B-8B42-4A46EDD0955E";
paths = (
{
closed = 1;
nodes = (
"483.827 -187 LINE",
"630.926 -56 LINE",
"732.843 522 LINE",
"489.843 522 LINE",
"482.404 479.814 LINE",
"430.331 522.5 LINE",
"237.231 522.5 LINE",
"109.45 427.9 LINE",
"50.681 94.6 LINE",
"145.1 0 LINE",
"345.9 0 LINE",
"404.083 35.633 LINE",
"394.979 -16 LINE",
"354.455 -53 LINE",
"57.455 -53 LINE",
"33.827 -187 LINE"
);
},
{
closed = 1;
nodes = (
"376.962 425.7 LINE",
"413.262 425.7 LINE",
"465.052 381.403 LINE",
"420.455 128.485 LINE",
"349.511 89.1 LINE",
"317.611 89.1 LINE"
);
},
{
closed = 1;
nodes = (
"574.512 574 LINE",
"602.372 732 LINE",
"329.372 732 LINE",
"301.512 574 LINE"
);
}
);
width = 679.8;
}
);
leftKerningGroup = o;
rightKerningGroup = u;
unicode = 0121;
},
{
glyphname = h;
lastChange = "2019-10-06 19:24:56 +0000";
layers = (
{
layerId = "2BED5241-FEE2-452B-8B42-4A46EDD0955E";
paths = (
{
closed = 1;
nodes = (
"308 0 LINE",
"375.239 381.333 LINE",
"445.662 425.7 LINE",
"477.562 425.7 LINE",
"402.5 0 LINE",
"670.4 0 LINE",
"745.85 427.9 LINE",
"651.431 522.5 LINE",
"460.531 522.5 LINE",
"392.75 480.639 LINE",
"437.953 737 LINE",
"168.953 737 LINE",
"39 0 LINE"
);
}
);
width = 704.4;
}
);
leftKerningGroup = _part.l;
leftMetricsKey = n;
rightKerningGroup = n;
rightMetricsKey = n;
unicode = 0068;
},
{
glyphname = hbar;
lastChange = "2019-10-06 19:24:56 +0000";
layers = (
{
layerId = "2BED5241-FEE2-452B-8B42-4A46EDD0955E";
paths = (
{
closed = 1;
nodes = (
"308 0 LINE",
"375.239 381.333 LINE",
"445.662 425.7 LINE",
"477.562 425.7 LINE",
"402.5 0 LINE",
"670.4 0 LINE",
"745.85 427.9 LINE",
"651.431 522.5 LINE",
"460.531 522.5 LINE",
"392.75 480.639 LINE",
"405.156 551 LINE",
"521.156 551 LINE",
"545.489 689 LINE",
"429.489 689 LINE",
"437.953 737 LINE",
"168.953 737 LINE",
"160.489 689 LINE",
"116.489 689 LINE",
"92.156 551 LINE",
"136.156 551 LINE",
"39 0 LINE"
);
}
);
width = 704.4;
}
);
leftKerningGroup = _part.l;
rightKerningGroup = n;
unicode = 0127;
},
{
glyphname = hcircumflex;
lastChange = "2019-10-06 19:24:56 +0000";
layers = (
{
guideLines = (
{
angle = 90;
position = "{283.9, 527}";
},
{
angle = 90;
position = "{44.9, 485}";
}
);
layerId = "2BED5241-FEE2-452B-8B42-4A46EDD0955E";
paths = (
{
closed = 1;
nodes = (
"308 0 LINE",
"375.239 381.333 LINE",
"445.662 425.7 LINE",
"477.562 425.7 LINE",
"402.5 0 LINE",
"670.4 0 LINE",
"745.85 427.9 LINE",
"651.431 522.5 LINE",
"460.531 522.5 LINE",
"392.75 480.639 LINE",
"437.953 737 LINE",
"168.953 737 LINE",
"39 0 LINE"
);
},
{
closed = 1;
nodes = (
"371.022 789 LINE",
"460.423 865 LINE",
"523.022 789 LINE",
"710.022 789 LINE",
"615.763 952 LINE",
"330.763 952 LINE",
"179.022 789 LINE"
);
}
);
width = 704.4;
}
);
leftKerningGroup = _part.l;
rightKerningGroup = n;
unicode = 0125;
},
{
glyphname = i;
lastChange = "2019-10-06 19:24:56 +0000";
layers = (
{
guideLines = (
{
angle = 260;
position = "{404.031, 522.5}";
},
{
angle = 260;
position = "{131.131, 522.5}";
}
);
layerId = "2BED5241-FEE2-452B-8B42-4A46EDD0955E";
paths = (
{
closed = 1;
nodes = (
"311.9 0 LINE",
"404.031 522.5 LINE",
"131.131 522.5 LINE",
"39 0 LINE"
);
},
{
closed = 1;
nodes = (
"413.353 575 LINE",
"441.213 733 LINE",
"168.213 733 LINE",
"140.353 575 LINE"
);
}
);
width = 351.03;
}
);
leftKerningGroup = i;
leftMetricsKey = n;
rightKerningGroup = i;
rightMetricsKey = d;
unicode = 0069;
},
{
glyphname = idotless;
lastChange = "2019-10-06 19:24:56 +0000";
layers = (
{
layerId = "2BED5241-FEE2-452B-8B42-4A46EDD0955E";
paths = (
{
closed = 1;
nodes = (
"311.9 0 LINE",
"404.031 522.5 LINE",
"131.131 522.5 LINE",
"39 0 LINE"
);
}
);
width = 351.03;
}
);
leftKerningGroup = i;
leftMetricsKey = n;
rightKerningGroup = i;
unicode = 0131;
},
{
glyphname = iacute;
lastChange = "2019-10-06 19:24:56 +0000";
layers = (
{
layerId = "2BED5241-FEE2-452B-8B42-4A46EDD0955E";
paths = (
{
closed = 1;
nodes = (
"311.9 0 LINE",
"404.031 522.5 LINE",
"131.131 522.5 LINE",
"39 0 LINE"
);
},
{
closed = 1;
nodes = (
"357.288 575 LINE",
"548.029 738 LINE",
"307.029 738 LINE",
"199.288 575 LINE"
);
}
);
width = 351.03;
}
);
leftKerningGroup = i;
rightKerningGroup = i;
unicode = 00ED;
},
{
glyphname = ibreve;
lastChange = "2019-10-06 19:24:56 +0000";
layers = (
{
layerId = "2BED5241-FEE2-452B-8B42-4A46EDD0955E";
paths = (
{
closed = 1;
nodes = (
"311.9 0 LINE",
"404.031 522.5 LINE",
"131.131 522.5 LINE",
"39 0 LINE"
);
},
{
closed = 1;
nodes = (
"418.288 575 LINE",
"536.805 663 LINE",
"550.029 738 LINE",
"354.029 738 LINE",
"344.86 686 LINE",
"242.86 686 LINE",
"252.029 738 LINE",
"66.029 738 LINE",
"52.805 663 LINE",
"140.288 575 LINE"
);
}
);
width = 351.03;
}
);
leftKerningGroup = i;
rightKerningGroup = i;
unicode = 012D;
},
{
glyphname = icircumflex;
lastChange = "2019-10-06 19:24:56 +0000";
layers = (
{
layerId = "2BED5241-FEE2-452B-8B42-4A46EDD0955E";
paths = (
{
closed = 1;
nodes = (
"311.9 0 LINE",
"404.031 522.5 LINE",
"131.131 522.5 LINE",
"39 0 LINE"
);
},
{
closed = 1;
nodes = (
"201.288 575 LINE",
"290.689 651 LINE",
"353.288 575 LINE",
"540.288 575 LINE",
"446.029 738 LINE",
"161.029 738 LINE",
"9.288 575 LINE"
);
}
);
width = 351.03;
}
);
leftKerningGroup = i;
rightKerningGroup = i;
unicode = 00EE;
},
{
glyphname = idblgrave;
lastChange = "2019-10-08 22:06:31 +0000";
layers = (
{
layerId = "2BED5241-FEE2-452B-8B42-4A46EDD0955E";
paths = (
{
closed = 1;
nodes = (
"311.9 0 LINE",
"404.031 522.5 LINE",
"131.131 522.5 LINE",
"39 0 LINE"
);
},
{
closed = 1;
nodes = (
"206.288 575 LINE",
"126.029 738 LINE",
"-88.971 738 LINE",
"44.288 575 LINE"
);
},
{
closed = 1;
nodes = (
"493.288 575 LINE",
"413.029 738 LINE",
"198.029 738 LINE",
"331.288 575 LINE"
);
}
);
width = 351.03;
}
);
leftKerningGroup = i;
rightKerningGroup = i;
unicode = 0209;
},
{
glyphname = idieresis;
lastChange = "2019-10-08 22:08:51 +0000";
layers = (
{
layerId = "2BED5241-FEE2-452B-8B42-4A46EDD0955E";
paths = (
{
closed = 1;
nodes = (
"311.9 0 LINE",
"404.031 522.5 LINE",
"131.131 522.5 LINE",
"39 0 LINE"
);
},
{
closed = 1;
nodes = (
"248.241 575 LINE",
"276.101 733 LINE",
"28.101 733 LINE",
"0.241 575 LINE"
);
},
{
closed = 1;
nodes = (
"554.654 575 LINE",
"582.514 733 LINE",
"334.514 733 LINE",
"306.654 575 LINE"
);
}
);
width = 351.03;
}
);
leftKerningGroup = i;
rightKerningGroup = i;
unicode = 00EF;
},
{
glyphname = idotaccent;
lastChange = "2019-10-06 19:24:56 +0000";
layers = (
{
layerId = "2BED5241-FEE2-452B-8B42-4A46EDD0955E";
paths = (
{
closed = 1;
nodes = (
"311.9 0 LINE",
"404.031 522.5 LINE",
"131.131 522.5 LINE",
"39 0 LINE"
);
},
{
closed = 1;
nodes = (
"413.788 575 LINE",
"441.648 733 LINE",
"168.648 733 LINE",
"140.788 575 LINE"
);
}
);
width = 351.03;
}
);
leftKerningGroup = i;
rightKerningGroup = i;
},
{
glyphname = idotbelow;
lastChange = "2019-10-06 19:24:56 +0000";
layers = (
{
layerId = "2BED5241-FEE2-452B-8B42-4A46EDD0955E";
paths = (
{
closed = 1;
nodes = (
"311.9 0 LINE",
"404.031 522.5 LINE",
"131.131 522.5 LINE",
"39 0 LINE"
);
},
{
closed = 1;
nodes = (
"278.545 -209.013 LINE",
"306.405 -51.013 LINE",
"33.405 -51.013 LINE",
"5.545 -209.013 LINE"
);
}
);
width = 351.03;
}
);
leftKerningGroup = i;
rightKerningGroup = i;
unicode = 1ECB;
},
{
glyphname = igrave;
lastChange = "2019-10-06 19:24:56 +0000";
layers = (
{
layerId = "2BED5241-FEE2-452B-8B42-4A46EDD0955E";
paths = (
{
closed = 1;
nodes = (
"311.9 0 LINE",
"404.031 522.5 LINE",
"131.131 522.5 LINE",
"39 0 LINE"
);
},
{
closed = 1;
nodes = (
"361.288 575 LINE",
"281.029 738 LINE",
"66.029 738 LINE",
"199.288 575 LINE"
);
}
);
width = 351.03;
}
);
leftKerningGroup = i;
rightKerningGroup = i;
unicode = 00EC;
},
